<svg xmlns="http://www.w3.org/2000/svg" viewBox="0 0 1500 1500">
<defs><style>.cls-1{fill:#fff;}.cls-2{fill:none;}.cls-3{fill:#fffdf1;}</style></defs>
<path class="cls-1" d="M354.94,765.91c.08.25.17.64.25.82A1.18,1.18,0,0,0,354.94,765.91Z"/>
<path class="cls-1" d="M368.55,754l0,.34.06-.17Z"/>
<path class="cls-1" d="M368.64,754.16l.3.59C368.82,753.86,368.73,753.9,368.64,754.16Z"/>
<path class="cls-1" d="M357,771.87a8.7,8.7,0,0,0,.36,1.73Z"/>
<path class="cls-1" d="M358.28,765.4a.87.87,0,0,0,.15-.42A1.62,1.62,0,0,0,358.28,765.4Z"/>
<path class="cls-1" d="M370.9,778l-.08.27A.52.52,0,0,0,370.9,778Z"/>
<path class="cls-1" d="M372.7,775.24a.84.84,0,0,0,.22-.24v-.1C372.87,774.83,372.74,775.12,372.7,775.24Z"/>
<path class="cls-1" d="M372,775.41l.26-.34A1.54,1.54,0,0,0,372,775.41Z"/>
<path class="cls-1" d="M391.14,790.57l.33-.09C391.28,790.46,391.18,790.5,391.14,790.57Z"/>
<path class="cls-1" d="M370.51,779a5.27,5.27,0,0,0,.31-.74C370.61,778.65,370.19,779.16,370.51,779Z"/>
<path class="cls-1" d="M354.8,765.76a1,1,0,0,1,.14.15C354.89,765.75,354.85,765.66,354.8,765.76Z"/>
<path class="cls-1" d="M356.94,776.15v-.09C356.93,775.68,356.92,775.83,356.94,776.15Z"/>
<path class="cls-1" d="M375.44,751.91c.37-.5.74-1,1.09-1.51C375.56,751.44,375.33,751.82,375.44,751.91Z"/>
<path class="cls-1" d="M369.35,792.42c-.47.51-.48-.61-.48-1.13s0-1.37-.45-1.28a10.68,10.68,0,0,1,.19,1.61,4.38,4.38,0,0,1-.07.76,1.56,1.56,0,0,1-.26.61,4.61,4.61,0,0,1-.22-1.08c0-.31,0-.6,0-.89,0-.57-.07-1.08-.46-1.32l.3,1.84c-.19.6-.44.5-.63.36s-.33-.22-.3.26a4.46,4.46,0,0,1,.29,2.88c-.84-.1-1.66-.26-2.31-.38-.32-.06-.61-.11-.86-.14a4.88,4.88,0,0,0-.84,0l.62-.1-2.64-.5s0,0,0,0a.76.76,0,0,0-.12.19,8.36,8.36,0,0,0-2.33-.79,2.88,2.88,0,0,0,0-.42c-.15,0-.24-.2-.29-.55a4.59,4.59,0,0,1-.06-.78c0-.42,0-.86,0-1.29a16.49,16.49,0,0,0-.32-4.05,8.82,8.82,0,0,1,0,2.86l-.72-.18c0-2.07.67-.13.24-2.11-1,.35,0,2.86-.11,4.31a7.67,7.67,0,0,1-.52-2.16c0,1.13-.06,2.25-.09,3.3A11.15,11.15,0,0,0,357,795a7.59,7.59,0,0,0,1.63-.47c.57.21.14.62-.58.71,1.21-.28,1.46-.14,1.82,0a1.94,1.94,0,0,0,1.56,0,1.14,1.14,0,0,1-.66.39,5.57,5.57,0,0,1-1.22.19c-1.06.08-2.35.1-3.59.17a10.06,10.06,0,0,0-.24-1.83c.09-.5.16-1,.21-1.44s.08-1,.1-1.29a20.24,20.24,0,0,0,0-2.33c-.1-1.59-.31-3.21-.37-4.71.67-.12,1.24,2,1.62.81.45-2.94-.36-3-.74-4.62.24-2.1,1.12-.21,1.15-3.55l.44,2c.95-1.92-.38-1.83-.18-3.29-.25.48-.49.48-.47,2.14-.34.17-.49-1.1-.53-1.71l0,.39c-.46-.7-1-.92-.72-3,.55,1.32.42-1.66.68-2.19l.12.55c-.19-1.53-.11-3.13-.21-4.1l.13.08c-.22-1.16-.92-1.59-.77-3.27.28.17,1.05,2.17.92.32.42.26.46,2.31.31,4,.15-1.69.84-2.53.88-.47.54-.56-.23-1.94,0-3-.16.2-.35-.15-.51-.07.72-.06.06-4-.44-4.09l.4,2c-.58.15-1-2.37-1.29-1.56.91-1-.45-5.37.32-6.41l-.47.72c.28-4.15-.77-7.59-1-11.8.29,1.44,1.29,1.56.94,4.15.2-4,1-1.16,1.49-2.38.37-3.08-.93-1.6-1.24-2.55l.18,2.14c-.58-1.38-.51-3.37-.4-5.55a36.19,36.19,0,0,0-.07-7.18c.31-.13.18,1.14.29,1.83a3.34,3.34,0,0,0,.22-1.42,5.9,5.9,0,0,0-.29-1.11,1.36,1.36,0,0,1,.68-.29,21.42,21.42,0,0,1,3.31.31c.68.17,1,.41.36.78,2.18.18-.23-.44.93-.67l.4.16,1.15-.41c.41-.13.71-.27,1.26-.41a22.89,22.89,0,0,1,3.25.5,7.4,7.4,0,0,1-.83,2.7,6,6,0,0,0,.32,2,1.2,1.2,0,0,0,.59.68c.43.23.87.32,1,1.92-.38,1.8-.56-.34-.84-.51l.07,2.84c-.81-1-.41-3.31-1.35-3.13,1,2.37.27,3.21.9,6.4l.09-.2c.64,1.42.19,4.7.32,6.56-.4-.76-.44-2.82-.59-4.18a23.25,23.25,0,0,0,0,4.69,23.92,23.92,0,0,0,.32,2.58,3,3,0,0,0,.53,1.46c-.07.44-.19,1.21-.33,1.83s-.32,1.09-.49.46c-.07,2.14.23,2,.52,1.76s.56-.7.43.8l-.64,1.62-.09.62a5.87,5.87,0,0,0,1.52-1.6c.58-.77,1.15-1.64,1.64-2.41s.92-1.46,1.36-2l.35-.43c.14-.17.3-.35.46-.51a8.3,8.3,0,0,1,1-.94l-.46-.68c.77-.42,1.95-1.63,2.39-1.69l-1,1.68c1.53-.85.72-1.88,2.34-3.14-.2-.14-1.65.81-1.85.64-.72,1-1.46,2-2.22,2.9l-1.14,1.4-.71.83c-.95,1.08-1.79,2-2.54,2.79,0-1,.05-1.81,0-2.62,0-.41-.05-.82-.09-1.25l-.08-.66-.05-.36-.05-.61c-.1.31-.21.68-.36.47.19-.89,0-2.55.4-2.29l.06.29c-.18-2.14.78-4.08.77-5.36-.53-.84.22-4.44-.69-3.48l.58-1.41c-.34-.47-.78-.24-.95-1.11.07-1.48.43-1.51.66-.35.08-1.34.14-2.73.18-4.16,0-.36,0-.71,0-1.08,0-.57,0-1.15,0-1.72,0-1.17,0-2.35,0-3.53-2.5,0-5.66,0-6.83.08l-5.93.18,2.24-.43a31.92,31.92,0,0,0-3.93.12,17.47,17.47,0,0,1,.05,2.3c-.05.43-.19.5-.5-.27.05.65.09,1.33.11,2s0,1.16,0,1.76v2.54c0,1.59.11,2.86.67,3-1.09,1.86-.48,6.82-.31,10.73,1-.66.26,3.22.72,4.27-.75.54-.77-3.28-1.27-3.34,1.16,4-.85,11.16,1.08,12.88-.08.48-.15.49-.23.32a24.57,24.57,0,0,1-.42,2.57c.34.47.49-1.21.62.64-.08,1.48-.61.64-.86,1.25.44,2.81.62,7.28,1.39,7.76-.21.84-.64,1.72-.79.79.6,4.48-.12,4.3.27,8.83,0-1.58-.82-.79-.5-3.07-.5.82-.5,2.35-.41,4.11,0,.44.05.9.08,1.36l0,.7,0,1.05c0,1.57.05,3.09,0,4.63.5,0,1,0,1.44.1,1-.23,1.9-.46,2.69-.69a9,9,0,0,1,1.71,0,.82.82,0,0,1,.53.22c.06.1,0,.2-.17.29a1.59,1.59,0,0,1-.34.14l-.23.06a1.46,1.46,0,0,1-.35,0l1.21.11,1,.06c.66,0,1.27,0,1.84,0l5.77-.16c0-.71,0-1.44,0-2.21.09-.24.23.07.19.91l0-6.09c-.17-.41-.52-1.9-1-1.59a2.3,2.3,0,0,1,.44,1.15,6.19,6.19,0,0,1,0,1c0,.2,0,.42,0,.66S369.38,792.07,369.35,792.42Z"/>
<path class="cls-1" d="M369,788.6l-.08-.11v.16S369,788.62,369,788.6Z"/>
<path class="cls-1" d="M358.23,774.71a3.7,3.7,0,0,0-.29,1A3.19,3.19,0,0,0,358.23,774.71Z"/>
<path class="cls-1" d="M385,786.54c.5-1.07-1.71-1.83-2.62-3.41,1.2,1.23,1.41.5,1.51.14-2.4-.78-1.42-2.19-4.1-5,.29-.35,1.54,1.07,2.06.93-1.62-1.45-3.84-3.89-4.74-3.78l-1-1.24-1-1.32-1.87-2.46c-.84.9-1.61,1.74-2.27,2.55,1-1.32,1.06-1.71,1-2s-.19-.55.82-2.19l-1.6,2.51-.83,1.31-.41.64-.19.32-.14.24L367.28,778c.33,1.52.68,2.9,1,4.14-.85.48-.93.66-1.7.17-.56,4.39.78,1.28.53,5.45l.15-1.93c.25,2,1.05,2.09,1.61,2.7l-.12-4.89c.58,0,.49,3.08.64,4,.7,1.46.5-2.62,1-2.09-.45-.71-.3-2.64-.5-3.87l.31-.22a7.76,7.76,0,0,0,0-1.85,1.78,1.78,0,0,0-.05-.35l-.06-.05a1.84,1.84,0,0,1-.14-.14.36.36,0,0,1,0-.23s.1-.17.22-.33.24-.29.38-.44.25-.06.27,0a7.28,7.28,0,0,1,1.12-2.61l-.6.72c.08-.22.19-.48.31-.74a1.7,1.7,0,0,0,.12-.32l.09-.29c.14-.4.36-.87.55-1.33.37-.87.75-1.78-.32-1.18l1-1.06,2.14,2.89a9.58,9.58,0,0,0-1.28.32,2.46,2.46,0,0,1-.94.23,1.9,1.9,0,0,1-.21.35c0,.18,0,.35,0,.51s.12,0,.18,0c.11.12.3,0,.64,0s.76-.07.73-.55a1,1,0,0,1,.43,0,2.93,2.93,0,0,1,.51.24,5.44,5.44,0,0,1,1,.75,16.85,16.85,0,0,1,1.85,2.25,23.89,23.89,0,0,0,3.91,4.79c-.25.53-1.69-.9-2.54-1.35-.73-.82-1.24-1.42-.95-1.77-3.19-3.46-.71,1.81-3.88-2.4-1.42-2.18,2.66,1.92.31-1.1l-.72-.29-.36-.15-.18-.07s-.07,0-.1,0a.93.93,0,0,0-.59.45h.08l.15.16,1.12,1.2,2.13,2.18a99.27,99.27,0,0,1,11.51,13.93l3.18,3.86,19.91-.14-12.79-14.89-9.53-11c-3.31-3.59-4.4-5-6.76-5.5.42,1,2.45,3.15,1.41,2.71.76,0,2.18,1.27,3.78,3.24-.24.55-1.7-1.61-1.37-1l.28.4a2.05,2.05,0,0,1-1.32-.84c1.22,2.7,4.81,6.68,6.9,7.57,1.08,2.12-1.66-.68-2.75-1.31,2.48,3.25,4.63,5.92,6.82,8.56l5.83,7a3.55,3.55,0,0,1,1.42.54c.35.25.69.53,1.63,1.15a.83.83,0,0,1-.31.16,5.72,5.72,0,0,1,1.07.5c.45.22.84.34.45-.27a8.5,8.5,0,0,0,.57.89,7.86,7.86,0,0,0-2.27.14,7.34,7.34,0,0,0-1.44.54,12.23,12.23,0,0,1-1.79.65,10.62,10.62,0,0,1-1.27.28l-1.25.19.23-.49c-1.34,0-2.21.06-3,.11l-3.38.25-.67-.11c-1-1.76-.57-1.3.21-.43,2.19-.08,4.3-.11,3.67-.8l-1.23.19a8.52,8.52,0,0,1,2.86-1.61,16.79,16.79,0,0,1-2.53.29h-1l-.83,0a22.25,22.25,0,0,0-3.45-4.15,6.78,6.78,0,0,1,2.19,1.59L392.8,793l.48.42a3.72,3.72,0,0,0-.43-.48l-.86-1c-.58-.67-1-1.24-.85-1.44l-.73.19c-1.75-2,.72-.13.5-1.08C386.85,784.83,388.67,790.42,385,786.54Z"/>
<path class="cls-1" d="M356.85,786.86a10.17,10.17,0,0,0,0,2C356.89,788.21,356.89,787.54,356.85,786.86Z"/>
<path class="cls-1" d="M361.18,793.85a.82.82,0,0,1,.24-.25C361.19,793.66,361.1,793.74,361.18,793.85Z"/>
<path class="cls-1" d="M362.42,792.9c.31.31-.49.31-1,.7C362.23,793.38,364.32,793.38,362.42,792.9Z"/>
<path class="cls-1" d="M379.62,761.84c-.09.42-1,1.84-.58,1.62l1.35-2Z"/>
<path class="cls-1" d="M383.27,758.53l1.71-1.68.28-1.82C383.66,757,384.87,756.54,383.27,758.53Z"/>
<path class="cls-1" d="M387.89,753.66l-.17.56C388,753.77,388,753.65,387.89,753.66Z"/>
<path class="cls-1" d="M387.64,753.34l.07-1.14-1.58,2.72.85-.84c.2.13.75-.4.91-.42l.36-1.21C388.11,752.71,387.84,753.24,387.64,753.34Z"/>
<path class="cls-1" d="M389.29,751.26c-.1,0-.2,0-.29,0S389.15,751.34,389.29,751.26Z"/>
<path class="cls-1" d="M394,747.4c-.58.32-.08-.88-.18-1.2-1.7,1.69-1,2.41-2.57,3.83,1.62-2.84-1,.65-2,1.23.88-.09,2-.74,3.62-2.5l-.16-.46C393.55,747.3,393.32,748,394,747.4Z"/>
<path class="cls-1" d="M401.1,737.07a5,5,0,0,1-.29.85l-.36.94c-.44.06-2.36,2.42-2.77,1.9a13.05,13.05,0,0,0-.91,2,2.7,2.7,0,0,0-1.65,1.83c3.21-3.25,2.47-2.1,5.11-5,0,.16-.28.53-.61.89l1.89-1.78c-.23-.34.2-1.19.32-1.61S401.88,736.5,401.1,737.07Z"/>
<path class="cls-1" d="M403.53,734.84a3.19,3.19,0,0,0-.77,1.55c0,.34.19.48.8.05.89-1.35,1.63-2.53,2.23-3.53C405,733.92,404.09,735.12,403.53,734.84Z"/>
<path class="cls-1" d="M404.69,733.06a.58.58,0,0,0-.47-.57,3.87,3.87,0,0,0-2.21.17c1.21,0,1.25.17,1.26.33S403.28,733.28,404.69,733.06Z"/>
<path class="cls-1" d="M391.49,734.19l1.52-1.51,1.83.2c.27.29.09.41-.29.46a11.66,11.66,0,0,1-1.22,0,3.12,3.12,0,0,0-.52.87l.61-.67a3.34,3.34,0,0,0,1.25-.16,15.38,15.38,0,0,1,1.94-.51,7.48,7.48,0,0,0,1.77-.2c.65-.13,1.32-.29,2-.41a18.59,18.59,0,0,1-2.67.14,13.69,13.69,0,0,1-1.82-.21c-.53-.09-1-.2-1.47-.26a8.86,8.86,0,0,0-1.8-.05A8.6,8.6,0,0,0,391.49,734.19Z"/>
<path class="cls-1" d="M398.89,733.29c.17-.11.31-.22.45-.33l-1.93.26Z"/>
<path class="cls-1" d="M384.73,741.06c-2.3,1.27-2.51,4-4.6,5.87.14-.27-.05-.16.22-.68l-1.4,1.89-.24-.06c.54.26-.82,2.3-1.12,3.39,2-1.47.2-1.4,2.06-2.61-.11.56,0,1.1-.17,1.62a6.82,6.82,0,0,0,.78-2.52c.94-1.25.9-.68,1.15-.63.83-1.57.18-2.13,2-4.07,1.48-1,0,1.3,1.67-1.11-1.64.53,2-2.2,2.24-3.45,1.51-1.58,2.85-2.32,2.82-1.74-.6-.41.13-2.29,1-3.71l-1.86,3.24-1.45.43a20.1,20.1,0,0,1-3.28,4.4Z"/>
<path class="cls-1" d="M379.48,750.48c-.12.23-.22.43-.39.72A1.83,1.83,0,0,0,379.48,750.48Z"/>
<path class="cls-1" d="M378.78,752.29c.33-.36.22-.68-.11-.31l-.17.84Z"/>
<path class="cls-1" d="M363,733c.81.15,1.14.08,1.32-.09s.26-.41.45-.62a4.53,4.53,0,0,0-1.14,0c-.14.05-.13.12-.08.2S363.86,732.89,363,733Z"/>
<path class="cls-1" d="M358,757.85c.38-1.8-.19-3.42-.17-5.19A15.23,15.23,0,0,0,358,757.85Z"/>
<path class="cls-1" d="M360,771.2c-.19-.44-.29-1.05-.36-.09l-1-1.72C358.23,772,359.52,771.29,360,771.2Z"/>
<path class="cls-1" d="M360.11,786.39l-.39-2.46,0,1.27a8.31,8.31,0,0,1-.95-2C359,785,359.36,786.76,360.11,786.39Z"/>
<path class="cls-1" d="M358.55,781c0,.27,0,.58.06.9A.68.68,0,0,0,358.55,781Z"/>
<path class="cls-1" d="M358.63,782.87c0,.13.07.22.11.33-.05-.44-.1-.89-.13-1.31A1.16,1.16,0,0,0,358.63,782.87Z"/>
<path class="cls-1" d="M359.6,788.24l.06,2.12,0,1.07,0,.45v.06l.05-.05,0,0s0-.13,0-.19l.1-.81C359.28,790.52,360.28,788.9,359.6,788.24Z"/>
<path class="cls-1" d="M365.11,790.17l.62-.44c.14-2.72-1.21-6.1-.21-7.73-.39,1.19-.7-2.24-.88,1C365.2,784.29,365.26,788.24,365.11,790.17Z"/>
<path class="cls-1" d="M366,780.16c.18.44.31-.21.48-.57.08-1-.21-2.54-.47-1.92C366.86,778.88,365.52,779.16,366,780.16Z"/>
<path class="cls-1" d="M374.55,770.89c-.72-.86-1.66-1.92-.7-.49,1,1.2,1.45,1.46,1.85,1.59a2.78,2.78,0,0,1,1.49.69,10.27,10.27,0,0,0-2.61-2.91C374,769.44,373.94,769.88,374.55,770.89Z"/>
<path class="cls-1" d="M383.34,789c.25-.54-1-2-1.42-2.18A7.83,7.83,0,0,1,383.34,789Z"/>
<path class="cls-1" d="M399.23,793.64l1.27,0-.56-.21C399.36,793.23,399.67,793.63,399.23,793.64Z"/>
<path class="cls-1" d="M402.67,793.44c.06,0,.09.08.1.11a3.9,3.9,0,0,1-.49-.14,1.79,1.79,0,0,1-.54.35q.6-.1,1.05-.21Z"/>
<path class="cls-1" d="M383,765c.76.06-.9-1.37-1.23-2C381.58,763,382,764.54,383,765Z"/>
<path class="cls-1" d="M1105.14,640.79h13l25.64,31.54V640.79h10.46v62.55h-10.46V686.19l-5.9-6.62-19.3,23.77H1105l26-30.74Z"/>
<path class="cls-1" d="M1156.2,695.33c-.08-.25-.17-.64-.25-.82A1.18,1.18,0,0,0,1156.2,695.33Z"/>
<path class="cls-1" d="M1125.83,696.45l-.19.28.16-.1Z"/>
<path class="cls-1" d="M1125.8,696.63l-.14.65C1126.13,696.52,1126,696.5,1125.8,696.63Z"/>
<path class="cls-1" d="M1154.14,689.37a8.7,8.7,0,0,0-.36-1.73Z"/>
<path class="cls-1" d="M1152.86,695.84a.87.87,0,0,0-.15.42A1.77,1.77,0,0,0,1152.86,695.84Z"/>
<path class="cls-1" d="M1149.65,638.07l.25-.11C1149.77,638,1149.68,638,1149.65,638.07Z"/>
<path class="cls-1" d="M1143.79,638.58c-.65,0-1.21,0-1.75,0l0,.07A7.89,7.89,0,0,0,1143.79,638.58Z"/>
<path class="cls-1" d="M1146.84,639l-1.43,0C1145.93,639,1146.4,639,1146.84,639Z"/>
<path class="cls-1" d="M1145.64,670.22l.31.66A1.68,1.68,0,0,0,1145.64,670.22Z"/>
<path class="cls-1" d="M1150.66,637.69a4,4,0,0,0-.76.27C1150.31,637.87,1151,637.84,1150.66,637.69Z"/>
<path class="cls-1" d="M1156.34,695.47a.62.62,0,0,1-.14-.14C1156.25,695.49,1156.29,695.58,1156.34,695.47Z"/>
<path class="cls-1" d="M1154.2,685.09v.09C1154.21,685.56,1154.22,685.41,1154.2,685.09Z"/>
<path class="cls-1" d="M1103,703.47c.51-.66,1-1.33,1.54-2C1103.07,703.1,1102.76,703.58,1103,703.47Z"/>
<path class="cls-1" d="M1156.33,652.74c-.93.66,0-2.37-.93-2.2.2,1.23.35,2.15-.13,2.72-.51-1,0-2.54-.72-3l.29,1.85c-.38,1.18-1-.45-.93.65,1.06,1.54-.41,5.31-.25,7l-.1-.61-.49,2.63s0,0-.06,0a.72.72,0,0,0,.19.11,11.51,11.51,0,0,0-.77,5.22c.6.84.2,6.94.71,8a8.49,8.49,0,0,1,0-2.85l.72.18c0,2.07-.67.13-.24,2.11,1-.35,0-2.86.11-4.31a7.67,7.67,0,0,1,.52,2.16c0-2.91.38-5.69-.6-7.69.21-.83.62-.44.72.18-.57-2.11.56-1.54,0-3.34.9.62.47,4.35,1,6.15-.72,2.68,0,6.2.09,9.18-.67.13-1.24-2-1.62-.8-.45,2.94.36,3,.74,4.62-.24,2.1-1.12.21-1.15,3.55l-.44-2c-1,1.92.38,1.83.18,3.29.25-.48.49-.48.47-2.15.34-.17.48,1.11.53,1.72l0-.39c.46.7,1,.92.72,3-.55-1.32-.42,1.67-.68,2.2l-.12-.55c.19,1.53.11,3.13.21,4.1l-.13-.08c.22,1.16.92,1.59.76,3.27-.27-.17-1-2.17-.91-.32-.42-.26-.46-2.32-.31-4-.15,1.68-.84,2.53-.88.47-.54.56.23,1.94,0,3,.16-.2.35.15.51.07-.72.06-.06,4,.44,4.09l-.4-2c.58-.15,1,2.37,1.29,1.56-.53.57-.3,2.23-.15,4.07a5.76,5.76,0,0,1-2.84-.17c.28.16.59.31.94.47-.91,0-1.78-.06-2.46,0s-1.43.08-2.13.15l-2.43.27-3,.29c-.14-1.29-.26-2.79-.31-4.44.24,1.86,1,1.8,1,3.74a8.09,8.09,0,0,1,1,.07c-.45,0-.8-.05-1-.07.14-1.6.38-1.78.64-1.86a.86.86,0,0,0,.77-.61,2.67,2.67,0,0,0,0-1.15.76.76,0,0,0-.37-.44c-.32-.13-.72,0-.88-.48l.18,2.22a4.43,4.43,0,0,1-.32-1.18,12.72,12.72,0,0,1-.14-1.37c0-.94,0-2,.07-3.08a31.7,31.7,0,0,0-.07-6.68c.3-.32.17.87.28,1.45.6-1.92-.12-1.86-.35-3,0-.5.06-.84.11-1.28a6.59,6.59,0,0,1-.73-1.32c-.11-.36,0-.53.53-.38-1.32-1.74-.18.47-1.12-.24l-.15-.41-1.07-.59-.53-.29a3.57,3.57,0,0,0-.49-.24c-.46-.74-1.09-1.77-1.73-3a2,2,0,0,1-1,.24c-1.56,2-1.42,2.52-1.25,3s.48.8-.43,2.13c-1.43,1.16-.21-.62-.32-.93l-1.74,2.26c0-1.3,1.77-2.83.93-3.29-.76,2.45-1.82,2.67-3.34,5.55l.19-.11c-.39,1.51-2.81,3.77-3.88,5.29.17-.83,1.43-2.46,2.18-3.61-1.57,1.42-4.65,5.71-5.13,7.64-.85.84-2.74,2.63-1.92,1.06-1.38,1.6-1.43,2.13-1.44,2.6s.15.7-1.56,2.6c-.06-.26-.13-.51-.2-.75l-.17.13c-.61-.1-1.15-.16-1.67-.2s-1,0-1.47,0c-1,0-1.93.14-2.88.24a21.53,21.53,0,0,1-6.36,0c-.47.26-1,.52-1.48.78a12.92,12.92,0,0,0-1.66-.49,9.56,9.56,0,0,1,1.28-1l-.38.63,1.47-.15c-.14-.18-.38-.21-.76-.18.16-.27,0-.39.12-.66a3.42,3.42,0,0,1,1.16-1.4,9.25,9.25,0,0,0-1.49,1,16.75,16.75,0,0,1-1.68,1.18l-1,1.21c3.39-.09,6.42-.06,9.64,0l3.49.11,1.71.05,2.44,0c1.7-2,2.43-2.92,3.47-4.25s1.92-2.55,2.81-3.89c-.27.18-.59.4-.57.14.71-.58,1.59-2,1.75-1.52l-.14.26c1.22-1.78,3.19-2.68,4-3.68.12-1,3-3.3,1.66-3.13l1.34-.74c0-.58-.46-.67,0-1.46,1-1.1,1.29-.9.74.15.83-.91,1.68-1.87,2.54-2.86l.59-.67.51-.61.6.65.88.94c.51.54,1,1.07,1.52,1.61l.7.71.36.34,0,.32v.16a.86.86,0,0,1,0,.23.52.52,0,0,0-.09-.23l-.1-.14a1.44,1.44,0,0,0-.19-.22l-.08,0,0,0a.5.5,0,0,0,0,.21l0,.12a.93.93,0,0,1,0,.21c0,.5.1,1,.14,1.47.07.88,0,1.44-.5.86.43,2.82-.31,7.69.83,7.89a5.6,5.6,0,0,0-.58,2.31c-.08,1.61-.07,3.57,0,5.51l4.42-.14,1.08,0,.65,0,1.26-.06c-.33-.49.47-.55,1.49-.56h2a5.94,5.94,0,0,0,1.61-.16c.66.37-.4.56-1.82.73l-1.07.11a3,3,0,0,0-.39.06l-.29.06c-.36.09-.61.18-.62.31a9.39,9.39,0,0,1,1-.22l.14,0,.22,0,.45,0,.9-.05c1.21-.06,2.48-.06,3.81,0,0-1.46.08-3,.11-4.38,0-.58,0-1.15.06-1.7s0-.82,0-1.2c0-1.53-.21-2.77-.88-3.37.08-.48.15-.49.23-.32a25.2,25.2,0,0,1,.42-2.58c-.34-.46-.49,1.22-.62-.64.08-1.47.61-.63.86-1.24-.44-2.82-.62-7.28-1.39-7.77.21-.83.64-1.71.79-.78-.61-4.48.12-4.3-.27-8.83,0,1.58.82.79.5,3.07,1.09-1.79-.2-6.93.37-10.53l-.69-1.45c-.13-2.2.55-2.33.79-.79.44-3.73,0-5.71,0-8.56.08-.17.22,0,.18.44l0-4.13c-.18-.41-.53-1.89-1-1.59C1156.36,649.64,1156.6,650.5,1156.33,652.74Z"/>
<path class="cls-1" d="M1156,649.13l-.09-.11v.16S1155.93,649.15,1156,649.13Z"/>
<path class="cls-1" d="M1152.91,686.53a3.7,3.7,0,0,0,.29-1A3.19,3.19,0,0,0,1152.91,686.53Z"/>
<path class="cls-1" d="M1143.42,660.71c1.07-.52-.17-2.5.12-4.3.16,1.71.78,1.28,1.09,1.06-1.38-2.12.27-2.59,0-6.5.45-.08.52,1.8,1,2-.34-2.15-.53-5.44-1.29-5.92,0-.64,0-1.24,0-1.81s0-1.07.05-1.57c0-.82.07-1.56.1-2.24a15.88,15.88,0,0,0,1.71,0c-.94.15-.89.32-.76.54a1.36,1.36,0,0,1,.34.77l.11.21-.07-.16c0-.19.22-.39.61-.59a3.86,3.86,0,0,1,.77-.3l1.37-.32c2-.42,3.62-.87,6.23-1.32.18.72.33,1.35.47,2-.84,1-.93,1-1.7.86-.07.47-.11.76-.13,1.06a6.4,6.4,0,0,0,0,.79,1.18,1.18,0,0,0,.27.69c.24.29.51.56.38,2.64l.15-1.93c.26,2,1,2.09,1.61,2.7l-.12-4.89c.58,0,.5,3.08.64,4,.7,1.45.5-2.63,1-2.1a4,4,0,0,1-.35-1.74l0-.3v-.51l0-1c0-.67,0-1.3-.1-1.83l.31-.59c.06-.84.08-1.6.08-2.28-1.58,0-3,.14-4.35.27l-2,.17a8.64,8.64,0,0,1-1.18.08c-.18-.09-.21-.15-.17-.21-.36.18-.73.37-1.16.54a6,6,0,0,1-.71.22l-.4.08a3.6,3.6,0,0,1-.54.07l1.05,0-.49.18-.27.08-.4.09-1.62.32c-1,.21-1.72.41-1.83.63.13.33.25.46.39.39a8.38,8.38,0,0,0,1.09.33l-.8,0-.19,4a5,5,0,0,1-.65-.5,3.75,3.75,0,0,1-.33-.35,3.1,3.1,0,0,1-.33-.59,14.39,14.39,0,0,1-.83-4.92l.41,0c.09-.11.18-.23.28-.34-.36,0-.74-.07-1.13-.09a28.37,28.37,0,0,0,.39,6c.3.91.7,1.38,1,.74,2,2.16.07,7.6.89,11.25-.53.25-.75-1.76-1.12-2.65-.06-1.1-.07-1.88.38-2-.3-4.7-1.69,1-1.5-4.31.27-2.59.85,3.17.93-.66l-.74-1.36-.37-.68-.18-.34-.05-.09,0-.16-.09-.34c0,.38,0,.75,0,1.12s0,.58,0,.86q.06.84.12,1.65c.1,1.07.19,2.08.28,3a111.28,111.28,0,0,1,.44,13,3.55,3.55,0,0,1-.18,1c-.06.15-.11.17-.11.17l0,1-.76-.85-.42-.48-.22-.25-.68-.81-6.5-7.82-13.6-16.4-2.92,0c-4.88.21-6.63.14-8.57,1.61,1,.3,4,.16,3,.67.53-.55,2.38-.84,4.92-.79.26.53-2.33.26-1.67.38l.48,0a2,2,0,0,1-1.49.47,13.38,13.38,0,0,0,2.45.42c.44,0,1,.07,1.37.08h1.07c.24.27.49.53.75.79s.67.65,1,.93a7.89,7.89,0,0,0,1.81,1.25c1,2.15-1.65-.7-2.72-1.36,4.83,6.59,8.38,10.83,13.55,17.27.81-.49,1,.28,2.21.75l.17.77c-.09-.39,1.14.1.27-1.28a9.2,9.2,0,0,0,3.46,3.62,3,3,0,0,0,1.33.49,3.8,3.8,0,0,1,.81.13c0,.22-.09.42-.14.62.46.51.75.81,1,1a1.63,1.63,0,0,0,.66.42l.12.23a.78.78,0,0,1,.36.44,4.6,4.6,0,0,1,.13,1,3.09,3.09,0,0,0-.72-.6c-.18-.06-.3.07,0,1a5.48,5.48,0,0,0,.52.33c0,.71-.12,1.89-1.2,1.08a20.22,20.22,0,0,1,3.35,3.72c0-.9.12-1.77.14-2.93a34.43,34.43,0,0,0-.19-4.27,18.29,18.29,0,0,1,.7,4.36c.18,2,.3,4.27.33,5.18,0-1.07-.06-2.87-.09-4.22s0-2.34.25-2.1c-.22-.48-.45-.93-.68-1.36,0-1.84.12-1.59.34-.92s.51,1.9.73,1.43c0-5.43-.6-5.72-1.19-5.88S1143.62,663.37,1143.42,660.71Z"/>
<path class="cls-1" d="M1154.29,674.38a10.17,10.17,0,0,0,0-2C1154.24,673,1154.25,673.7,1154.29,674.38Z"/>
<path class="cls-1" d="M1153,661.79a1.14,1.14,0,0,1-.25-.24C1152.82,661.77,1152.9,661.86,1153,661.79Z"/>
<path class="cls-1" d="M1152.06,660.54c.31-.31.32.49.7,1C1152.55,660.73,1152.54,658.65,1152.06,660.54Z"/>
<path class="cls-1" d="M1107.74,640.77c-.39-.17-1.59-1.32-1.46-.91l1.71,1.74Z"/>
<path class="cls-1" d="M1110.23,645l1.3,2,1.72.65C1111.63,645.72,1111.85,647,1110.23,645Z"/>
<path class="cls-1" d="M1114.05,650.54l-.52-.28C1113.92,650.58,1114,650.63,1114.05,650.54Z"/>
<path class="cls-1" d="M1114.41,650.37l1.11.3-2.34-2.1.65,1c-.17.16.24.81.22,1l1.11.6A2.86,2.86,0,0,1,1114.41,650.37Z"/>
<path class="cls-1" d="M1116.11,652.41a2.83,2.83,0,0,1,0-.3C1116.06,652.15,1116.06,652.25,1116.11,652.41Z"/>
<path class="cls-1" d="M1118.91,657.85c-.19-.63.88.11,1.21.07-1.3-2-2.15-1.48-3.22-3.3,2.45,2.17-.42-1.15-.79-2.21-.09.87.32,2.07,1.7,4.05l.49-.06C1119.11,657.39,1118.49,657,1118.91,657.85Z"/>
<path class="cls-1" d="M1127.64,667l-1.69-1.09c0-.44-1.88-2.81-1.29-3.1a12,12,0,0,0-1.76-1.3,2.7,2.7,0,0,0-1.46-2c2.53,3.81,1.56,2.85,3.89,6-.16,0-.46-.38-.75-.78l1.36,2.22C1126.69,666.66,1128.83,669.21,1127.64,667Z"/>
<path class="cls-1" d="M1129.65,670.2c-1.34-1.58-2.51-2.08-2.18-1l3.13,3.07C1129.8,671.25,1128.77,670.1,1129.65,670.2Z"/>
<path class="cls-1" d="M1131.34,672.91c-.51.35-1.17.72-1.68,1.11a3,3,0,0,0-1.15,1.63C1129.9,673.85,1130.07,675.12,1131.34,672.91Z"/>
<path class="cls-1" d="M1121,684.15l3-2.83c1.11,0-1.06,1.65-1.58,2.84,2.36-2.52,1.44-1.86,2.73-4.18a18.94,18.94,0,0,0,1.92-3.2C1124.18,681.22,1122.47,680.11,1121,684.15Z"/>
<path class="cls-1" d="M1114.15,690.89c-2.32,1.23-2.59,3.93-4.71,5.78.14-.26,0-.16.24-.68l-1.6,2h-.3c.33.07,0,.74-.3,1.41a5.44,5.44,0,0,0-.67,1.71c1.23-1,1.11-1.11,1.08-1.36s0-.5,1-1.2a3.11,3.11,0,0,0,.17,1.17,10.61,10.61,0,0,0,.47-2.06c1-1.24.91-.67,1.16-.61.86-1.56.22-2.13,2.1-4,1.5-1,0,1.3,1.69-1.07-1.65.5,2-2.16,2.3-3.41,1.55-1.54,2.9-2.26,2.86-1.69-.59-.42.17-2.28,1.09-3.68l-1.92,3.21-1.46.4a20,20,0,0,1-3.36,4.33Z"/>
<path class="cls-1" d="M1109.08,699.77a4.67,4.67,0,0,1-.18.45A.51.51,0,0,0,1109.08,699.77Z"/>
<path class="cls-1" d="M1109.14,700.63c.21-.2-.12-.24-.37,0a.91.91,0,0,0,.36.2A1.48,1.48,0,0,1,1109.14,700.63Z"/>
<path class="cls-1" d="M1107.26,702l-1,.73a.54.54,0,0,0,0,.18l1.36-.39-.78-.06Z"/>
<path class="cls-1" d="M1141.55,683c-.42-.7-.71-.91-1-1s-.44.12-.65.2C1141.4,684.07,1140.31,681.92,1141.55,683Z"/>
<path class="cls-1" d="M1153.11,702.2a3.42,3.42,0,0,0-1.7-.05l-.41.07-.65.07a11.2,11.2,0,0,1-1.3.08,10.07,10.07,0,0,0,1.28.13l.68,0,.52,0A5.58,5.58,0,0,0,1153.11,702.2Z"/>
<path class="cls-1" d="M1151.17,690c.19.45.29,1.06.36.1l1,1.72C1152.91,689.27,1151.62,690,1151.17,690Z"/>
<path class="cls-1" d="M1151,674.85l.39,2.46,0-1.28a8.58,8.58,0,0,1,1,2C1152.18,676.21,1151.78,674.48,1151,674.85Z"/>
<path class="cls-1" d="M1152.59,680.25c0-.27,0-.58-.06-.91A.69.69,0,0,0,1152.59,680.25Z"/>
<path class="cls-1" d="M1152.51,678.37l-.11-.33c0,.44.1.89.13,1.3A1.13,1.13,0,0,0,1152.51,678.37Z"/>
<path class="cls-1" d="M1151.54,673l-.11-4.25-.2,1.62C1151.86,670.72,1150.86,672.34,1151.54,673Z"/>
<path class="cls-1" d="M1152.09,650.7l.62-.44a23.16,23.16,0,0,0-.43-4.27,11.42,11.42,0,0,1-.15-1.94,1.33,1.33,0,0,1,.37-.69c-.19.34-.37.15-.52.16s-.27.12-.36.43c.07,0,.13,0,.19.16s.1.51.14.8c.08.59.14,1.27.17,2A31.66,31.66,0,0,1,1152.09,650.7Z"/>
<path class="cls-1" d="M1153,642.07c.08,0,.13-.06.15-.09s.06,0,.09-.09-.11-.2-.2-.31a2.66,2.66,0,0,0-1,.11c-.27.1-.37.23-.26.36.4-.41.59-.28.65-.11S1152.42,642.32,1153,642.07Z"/>
<path class="cls-1" d="M1145.17,643.39c0-.45-.08-1.2-.24-.57,0,.82.21,1.09.44,1.29a2.7,2.7,0,0,1,.73,1,6.34,6.34,0,0,0,.08-.72v-.34a.33.33,0,0,0,0-.12,1.55,1.55,0,0,0-.26-.39C1145.66,643.3,1145.33,643,1145.17,643.39Z"/>
<path class="cls-1" d="M1140.57,661.58c.54-.27.46-2.15.28-2.59A8.28,8.28,0,0,1,1140.57,661.58Z"/>
<path class="cls-1" d="M1141.82,672.43c-.52-.37-1.1-.81-1.75-1.32l2.77,3.26Z"/>
<path class="cls-1" d="M1139.29,669.1l-2.2-2.65.65,1.13C1138.77,669.11,1138.57,668.23,1139.29,669.1Z"/>
<path class="cls-1" d="M1134,662.73a1,1,0,0,1,.32.58l1.62,1.45Z"/>
<path class="cls-1" d="M1107.42,639c.53-.55-1.62-.2-2.28-.32C1105,638.83,1106.41,639.53,1107.42,639Z"/>
<path class="cls-3" d="M380.18,764.39l26,30.74H392.51l-19.3-23.77-5.9,6.61v17.16H356.85V732.57h10.46v31.55L393,732.57H406Z"/>
<polygon class="cls-1" points="390.74 736.64 390.32 737.42 390.89 737.11 390.74 736.64"/>
<polygon class="cls-1" points="376.97 753.66 375.82 754.3 375.65 755.13 376.97 753.66"/>
<polygon class="cls-1" points="387.05 786.54 386.73 785.94 385.6 785.85 387.05 786.54"/>
<polygon class="cls-1" points="396.58 793.5 398.38 792.98 395.7 793.07 396.58 793.5"/>
<polygon class="cls-1" points="1126.93 678.49 1126.97 677.92 1125.91 679.58 1126.93 678.49"/>
<polygon class="cls-1" points="1120.24 686.59 1119.81 687.36 1120.39 687.06 1120.24 686.59"/>
<polygon class="cls-1" points="1145.01 662 1145.14 661.33 1144.32 660.54 1145.01 662"/>
</svg>