<svg xmlns="http://www.w3.org/2000/svg" viewBox="0 0 1500 1500">
<defs><style>.cls-1{fill:#6b7051;}.cls-2{fill:none;}</style></defs>
<path class="cls-1" d="M666.28,608.65l-1.55-2.24C664.49,606.89,664.8,607.6,666.28,608.65Z"/>
<path class="cls-1" d="M546.49,775.56a4.6,4.6,0,0,0,.38-.52C546.56,775.33,546.48,775.47,546.49,775.56Z"/>
<path class="cls-1" d="M603.05,526.88l.11.06c.24,0,.48.08.7.07Z"/>
<path class="cls-1" d="M710.17,592.38c-27.82-17.69-32.67-26.76-63.34-41.92-13.89-8.52-29.56-16.13-43.67-23.52-8.66-.11-18.13-10.4-27.65-11.8l-1.8-3.8c-3.27-.5-6.82-1.59-8.85-4.26l.52-.51c-4.9-.73-8.85-4.26-11.28-4.62l.51-.51-5-2.53,1.33-.38a67.58,67.58,0,0,1-21-10.77l-.93,2.81c-.74-.66-1.47-1.27-2.18-1.84l-1.06-.82-.52-.38c-.2-.14-.53-.34-.78-.5a36.61,36.61,0,0,0-3.22-1.84c-1.09-.53-2.14-1-3.2-1.44a42.83,42.83,0,0,0-12.29-2.69,83.4,83.4,0,0,0-12,0c-4.21.26-8.73.64-14.21,1.42l.07-.76c-3,2-5.7,3.85-8.21,5.64s-4.83,3.49-7.1,5.14a94.54,94.54,0,0,0-12.47,10.77,40.57,40.57,0,0,0-9.08,14.61,31,31,0,0,0-1.2,4.48,29.76,29.76,0,0,0-.57,4.77,33.24,33.24,0,0,0,.16,5c.11.84.25,1.68.42,2.53.08.42.17.84.26,1.27s.21.59.32.9c-.22-.58-.43-.77-.62-.84s-.38.2-.55.45c-.35.51-.67,1.27-1,1.18.83,8.44,1.27,17.46,7,17.59-.08,6.15-1.79,5-4,5.81,2.5,0,3.54,5.3,3.69,10.1l-1-2.21.85,13.76,4.71-2.7c-1.35,7.3-5.75,1.85-4.61,8.84l3.91-.09c-.77,10.09-6.69,16-9.57,25.78-1.67,40.6,8.29,84.23,1.42,122l-2.94,1.67c-4.29.73,6.34,10.42,2.38,11.86l2,4.39c-.77,1.24-1.59,3.84-2.55,1.65-.17,4.07.53,4.17,1.83,7.09l-2.67,4.36a67.65,67.65,0,0,0-.41,11.66l.12,2,.19,2.18c.19,1.46.41,2.91.7,4.35a51.74,51.74,0,0,0,2.53,8.43,59.38,59.38,0,0,0,8.89,15.24,75.56,75.56,0,0,0,13.05,12.75,39.93,39.93,0,0,0,10.38,7.51,46.58,46.58,0,0,0,14.34,4.55,50.69,50.69,0,0,0,16.64-.31,51.76,51.76,0,0,0,16.16-5.93,64.43,64.43,0,0,0,5.53-3.55l4.55-3.17c3-2.13,5.94-4.27,8.77-6.36,5.65-4.17,10.86-8.17,15.25-11.55,23.55-21,63.2-24.17,86.93-46.33,1.19,0,2.82-2.51,2.56-2.92l25.37-13.95s122.37-68.75,12.26-46.21l.15-1.16c-14.85,6-23.74,10.51-30.85,20-4.37-4.13-11.57,6-15.71,6.23l.07-.58c-6.16,8.67-19.08,6.76-25.17,14.85.09-.57-.53-2,1.28-3.2-5.52,4-12.92,9.78-15,7.13-13.6,8.87-34,18.84-40.29,28.66l.15-1.16c-3.32,6.09-6.37,4.3-11.18,9.2-.53-.2-1.05-.16-1.08-.36-3.8,6.32-16,9.89-19.77,13.82l-1.41-1.76-10.86,6.87,4.4-2c.81,3.07-1.78,3.45-5.32,4.08a27.92,27.92,0,0,0-5.72,1.48,6,6,0,0,0-3.36,2.45,4.38,4.38,0,0,0-1.83.91,14.26,14.26,0,0,0-1.78,1.68,41.82,41.82,0,0,1-4.43,4.37,14.09,14.09,0,0,1-5.91,2.95,6.51,6.51,0,0,1-5.76-1.46c-2.34.5-1.07-.2,0-1.09s1.85-2-1-2.09c1.32-2.86,2.94-.84,2.91-3.64-2.34-.27-3.55-2-4.55-3.73s-1.85-3.43-4.23-4.8l1.89-1.63a5.37,5.37,0,0,1-3.5-3.12,8.78,8.78,0,0,1-.51-4.25c0-.68.19-1.37.22-2a9.71,9.71,0,0,0,.14-1.83,4.2,4.2,0,0,0-.06-.87c0-.14-.06-.28-.1-.42s-.08-.47-.14-.7a8.43,8.43,0,0,0-1.1-2.65c-2-10.51,7.38-7,2.52-18l3.36-4.26c.55-4.68-4.12-3.35-2.49-8.55,2.12.32,1.69-6.56,3.7-3.52,3.31-11.75-4.71-23.86.9-39.34-4.12-3.37-1.67-11.16-4.77-13.67,1.8-.41.29-15.62,4.19-6.87.32.76.26,2.09-.44,2l2.45,1c4.61-8.83-2.55-16-1.83-24.78-.81,2.59-.6,6-2.28,3.73l.33-8.12,2.06,1.69,1.21-12.09-2.55,1.67c1.31-5.92,5.64-8,2-14.68-2-3-3.43,5.61-4.23-.64,1.74-7.91,4.36-19.76,5.12-29.86-2.87.94-2.77-1.77-3.35-4.57l2.49-.32c-3.46-10.72,5.48-3.93,2.72-14.57l1.74.94-5.2-2.81c-4.94-9.6,5.16-5.18-1.58-15.84.43,4.21-5.48,2-4.4-3.21l2.4,1.32c-.51-2.87-1.51-3.83-1-5.74,1.29,1.71,3.49.9,3.08-3.32l3,2.83-4.42-8c1.29-3.08,1.12-7.06,1.06-10.59,0-.44,0-.88,0-1.3v-.63a2.63,2.63,0,0,1,0-.33,4.22,4.22,0,0,1,.22-1.07,1.94,1.94,0,0,1,1.65-1.19l.11-.22c.07-.14.12-.36.24-.6a6.76,6.76,0,0,0,.34-.83c.15-.29.23-.64.36-1a4.92,4.92,0,0,0-.3-4.59c.6,1.15,1.56,1.14,2.53,1.28a3.63,3.63,0,0,1,2.75,1.5,4.23,4.23,0,0,1,.1-4.24,2.36,2.36,0,0,1,3.54-.87l-.13.41a10.49,10.49,0,0,0,3.69-.41c1.05-.32,2.08-.79,3.22-1.09a6.4,6.4,0,0,1,3.58,0c.29.12.59.24.88.38s.55.39.81.6l.92.68c.32.25.65.51,1,.78q1,.8,1.89,1.71c.92-2.81,6.29,2.11,6.62-2,13.9,3.81,18.26,19.22,28.33,11.85,5.8,2.64,5.17,6.08,7.72,8.22l-1.61-.23c10.76,5.13,13.8,6.76,21.31,11.4,4.38,1.24,7.63-3,13.83,2.05-3.27.55-.28,1.83,2.28,3.31-1.8-.66-2.69-.28,0,2.88a5.61,5.61,0,0,1,2.58-.11c-.06.16,0,.35-.17.5,4.64,1.82,4.23.83,2.39-.57.26-.22.3-.67,0-1.53,3.07,4.91,12.45,7,11.17,10.41,13.26,6.69,24.31,8.75,35.69,13.7.27,2.31-3.05,2.3-6.52,1.13l7.92,3.79c-1.4,2.28-5.12-1.18-7.72-2.07,6.85,9,20.76,7,29.36,16.55l3.25-.57.46.67c.53-1,3.66-.94,5.41-.35.33,2.89-2.8,4.6,2.52,7.51,3,4.34,12.33,5.81,18.38,7.86-2.72-2-1.13-2.61.54-2.6,2.66,1.45,3,4.34,5.52,4.64l-1.32,2.87c.45-3.16,8.44,1.18,10.05.62.33,2.89-5.06-.6-6.6.54l16,8.72c6.8,1.18.48-3.17,4.54-4,.66.29,1.32.55,2,.81l.9.33.82.29a13.79,13.79,0,0,1,1.65.65,11,11,0,0,1,1.61.8,9.67,9.67,0,0,1,4.74,5.68c.44-1,.79-2,1.14-3.06a19.9,19.9,0,0,1,4.54,4.78,17,17,0,0,1,2.37,5.1,14.6,14.6,0,0,1-.8,9.81,36.29,36.29,0,0,1,1.56,6.37,37.42,37.42,0,0,1,.38,6.18A42.06,42.06,0,0,1,739,680.9c-1.91,6.52-4.6,11.23-6.24,14.69-.42.86-.78,1.65-1.08,2.39a3.94,3.94,0,0,0-.3,1c-.07.3-.11.59-.15.87a5.6,5.6,0,0,0,.3,2.77c.62,1.49,2,2.3,3.91,2.64a19.75,19.75,0,0,0,4.22-.61,29.84,29.84,0,0,0,4.93-1.84,41.16,41.16,0,0,0,9.84-6.64,48.37,48.37,0,0,0,6.87-7.71c.82-1.08,1.37-2,1.79-2.66l.62-1a54,54,0,0,0,7.86-35.59,55.65,55.65,0,0,0-13.84-30.06,58.91,58.91,0,0,0-12.87-10.74c-1.21-.72-2.41-1.48-3.68-2.11l-1.89-1-.48-.24-.41-.19-.61-.24-5-2C726,599.82,718.56,596.59,710.17,592.38Z"/>
<path class="cls-1" d="M729.92,490.35v-.09c-.09-.14-.14-.31-.23-.43Z"/>
<path class="cls-1" d="M451.15,1046.38c-.12.25-.27.11-.43-.08s-.32-.37-.46-.39a2,2,0,0,0,0,.46,2.43,2.43,0,0,0,0,.49,3.69,3.69,0,0,0,.23.77,2.68,2.68,0,0,1,.19,1.72c-.53-2.53-.4.92-.78,1.75.62-.49,1.05-1.43,1.24-3.32l-.42-.21C450.71,1046.56,451,1047.09,451.15,1046.38Z"/>
<path class="cls-1" d="M444.44,1044.09l1.5-.62a4.53,4.53,0,0,0,1.41.35c.7.12.95.28.87.6.53-.09.75-.37,1.39-.54.14.17.2.32.37.36a.42.42,0,0,0,.24.49c.06-.37.11-.71.15-.88-.77-.16-1.16-.28-1.58-.38a14.78,14.78,0,0,0-2.32-.25c.07-.14.46-.12.84-.09l-2-.35C445.1,1043.56,442.47,1043.61,444.44,1044.09Z"/>
<path class="cls-1" d="M441.46,1043.62c1.63,0,2.52-.63,1.72-1l-3.46.5C440.73,1043.07,442,1043,441.46,1043.62Z"/>
<path class="cls-1" d="M439.07,1043.61c-.65-.33-1.7-1-2.82-.39C438.11,1043.12,437.24,1044.07,439.07,1043.61Z"/>
<path class="cls-1" d="M519.53,1048.75l-1,2.24c-.49.12-2.88,3-3.26,2.5a17.67,17.67,0,0,0-1.23,2.39,4.09,4.09,0,0,0-2,2.3c3.91-4.12,3-2.71,6.19-6.38,0,.17-.36.63-.77,1.09l2.29-2.27C519.29,1049.9,521.86,1046.66,519.53,1048.75Z"/>
<path class="cls-1" d="M522.52,1045.83a6.4,6.4,0,0,0-1.14,2c-.12.47,0,.71.66.23,1.18-1.72,2.19-3.23,3-4.51-.5.62-1,1.32-1.51,1.79S522.74,1046,522.52,1045.83Z"/>
<path class="cls-1" d="M524,1043.61a1.22,1.22,0,0,0-.88-.56,5.38,5.38,0,0,0-2.66.17c1.48,0,1.64.16,1.74.33S522.33,1043.84,524,1043.61Z"/>
<path class="cls-1" d="M507.35,1045.15l1.85-1.91,2.28.19c.34.3.12.41-.36.46l-.41,0h-1.19a4.83,4.83,0,0,0-.67,1l.76-.86a6,6,0,0,0,.92,0c.19,0,.52-.07.74-.13a24.5,24.5,0,0,1,2.41-.5,28.37,28.37,0,0,0,4.57-.61,20.65,20.65,0,0,1-5.45-.08c-.65-.09-1.22-.19-1.81-.26a11.72,11.72,0,0,0-2.17,0,13.3,13.3,0,0,0-.8,1.27A11,11,0,0,0,507.35,1045.15Z"/>
<path class="cls-1" d="M472,1043.54c2,.3,1.79-.28,2.13-.7C471.05,1042.72,474.05,1043.34,472,1043.54Z"/>
<path class="cls-1" d="M561.71,1046.38c-.12.25-.28.11-.44-.08s-.32-.37-.45-.39a2.07,2.07,0,0,0-.05.46,2.38,2.38,0,0,0,.05.49,3.69,3.69,0,0,0,.23.77,2.75,2.75,0,0,1,.18,1.72c-.53-2.53-.39.92-.78,1.75.63-.49,1.06-1.43,1.24-3.32l-.42-.21C561.27,1046.56,561.52,1047.09,561.71,1046.38Z"/>
<path class="cls-1" d="M555,1044.09l1.51-.62a4.53,4.53,0,0,0,1.41.35c.69.12,1,.28.87.6.53-.09.74-.37,1.39-.54.14.17.2.32.37.36a.41.41,0,0,0,.23.49c.06-.37.11-.71.16-.88-.78-.16-1.16-.28-1.59-.38a14.58,14.58,0,0,0-2.31-.25c.06-.14.45-.12.84-.09l-2-.35C555.65,1043.56,553,1043.61,555,1044.09Z"/>
<path class="cls-1" d="M552,1043.62c1.62,0,2.52-.63,1.71-1l-3.45.5C551.29,1043.07,552.53,1043,552,1043.62Z"/>
<path class="cls-1" d="M549.62,1043.61c-.64-.33-1.69-1-2.81-.39C548.66,1043.12,547.79,1044.07,549.62,1043.61Z"/>
<path class="cls-1" d="M537.9,1043l3.2.42c.59.83-1.53.26-2.51.63,2.71.17,1.85-.1,3.9-.61a11.86,11.86,0,0,0,2.9-.61C541.26,1043.51,541.05,1041.49,537.9,1043Z"/>
<path class="cls-1" d="M530.33,1043.44a3.91,3.91,0,0,0-.33,1.78,8.37,8.37,0,0,0,0,1,6.13,6.13,0,0,0,.14.76,7.44,7.44,0,0,1,.27,3c-.06-.23-.14-.07-.25-.53l.1,1.86-.23.08c.15,0,.27.07.38.25a4.68,4.68,0,0,1,.31.84,5.34,5.34,0,0,0,.58,1.54c.32-1.12.13-1.2,0-1.38s-.35-.4,0-1.24a5.19,5.19,0,0,0,.89.88,4.43,4.43,0,0,0-.23-.53c-.08-.17-.16-.34-.24-.48s-.34-.47-.51-.72c-.06-1.24.28-.87.5-1-.35-1.4-1.21-1.35-1-3.54.25-.77.46-.45.57-.37s.13.09,0-1.12c-.58.49-.38-.65-.29-1.81a3.37,3.37,0,0,0,1.83-.16,6.89,6.89,0,0,1,2.25.49c.45.21.64.44.45.61,0-.73,1.47-1.35,2.77-1.55l-2.9.6-.49-.42a2.93,2.93,0,0,0-.56-.43,16.9,16.9,0,0,1-3.91.3c0,.49,0,1-.06,1.54Z"/>
<path class="cls-1" d="M638.41,1041.49c-.24.14-.64.33-.81.45A1.32,1.32,0,0,0,638.41,1041.49Z"/>
<path class="cls-1" d="M633,1045.47a8.37,8.37,0,0,0-1.48,1.1Z"/>
<path class="cls-1" d="M639.73,1044.61a1.16,1.16,0,0,0,.45.05A1.68,1.68,0,0,0,639.73,1044.61Z"/>
<path class="cls-1" d="M638.54,1041.32a.55.55,0,0,1-.13.17C638.57,1041.4,638.66,1041.33,638.54,1041.32Z"/>
<path class="cls-1" d="M629,1047.46l.08,0C629.43,1047.2,629.3,1047.27,629,1047.46Z"/>
<path class="cls-1" d="M630.92,1047.82a3.9,3.9,0,0,0-1,.27A3.11,3.11,0,0,0,630.92,1047.82Z"/>
<path class="cls-1" d="M647.29,1043.27c1.84.27,3.49-.33,5.31-.14A11.05,11.05,0,0,0,647.29,1043.27Z"/>
<path class="cls-1" d="M634.79,1047.93c.32-.34.86-.62-.06-.38.39-.51.81-1,1.24-1.53-1.28.27-1.66.64-1.64,1S634.67,1047.74,634.79,1047.93Z"/>
<path class="cls-1" d="M693.5,1041.74c.78,0,1.56-.06,2.34-.11C694.05,1041.53,693.5,1041.6,693.5,1041.74Z"/>
<path class="cls-1" d="M723.42,1043l5.09.42c.94.83-2.44.26-4,.63,4.32.17,2.94-.1,6.2-.61a29,29,0,0,0,4.62-.61C728.76,1043.51,728.44,1041.49,723.42,1043Z"/>
<path class="cls-1" d="M711.4,1042.1c-3.06-1-5.86.56-9.35.13.37,0,.11-.14.84-.25l-2.95.1-.13-.22c.17.58-2.88.82-4.19,1.27,3,.62,1.53-.73,4.18-.05-.64.26-1.1.67-1.71.88a9.77,9.77,0,0,0,3.06-1c2-.07,1.38.27,1.52.49,2.19-.35,2.22-1.2,5.56-1,2.15.51-1.27.81,2.4.6-1.81-.94,3.7.15,5.12-.45,2.73.19,4.51.76,3.93,1.1-.08-.73,2.33-1.35,4.4-1.55l-4.62.6-1.56-.85a31.76,31.76,0,0,1-6.87.23Z"/>
<path class="cls-1" d="M698.09,1044c-.32.06-.6.11-1,.16A2.58,2.58,0,0,0,698.09,1044Z"/>
<path class="cls-1" d="M695.77,1044.57c.61,0,.83-.26.22-.28l-1,.39Z"/>
<path class="cls-1" d="M693.13,1044a12.38,12.38,0,0,0-1.4-.49,2.52,2.52,0,0,0-.48.39Z"/>
</svg>