<svg xmlns="http://www.w3.org/2000/svg" viewBox="0 0 1500 1500">
<defs><style>.cls-1{fill:#fff;}</style>
<clipPath id="z"><polygon points="0,0 770,0 770,725 965,725 1070,875 1500,1500 0,1500"/></clipPath></defs>
<g clip-path="url(#z)">
<path class="cls-1" d="M794.8,765.36c27.54,18.13,32.25,27.27,62.68,42.91,13.75,8.74,29.3,16.6,43.29,24.21,8.65.25,18,10.68,27.46,12.23l1.74,3.84c3.27.54,6.79,1.69,8.78,4.4l-.52.49c4.88.81,8.77,4.41,11.2,4.8l-.52.5,5,2.61-1.33.36a67.82,67.82,0,0,1,20.84,11.11l1-2.81c.73.68,1.45,1.3,2.15,1.88l1,.84.51.39.77.51c1.08.68,2.12,1.35,3.19,1.89s2.13,1.05,3.18,1.49a42.6,42.6,0,0,0,12.24,2.88,84.5,84.5,0,0,0,12.05.19c4.2-.19,8.74-.5,14.22-1.2l-.08.76c3.05-1.94,5.76-3.75,8.29-5.5s4.89-3.42,7.19-5a95.2,95.2,0,0,0,12.63-10.57,40.51,40.51,0,0,0,9.31-14.46,33.52,33.52,0,0,0,1.92-9.23,34.5,34.5,0,0,0-.08-5c-.1-.84-.23-1.69-.38-2.53l-.24-1.28a6.71,6.71,0,0,0-.31-.9c.22.58.43.77.62.85s.37-.2.55-.45c.36-.5.69-1.26,1-1.16-.69-8.45-1-17.47-6.68-17.7.17-6.14,1.86-5,4.08-5.74-2.51,0-3.46-5.36-3.54-10.16L1059,793l-.63-13.77-4.76,2.63c1.48-7.28,5.78-1.77,4.75-8.77l-3.9,0c.92-10.08,6.94-15.91,10-25.63,2.31-40.57-7-84.34.51-122l3-1.62c4.3-.66-6.18-10.52-2.19-11.89l-1.89-4.43c.79-1.22,1.65-3.81,2.58-1.61.23-4.06-.47-4.17-1.72-7.11l2.73-4.32a67.05,67.05,0,0,0,.6-11.66l-.09-2-.15-2.19c-.17-1.46-.37-2.91-.63-4.35a52.89,52.89,0,0,0-2.4-8.48,59.06,59.06,0,0,0-8.65-15.37,74.9,74.9,0,0,0-12.85-13,39.92,39.92,0,0,0-10.25-7.68,46.85,46.85,0,0,0-14.27-4.77,50.58,50.58,0,0,0-16.65,0,51.78,51.78,0,0,0-16.25,5.67,64,64,0,0,0-5.59,3.47l-4.6,3.1c-3,2.08-6,4.17-8.86,6.21-5.72,4.09-11,8-15.43,11.31-23.88,20.62-63.58,23.18-87.65,45-1.2,0-2.86,2.46-2.6,2.88l-25.59,13.54s-123.45,66.82-13,46l-.18,1.16c15-5.72,23.91-10.13,31.17-19.56,4.31,4.2,11.66-5.8,15.81-6l-.08.58c6.29-8.57,19.18-6.46,25.4-14.46-.1.58.5,2.06-1.33,3.18,5.58-3.93,13.07-9.57,15.14-6.88,13.74-8.65,34.26-18.3,40.74-28l-.17,1.16c3.41-6,6.43-4.2,11.32-9,.53.21,1.05.18,1.07.38,3.9-6.26,16.18-9.64,20-13.51l1.38,1.78,11-6.69-4.43,1.91c-.76-3.08,1.83-3.42,5.38-4a27.63,27.63,0,0,0,5.74-1.39,5.94,5.94,0,0,0,3.4-2.4,4.27,4.27,0,0,0,1.85-.88,14.65,14.65,0,0,0,1.81-1.65,41.63,41.63,0,0,1,4.49-4.3,14,14,0,0,1,6-2.86,6.56,6.56,0,0,1,5.74,1.55c2.34-.46,1.07.22,0,1.09s-1.88,1.94.94,2.11c-1.37,2.84-3,.79-3,3.6,2.34.3,3.53,2.07,4.5,3.8s1.8,3.45,4.15,4.86l-1.92,1.6a5.42,5.42,0,0,1,3.46,3.17,8.92,8.92,0,0,1,.44,4.26c0,.68-.22,1.37-.25,2a9.82,9.82,0,0,0-.17,1.83,3.64,3.64,0,0,0,0,.87,3.15,3.15,0,0,0,.09.42l.12.7a8.45,8.45,0,0,0,1.07,2.67c1.88,10.54-7.5,6.93-2.8,17.95l-3.44,4.2c-.61,4.68,4.07,3.42,2.36,8.59-2.11-.35-1.79,6.53-3.75,3.46-3.5,11.7,4.32,23.94-1.52,39.33,4.07,3.43,1.49,11.18,4.55,13.74-1.8.38-.54,15.61-4.3,6.8-.31-.76-.23-2.09.47-2l-2.43-1.08c-4.75,8.75,2.29,16.08,1.44,24.81.85-2.58.69-6,2.34-3.7l-.46,8.11-2-1.72-1.39,12.07,2.57-1.62c-1.4,5.89-5.77,7.91-2.25,14.64,2,3.05,3.52-5.55,4.22.7-1.86,7.89-4.67,19.7-5.59,29.78,2.89-.9,2.74,1.82,3.28,4.62l-2.5.29c3.29,10.77-5.54,3.84-2.95,14.52l-1.72-1,5.16,2.9c4.78,9.67-5.25,5.09,1.32,15.86-.36-4.22,5.52-1.9,4.35,3.27l-2.38-1.35c.46,2.88,1.45,3.85.92,5.76-1.27-1.73-3.48-1-3.13,3.27l-3-2.88,4.3,8c-1.34,3.06-1.24,7-1.23,10.58v1.3c0,.21,0,.42,0,.63a2.34,2.34,0,0,1,0,.33,4.21,4.21,0,0,1-.23,1.07,1.94,1.94,0,0,1-1.67,1.16l-.11.22c-.08.14-.13.36-.26.59a6.76,6.76,0,0,0-.34.83,8.34,8.34,0,0,0-.38,1,4.91,4.91,0,0,0,.23,4.6c-.59-1.17-1.55-1.17-2.52-1.33a3.59,3.59,0,0,1-2.72-1.54,4.24,4.24,0,0,1-.17,4.24,2.36,2.36,0,0,1-3.55.81l.13-.41a10.38,10.38,0,0,0-3.69.36c-1.06.3-2.09.75-3.24,1a6.29,6.29,0,0,1-3.57,0c-.3-.13-.59-.25-.88-.4s-.54-.39-.81-.61l-.9-.69-1-.79c-.63-.55-1.25-1.12-1.86-1.74-1,2.79-6.26-2.21-6.65,1.86-13.84-4-18-19.5-28.14-12.29-5.76-2.73-5.08-6.16-7.59-8.35l1.61.26c-10.68-5.3-13.69-7-21.14-11.74-4.35-1.31-7.67,2.89-13.78-2.27,3.27-.5.3-1.82-2.23-3.33,1.79.68,2.68.32.08-2.89a5.61,5.61,0,0,1-2.58.07c.06-.16,0-.35.18-.5-4.62-1.89-4.22-.89-2.4.53-.27.22-.31.67,0,1.54-3-5-12.33-7.17-11-10.59-13.15-6.9-24.17-9.13-35.47-14.26-.23-2.31,3.09-2.25,6.53-1L865.57,767c1.44-2.26,5.11,1.26,7.7,2.19-6.72-9.08-20.66-7.33-29.1-17l-3.26.52-.45-.68c-.54,1-3.68.88-5.41.26-.29-2.89,2.86-4.56-2.4-7.54-2.95-4.39-12.24-6-18.26-8.15,2.69,2.07,1.09,2.63-.58,2.58-2.63-1.48-2.93-4.38-5.45-4.72l1.37-2.85c-.5,3.16-8.42-1.31-10-.78-.28-2.89,5.06.69,6.61-.44l-15.84-9c-6.77-1.29-.52,3.16-4.59,3.94-.66-.3-1.32-.58-2-.85l-.89-.34-.83-.3a13.67,13.67,0,0,1-1.63-.68,10.49,10.49,0,0,1-1.6-.82,9.64,9.64,0,0,1-4.64-5.76,29.29,29.29,0,0,0-1.2,3.05,20.32,20.32,0,0,1-4.46-4.86,16.93,16.93,0,0,1-2.29-5.13,14.63,14.63,0,0,1,.95-9.8,37.07,37.07,0,0,1-1.45-6.4,38.25,38.25,0,0,1-.29-6.18,42,42,0,0,1,1.85-10.92c2-6.49,4.78-11.16,6.47-14.59.44-.85.82-1.64,1.12-2.37a4.21,4.21,0,0,0,.32-1c.07-.3.12-.59.16-.86a5.46,5.46,0,0,0-.25-2.78c-.6-1.5-2-2.33-3.87-2.71a20.73,20.73,0,0,0-4.23.55,30.23,30.23,0,0,0-5,1.76,41,41,0,0,0-9.95,6.49,48.89,48.89,0,0,0-7,7.59c-.83,1.07-1.39,2-1.82,2.64l-.64,1a54,54,0,0,0-8.42,35.46,55.68,55.68,0,0,0,13.36,30.27,59.24,59.24,0,0,0,12.7,10.95c1.2.74,2.39,1.52,3.65,2.16l1.88,1,.47.25.41.2.6.25,5,2.11C779.11,757.67,786.49,761,794.8,765.36Z"/>
</g>
</svg>