<svg xmlns="http://www.w3.org/2000/svg" viewBox="0 0 1500 1500">
<defs><style>.cls-1{fill:#6b7051;}.cls-2{fill:none;}</style></defs>
<path class="cls-1" d="M409,1048.75l-1,2.24c-.48.12-2.87,3-3.25,2.5a19.09,19.09,0,0,0-1.24,2.39,4.13,4.13,0,0,0-2,2.3c3.91-4.12,3-2.71,6.2-6.38,0,.17-.37.63-.77,1.09l2.28-2.27C408.74,1049.9,411.3,1046.66,409,1048.75Z"/>
<path class="cls-1" d="M412,1045.83a6.27,6.27,0,0,0-1.15,2c-.12.47,0,.71.67.23,1.18-1.72,2.18-3.23,3-4.51-.5.62-1.05,1.32-1.51,1.79S412.19,1046,412,1045.83Z"/>
<path class="cls-1" d="M413.41,1043.61a1.2,1.2,0,0,0-.87-.56,5.38,5.38,0,0,0-2.66.17c1.47,0,1.63.16,1.74.33S411.78,1043.84,413.41,1043.61Z"/>
<path class="cls-1" d="M396.79,1045.15l1.85-1.91,2.29.19c.33.3.12.41-.36.46l-.41,0H399a4.54,4.54,0,0,0-.68,1l.77-.86a5.84,5.84,0,0,0,.91,0c.19,0,.52-.07.75-.13a24.07,24.07,0,0,1,2.4-.5,28.49,28.49,0,0,0,4.58-.61,20.62,20.62,0,0,1-5.45-.08c-.65-.09-1.23-.19-1.81-.26a11.72,11.72,0,0,0-2.17,0,13.3,13.3,0,0,0-.81,1.27A12.45,12.45,0,0,0,396.79,1045.15Z"/>
<path class="cls-1" d="M361.43,1043.54c2,.3,1.8-.28,2.14-.7C360.49,1042.72,363.49,1043.34,361.43,1043.54Z"/>
<path class="cls-1" d="M427.34,1043l3.2.42c.59.83-1.53.26-2.51.63,2.72.17,1.85-.1,3.91-.61a12.05,12.05,0,0,0,2.9-.61C430.7,1043.51,430.5,1041.49,427.34,1043Z"/>
<path class="cls-1" d="M419.77,1043.44a4,4,0,0,0-.33,1.78,8.39,8.39,0,0,0,.06,1,6.27,6.27,0,0,0,.13.76,7.11,7.11,0,0,1,.27,3c0-.23-.13-.07-.25-.53l.1,1.86-.22.08c.14,0,.27.07.38.25a4.73,4.73,0,0,1,.3.84,5,5,0,0,0,.59,1.54c.31-1.12.13-1.2-.05-1.38s-.34-.4,0-1.24a5.19,5.19,0,0,0,.89.88c-.08-.2-.16-.37-.23-.53s-.17-.34-.25-.48-.33-.47-.5-.72c-.07-1.24.27-.87.49-1-.34-1.4-1.2-1.35-1-3.54.26-.77.46-.45.57-.37s.13.09,0-1.12c-.58.49-.38-.65-.29-1.81a3.39,3.39,0,0,0,1.83-.16,6.82,6.82,0,0,1,2.24.49c.45.21.64.44.46.61-.05-.73,1.46-1.35,2.77-1.55l-2.91.6-.49-.42a2.41,2.41,0,0,0-.56-.43,16.82,16.82,0,0,1-3.9.3c0,.49,0,1-.07,1.54Z"/>
<path class="cls-1" d="M1142.1,1049.07c-.25-.2-.51-.4-.77-.58a6.09,6.09,0,0,0-.85-.42c.28.16.57.3.84.47Z"/>
<path class="cls-1" d="M1138.53,1046.09l.07.06C1139,1046.37,1138.83,1046.27,1138.53,1046.09Z"/>
<path class="cls-1" d="M1104.6,1048.55c1.17,0-1.76,2.2-.91,2.58.74-1.21,1.28-2.19,2.12-2.29a8.44,8.44,0,0,1-1.08,1.64c-.39.51-.72,1-.54,1.45.29-.64.69-1.2,1-1.81,1.12-.76.44,1,1.16.06a5,5,0,0,1,2.59-2.68,16.59,16.59,0,0,1,1.93-1c.59-.3,1.14-.53,1.53-.78l-.53.4a24.33,24.33,0,0,1,2.69-.81s0,0,0,.05a.93.93,0,0,0,0-.23,17.92,17.92,0,0,0,2.33-.21c.9-.19,2-.34,3-.65a8.82,8.82,0,0,1,3.94-.78c.91-.08,1.83,0,2.59,0a6.77,6.77,0,0,0,1.64-.06,9.39,9.39,0,0,1-1.41-.06,9.81,9.81,0,0,1-1.58-.18l.21-.71c1.11,0,1.14.22,1.15.33s0,.13,1.09.06c-.06-.25-.29-.4-.62-.49a4.35,4.35,0,0,0-1.22,0c-.46,0-1,.08-1.44.15a7.17,7.17,0,0,1-1.32.13,6.42,6.42,0,0,1,2.32-.55c-3.14-.16-6.33.09-8.12,1.64-.91.08-.64-.44,0-.75a2.88,2.88,0,0,1-1.86.61,2.24,2.24,0,0,0-1.59.64c.13-.52,1.18-1.2,2.5-1.65l1-.37c.34-.12.69-.2,1-.31.67-.18,1.28-.44,1.77-.61,3.09.18,7-.44,10.43.16,0,.34-.61.52-1,.71s-.73.42-.13.69a8.33,8.33,0,0,0,2.93.65,9.91,9.91,0,0,1,2.12,0c1,.57,1,.85,1.07,1.16s.35.69,1.88,1.55c-.69-.2-1.35-.42-2-.59,1.3,1.77,1.88.52,3,1.56a3.8,3.8,0,0,0-.36-.65,3.56,3.56,0,0,0-1.33-.92c0-.39,1.31.1,1.86.48l-.34-.26a4.88,4.88,0,0,1,1.25.09,3.33,3.33,0,0,1,.81.38,7.38,7.38,0,0,1,1.06,1c-.75-.26-.45.12,0,.63a8.21,8.21,0,0,1,1.25,1.54l-.51-.35a10.81,10.81,0,0,1,.94.84l.79.92c.53.58.89,1.18,1.23,1.6h-.17c.9.92,1.72,1,2.4,2.84-.3-.11-2-1.7-1,0-.25,0-.64-.54-1-1.24-.19-.36-.44-.73-.68-1.12s-.48-.81-.69-1.21c.86,1.61.72,2.66-.46.92-.06.39.25.77.63,1.19a3.91,3.91,0,0,1,.9,1.5c.06-.25.39,0,.5-.16-.16.1-.1.37,0,.74a8,8,0,0,0,.58,1.32c.51.92,1,1.9,1.27,1.87a17.72,17.72,0,0,0-1-1.94c.56-.4,1.64,2.17,1.72,1.23a2.75,2.75,0,0,0,0,1.43c.09.6.28,1.34.46,2.13s.24,1.66.29,2.36c0,.16.08.39-.16.31l-.46,0a2.54,2.54,0,0,1-.79-.19c.39.16.82.31,1.27.46-1.34,0-2.52,0-3.75,0-1.06.06-2.07.17-3.09.29l-3.09.39-.42,0-.56,0-1.16.08-1.21.07-.62,0-.32,0h-.16l-.1,0,0-.42a2.14,2.14,0,0,0,.1.37.51.51,0,0,0,.34,0l.37-.08c.24-.05.46-.11.67-.17l1.2-.36a6.7,6.7,0,0,1,1.3-.24,7.71,7.71,0,0,1,1.63,0c-.54,0-1-.06-1.3-.1a5.37,5.37,0,0,1-.82-.14c-.36-.11-.37-.25-.3-.39s.57-.61.15-.85a4.89,4.89,0,0,0-.68-.07h-.27c-.09,0-.17,0-.17,0-.12-.29-.35-.18-.58,0s-.47.36-.63,0c.08.4.13.8.19,1.18,0,.13.15.08.26.07l.34,0,.66,0a6.5,6.5,0,0,1-.73.18l-.4.07c-.12,0-.31.09-.33,0-.11-.39-.16-.86-.27-1.38l-.15-.81,0-.21a1.88,1.88,0,0,0,0-.22l-.1-.33a8.16,8.16,0,0,0-1.18-2.6,7.19,7.19,0,0,0-2.21-2.11,7.1,7.1,0,0,0-2.88-1c-.24-.39.94.06,1.53.2a2.45,2.45,0,0,0-1.78-.7,11.56,11.56,0,0,1-1.36.24c-2-.42-4.62-.31-3.36-1.18-2.44.09.3.41-.93.78l-.46-.09a10.85,10.85,0,0,0-2.08,1.45,13.5,13.5,0,0,0-2.79,1.07c-.44.22-.84.46-1.22.64a4.38,4.38,0,0,1-1,.46,4.48,4.48,0,0,0-.88,2.26,1.17,1.17,0,0,0,.3.88,1.89,1.89,0,0,1,.47.61,4,4,0,0,1,.11,1.48c-.31.84-.39.78-.52.42s-.11-.94-.24-1.06a12,12,0,0,0-.12,1.47v.73l.06.73a3.68,3.68,0,0,1-.6-2.13c0-.74-.06-1.35-.53-1.34a30.49,30.49,0,0,1,.33,3.27,6.39,6.39,0,0,0,1.22,3.55v-.22c.61.53,1.24,1.5,2.14,2.35a8.29,8.29,0,0,0,2.91,1.92,3.23,3.23,0,0,1-.83-.12,9.83,9.83,0,0,1-1.06-.45,10.13,10.13,0,0,1-2-1.46,7.67,7.67,0,0,0,4.17,2.79,7.52,7.52,0,0,0,4.75,0c1.4.1,4.18.8,2.23.93,2.31.32,2.83.19,3.29,0s.87-.43,2.84.26l-.34.57c2,1,4,1.72,6,2.66a10.87,10.87,0,0,1,5,4.08l.77-.32c.4.91,1.36,2.58,1.28,3l-.7-.84-.76-.78a2.79,2.79,0,0,0,.52,1,3.88,3.88,0,0,0,.65.63,3.41,3.41,0,0,1,1.29,1.94c.22-.12-.22-2,0-2.16a25.86,25.86,0,0,0-10.6-9.1,26.41,26.41,0,0,0-6.71-2,24.23,24.23,0,0,0-3.51-.32c-1.28,0-2.2.08-3.24,0,.29.14.65.28.42.41-.89-.26-2.54-.53-2.16-.86l.29,0a4.76,4.76,0,0,1-2.49-1.44c-.59-.64-1-1.26-1.33-1.65-.46-.06-1-.88-1.33-1.55s-.49-1.24-.81-.69a6.83,6.83,0,0,1,.27-1.36c-.4-.36-.84-.08-1-.92.06-1.48.48-1.46.64-.35a11.4,11.4,0,0,1,.91-3.93,7.84,7.84,0,0,1,2.46-3.08,12.24,12.24,0,0,1,8.1-2c-.51.1-1,.18-1.52.32.67.1,1.87,0,2.75.18s1.37.38.7.71a5,5,0,0,1,1.91.7,7.17,7.17,0,0,1,1.54,1.32c.78,1,1.2,1.92,1.75,1.85a4,4,0,0,0-.09.5c0,.38,0,.75,0,1.18,0,.86,0,1.86.09,3,1,.1,2.19.06,3.41.07l1.71,0,1.14,0,4.59-.24c-.18-.24-.05-.38.27-.46l.28,0,.47,0c.33,0,.71,0,1.11,0,.81,0,1.68,0,2.44,0a4.41,4.41,0,0,0,1-.1,6.75,6.75,0,0,0-.18-.88c.18-.06.35.25.5.82,0,.14.07.3.11.47a1.18,1.18,0,0,1-.37.09c-.29.06-.62.11-1,.16-1.38.21-3.2.31-3.22.57,1-.15,2-.22,3-.32.5,0,1-.08,1.54-.11l.39,0c.1,0,.06-.08.06-.14l0-.22-.06-.84c-.06-1.12-.13-2.26-.19-3.4,0-.55-.16-1.22-.21-1.72s-.08-.76-.16-1.13c-.52-3-1.78-5.47-3.09-5.88-.19-.54-.13-.59,0-.45-.21-.4-.45-.88-.66-1.39a7.2,7.2,0,0,0-.68-1.39c-.61-.22.5,1.41-1-.22-1-1.39,0-1-.32-1.68-.69-.52-1.39-1.2-2.23-1.73l-1.22-.83c-.42-.25-.85-.47-1.25-.68a10.19,10.19,0,0,0-2.16-.91,2,2,0,0,0-1.26-.12c-.77-.56-1.56-1.37-.51-1.08-1.25-.41-2.2-.61-3-.82s-1.37-.37-2-.54a11.86,11.86,0,0,0-2-.44,14.93,14.93,0,0,0-3.06-.16c1.81.05,1-.81,3.6-.15a5.49,5.49,0,0,0-2.17-.72,20.78,20.78,0,0,0-3.19,0c-2.35.12-4.86.74-7,1l-1.42,1.19c-.61.21-1.06.38-1.4.48a1,1,0,0,1-.65,0c-.2-.11.09-.48.89-1a16.78,16.78,0,0,0-5,2.36,32,32,0,0,0-3.69,3.06c-.2.08-.19-.14.26-.51-.61.57-1.2,1.17-1.79,1.77s-1.08,1.29-1.61,1.94c-.18.51-.84,2.22-.26,2.14a3,3,0,0,1,.38-1.4A10.24,10.24,0,0,1,1104.6,1048.55Z"/>
<path class="cls-1" d="M1139.05,1048a3.43,3.43,0,0,0-.69-.83A3.71,3.71,0,0,0,1139.05,1048Z"/>
<path class="cls-1" d="M1127.6,1042.2a8.12,8.12,0,0,0-2.21-.11C1126.13,1042.15,1126.87,1042.12,1127.6,1042.2Z"/>
<path class="cls-1" d="M1114.64,1045.39a1,1,0,0,1-.12.32C1114.7,1045.56,1114.76,1045.45,1114.64,1045.39Z"/>
<path class="cls-1" d="M1113.9,1046.78c-.41-.12.27-.54.62-1.07C1113.82,1046.21,1112,1047.28,1113.9,1046.78Z"/>
<path class="cls-1" d="M1127.7,1045.5l1.21,0,1.21.07-1.21-.3a7.77,7.77,0,0,1,2.16-.49,9,9,0,0,0-2.49,0C1127.93,1044.87,1127.57,1045.11,1127.7,1045.5Z"/>
<path class="cls-1" d="M1133.27,1045.23l-.9-.22A.71.71,0,0,0,1133.27,1045.23Z"/>
<path class="cls-1" d="M1131.42,1044.71l-.35,0a13,13,0,0,1,1.3.27A1.21,1.21,0,0,0,1131.42,1044.71Z"/>
<path class="cls-1" d="M1126,1044.83a23,23,0,0,0-4.16.23,11.86,11.86,0,0,1,1.58.08c.16-.33.65-.26,1.16-.2S1125.61,1045.16,1126,1044.83Z"/>
<path class="cls-1" d="M374.61,674.69l26,30.74H386.94l-19.3-23.77-5.9,6.61v17.16H351.28V642.87h10.46v31.55l25.64-31.55h13.05Z"/>
<path class="cls-1" d="M349.37,676.21c.08.25.17.64.25.82A1.18,1.18,0,0,0,349.37,676.21Z"/>
<path class="cls-1" d="M363,664.29l0,.34.06-.17Z"/>
<path class="cls-1" d="M363.07,664.46l.3.59C363.25,664.16,363.16,664.2,363.07,664.46Z"/>
<path class="cls-1" d="M351.43,682.17a8.7,8.7,0,0,0,.36,1.73Z"/>
<path class="cls-1" d="M352.71,675.7a.87.87,0,0,0,.15-.42A1.62,1.62,0,0,0,352.71,675.7Z"/>
<path class="cls-1" d="M365.33,688.32a2.76,2.76,0,0,0-.08.27A.52.52,0,0,0,365.33,688.32Z"/>
<path class="cls-1" d="M367.13,685.54a.84.84,0,0,0,.22-.24v-.1C367.3,685.13,367.17,685.42,367.13,685.54Z"/>
<path class="cls-1" d="M366.45,685.71l.26-.34A1.54,1.54,0,0,0,366.45,685.71Z"/>
<path class="cls-1" d="M385.57,700.87l.33-.09C385.71,700.76,385.61,700.8,385.57,700.87Z"/>
<path class="cls-1" d="M365,689.33a5.21,5.21,0,0,0,.3-.74C365,689,364.62,689.46,365,689.33Z"/>
<path class="cls-1" d="M349.23,676.06a.66.66,0,0,1,.14.15C349.32,676.05,349.28,676,349.23,676.06Z"/>
<path class="cls-1" d="M351.37,686.45v-.09C351.36,686,351.35,686.13,351.37,686.45Z"/>
<path class="cls-1" d="M369.87,662.21c.37-.5.74-1,1.09-1.52C370,661.74,369.76,662.12,369.87,662.21Z"/>
<path class="cls-1" d="M363.78,702.72c-.47.51-.47-.61-.48-1.13s0-1.37-.45-1.28a10.68,10.68,0,0,1,.19,1.61,4.38,4.38,0,0,1-.07.76,1.43,1.43,0,0,1-.26.61,5.18,5.18,0,0,1-.22-1.08c0-.31,0-.6,0-.89,0-.57-.07-1.08-.46-1.32l.3,1.84c-.19.6-.44.5-.63.36s-.33-.22-.3.26a4.46,4.46,0,0,1,.29,2.88c-.84-.1-1.66-.26-2.31-.38-.32-.06-.61-.11-.86-.14a4.86,4.86,0,0,0-.84,0l.62-.1-2.64-.5s0,0,0-.05a.76.76,0,0,0-.12.19,8.36,8.36,0,0,0-2.33-.79,2.88,2.88,0,0,0,0-.42c-.15,0-.24-.2-.29-.55a4.59,4.59,0,0,1-.06-.78c0-.42,0-.86,0-1.29a16.49,16.49,0,0,0-.32-4,8.82,8.82,0,0,1,0,2.86l-.72-.18c0-2.07.67-.13.24-2.11-1,.35,0,2.86-.11,4.31a7.67,7.67,0,0,1-.52-2.16c0,1.13-.06,2.25-.09,3.3a11.15,11.15,0,0,0,.22,2.78,7.59,7.59,0,0,0,1.63-.47c.57.21.14.61-.58.71,1.21-.28,1.46-.14,1.82,0a1.94,1.94,0,0,0,1.56,0,1.14,1.14,0,0,1-.66.39,5.57,5.57,0,0,1-1.21.19c-1.07.08-2.36.1-3.6.17a10.06,10.06,0,0,0-.24-1.83c.09-.5.16-1,.21-1.44s.08-.95.1-1.29a20.24,20.24,0,0,0,0-2.33c-.1-1.59-.3-3.21-.37-4.71.67-.12,1.24,2,1.62.81.45-2.94-.36-3-.74-4.62.24-2.1,1.12-.22,1.15-3.55l.44,2c.95-1.92-.38-1.83-.18-3.29-.25.48-.49.48-.47,2.14-.34.17-.48-1.1-.53-1.71l0,.39c-.46-.7-1-.92-.72-3,.55,1.32.42-1.66.68-2.19l.12.55c-.19-1.53-.11-3.13-.21-4.1l.13.08c-.22-1.16-.92-1.59-.76-3.27.27.17,1,2.17.91.31.42.27.46,2.32.31,4,.15-1.69.84-2.53.88-.47.54-.56-.23-1.94,0-3-.16.2-.35-.15-.51-.07.72-.06.06-4-.44-4.09l.4,2c-.58.15-1-2.37-1.29-1.56.91-1-.45-5.37.32-6.41l-.47.72c.28-4.15-.77-7.59-1-11.8.29,1.44,1.29,1.56.94,4.15.2-3.95,1-1.16,1.49-2.38.37-3.08-.93-1.6-1.24-2.55l.18,2.14c-.58-1.38-.51-3.37-.4-5.55a36.19,36.19,0,0,0-.07-7.18c.31-.13.18,1.14.29,1.83a3.36,3.36,0,0,0,.22-1.42,6.68,6.68,0,0,0-.28-1.11,1.27,1.27,0,0,1,.67-.29,21.42,21.42,0,0,1,3.31.31c.68.17,1,.41.36.78,2.18.18-.23-.44.93-.67l.41.16,1.14-.41c.41-.14.71-.27,1.26-.41a22.89,22.89,0,0,1,3.25.5,7.4,7.4,0,0,1-.83,2.7,6,6,0,0,0,.32,2,1.2,1.2,0,0,0,.59.68c.43.23.87.32,1,1.92-.38,1.8-.56-.34-.84-.51l.07,2.84c-.81-1-.41-3.31-1.35-3.13,1,2.37.27,3.21.9,6.4l.09-.2c.64,1.42.19,4.7.32,6.56-.4-.76-.44-2.82-.59-4.18a23.25,23.25,0,0,0,0,4.69c.07.9.18,1.8.32,2.58a3,3,0,0,0,.53,1.46c-.07.44-.18,1.21-.33,1.83s-.32,1.09-.49.46c-.07,2.14.23,2.05.52,1.76s.56-.7.43.8l-.64,1.62-.09.62a5.87,5.87,0,0,0,1.52-1.6c.58-.77,1.15-1.64,1.64-2.41s.92-1.46,1.37-2c.11-.15.22-.29.34-.43s.3-.35.46-.51a9.24,9.24,0,0,1,1-1l-.46-.67c.77-.42,1.95-1.63,2.39-1.69l-1,1.68c1.53-.85.72-1.88,2.34-3.14-.19-.14-1.65.81-1.85.64-.72,1-1.46,2-2.22,2.9l-1.14,1.4-.71.83c-.95,1.08-1.78,1.95-2.54,2.79,0-1,.05-1.81,0-2.62,0-.41,0-.82-.09-1.25l-.08-.66-.05-.36-.05-.61c-.1.31-.21.68-.36.47.19-.89,0-2.55.41-2.29l.05.29c-.18-2.14.78-4.08.77-5.36-.53-.84.22-4.44-.69-3.48l.58-1.41c-.34-.47-.78-.24-.95-1.11.07-1.48.43-1.51.66-.35.08-1.34.14-2.73.18-4.16,0-.36,0-.71,0-1.08,0-.57,0-1.15,0-1.72,0-1.17,0-2.35,0-3.53-2.5,0-5.66,0-6.83.08l-5.93.18,2.24-.43a31.92,31.92,0,0,0-3.93.12,17.47,17.47,0,0,1,.05,2.3c-.05.43-.19.5-.5-.27.05.65.09,1.33.11,2s0,1.16,0,1.76v2.54c0,1.59.11,2.86.67,3-1.09,1.86-.48,6.82-.31,10.73,1-.66.27,3.22.72,4.27-.75.54-.77-3.28-1.27-3.34,1.16,4-.85,11.16,1.08,12.88-.08.48-.15.49-.23.32a24.57,24.57,0,0,1-.42,2.57c.34.47.49-1.21.62.64-.08,1.48-.61.64-.86,1.25.44,2.81.62,7.28,1.39,7.76-.21.84-.64,1.72-.79.79.61,4.48-.12,4.3.27,8.83,0-1.58-.82-.79-.5-3.07-.5.82-.5,2.35-.41,4.11,0,.44.06.9.08,1.36l0,.7,0,1c0,1.57.05,3.09,0,4.63.5,0,1,.05,1.44.1,1-.23,1.9-.46,2.69-.69a9,9,0,0,1,1.71,0,.82.82,0,0,1,.53.22c.06.1,0,.2-.17.29a1.59,1.59,0,0,1-.34.14l-.23.06a1.46,1.46,0,0,1-.35.05l1.21.11,1,.06c.66,0,1.27,0,1.84,0l5.77-.16c0-.71,0-1.44,0-2.21.09-.24.23.07.19.91l0-6.09c-.17-.41-.52-1.9-1-1.59a2.3,2.3,0,0,1,.44,1.15,6.19,6.19,0,0,1,.05,1c0,.2,0,.42,0,.66Z"/>
<path class="cls-1" d="M363.4,698.9l-.08-.11V699S363.38,698.92,363.4,698.9Z"/>
<path class="cls-1" d="M352.66,685a3.7,3.7,0,0,0-.29,1A3.19,3.19,0,0,0,352.66,685Z"/>
<path class="cls-1" d="M379.44,696.84c.5-1.07-1.71-1.83-2.62-3.41,1.2,1.23,1.41.5,1.51.14-2.4-.78-1.42-2.19-4.1-5,.29-.35,1.54,1.07,2.06.93-1.62-1.45-3.84-3.89-4.74-3.78l-1-1.24-1-1.32-1.87-2.46c-.84.9-1.61,1.74-2.27,2.55,1-1.32,1.06-1.71,1-2s-.19-.55.82-2.19l-1.6,2.51-.83,1.31-.41.64-.19.32-.14.24-2.36,4.25q.51,2.28,1,4.14c-.84.48-.93.66-1.7.17-.56,4.39.78,1.28.53,5.45l.15-1.93c.25,2,1.05,2.09,1.61,2.7l-.12-4.89c.58.05.5,3.08.64,4,.7,1.46.5-2.62,1.05-2.09-.46-.71-.31-2.64-.51-3.87l.31-.22a7.76,7.76,0,0,0,0-1.85,1.78,1.78,0,0,0-.05-.35l-.06,0-.14-.14a.44.44,0,0,1,0-.23s.1-.18.22-.33.24-.29.38-.44.25-.06.27,0a7.28,7.28,0,0,1,1.12-2.61l-.59.72a6.78,6.78,0,0,1,.3-.74,1.7,1.7,0,0,0,.12-.32l.09-.29c.14-.4.36-.87.55-1.33.37-.87.75-1.78-.32-1.18l1-1.06,2.14,2.89a9.58,9.58,0,0,0-1.28.32,2.67,2.67,0,0,1-.94.23,1.9,1.9,0,0,1-.21.35c0,.18,0,.35,0,.51s.12,0,.18,0c.11.12.3,0,.64,0s.76-.07.74-.55a1,1,0,0,1,.42,0,2.93,2.93,0,0,1,.51.24,5.44,5.44,0,0,1,1,.75,16.85,16.85,0,0,1,1.85,2.25,23.89,23.89,0,0,0,3.91,4.79c-.25.53-1.69-.9-2.54-1.35-.73-.82-1.24-1.42-.95-1.77-3.19-3.46-.71,1.81-3.88-2.4-1.42-2.18,2.66,1.92.31-1.1l-.72-.29-.36-.15-.17-.08a.17.17,0,0,0-.11,0,.93.93,0,0,0-.59.45h.08l.15.15,1.12,1.21,2.13,2.18a99.27,99.27,0,0,1,11.51,13.93l3.18,3.86,19.91-.14-12.79-14.89-9.53-11c-3.31-3.59-4.4-5-6.76-5.5.42,1,2.45,3.15,1.41,2.71.76.05,2.18,1.27,3.78,3.24-.24.55-1.7-1.61-1.37-1l.28.4a2.05,2.05,0,0,1-1.32-.84c1.22,2.7,4.81,6.68,6.9,7.57,1.08,2.12-1.66-.68-2.75-1.31,2.48,3.25,4.63,5.92,6.82,8.56l5.83,7a3.55,3.55,0,0,1,1.42.54c.35.25.69.53,1.63,1.15a.83.83,0,0,1-.31.16,5.72,5.72,0,0,1,1.07.5c.45.22.84.34.45-.27a8.5,8.5,0,0,0,.57.89,7.86,7.86,0,0,0-2.27.14,7.34,7.34,0,0,0-1.44.54,12.23,12.23,0,0,1-1.79.65,10.62,10.62,0,0,1-1.27.28l-1.25.19.23-.49c-1.34,0-2.21.06-3,.11l-3.38.25-.67-.11c-1-1.76-.57-1.3.21-.43,2.19-.08,4.3-.11,3.67-.8l-1.23.19a8.45,8.45,0,0,1,2.86-1.61,16.79,16.79,0,0,1-2.53.29h-1l-.83,0a22.25,22.25,0,0,0-3.45-4.15,6.78,6.78,0,0,1,2.19,1.59l1.23,1.15.48.42a4.57,4.57,0,0,0-.43-.49l-.86-1c-.58-.67-1-1.24-.85-1.44l-.73.19c-1.75-2,.72-.13.5-1.08C381.28,695.13,383.1,700.72,379.44,696.84Z"/>
<path class="cls-1" d="M351.28,697.16a10.17,10.17,0,0,0,0,2C351.33,698.51,351.32,697.84,351.28,697.16Z"/>
<path class="cls-1" d="M355.61,704.15a.82.82,0,0,1,.24-.25C355.62,704,355.53,704,355.61,704.15Z"/>
<path class="cls-1" d="M356.86,703.2c.3.31-.5.31-1,.7C356.66,703.68,358.75,703.68,356.86,703.2Z"/>
<path class="cls-1" d="M374.05,672.14c-.09.42-1,1.84-.58,1.62l1.35-2Z"/>
<path class="cls-1" d="M377.7,668.83l1.71-1.68.28-1.82C378.09,667.32,379.3,666.84,377.7,668.83Z"/>
<path class="cls-1" d="M382.32,664l-.17.56C382.39,664.07,382.4,664,382.32,664Z"/>
<path class="cls-1" d="M382.07,663.64l.07-1.14-1.58,2.72.85-.84c.2.13.75-.4.91-.42l.36-1.21C382.54,663,382.27,663.54,382.07,663.64Z"/>
<path class="cls-1" d="M383.72,661.56c-.1,0-.2,0-.29,0S383.58,661.64,383.72,661.56Z"/>
<path class="cls-1" d="M388.47,657.7c-.58.32-.08-.88-.18-1.2-1.7,1.69-1,2.41-2.57,3.83,1.62-2.84-1,.65-2,1.23.88-.09,2-.74,3.62-2.5l-.16-.46C388,657.6,387.75,658.28,388.47,657.7Z"/>
<path class="cls-1" d="M395.53,647.37a5,5,0,0,1-.29.85l-.36.94c-.44.06-2.36,2.42-2.77,1.9a13.05,13.05,0,0,0-.91,2,2.7,2.7,0,0,0-1.65,1.83c3.21-3.25,2.47-2.1,5.11-5,0,.16-.28.53-.61.89l1.89-1.78c-.23-.34.2-1.19.32-1.61S396.31,646.8,395.53,647.37Z"/>
<path class="cls-1" d="M398,645.14a3.19,3.19,0,0,0-.77,1.55c0,.34.19.48.8,0,.89-1.35,1.63-2.53,2.23-3.53C399.41,644.22,398.52,645.42,398,645.14Z"/>
<path class="cls-1" d="M399.12,643.36a.58.58,0,0,0-.47-.57,3.87,3.87,0,0,0-2.21.17c1.21-.05,1.25.17,1.26.33S397.71,643.58,399.12,643.36Z"/>
<path class="cls-1" d="M385.92,644.49l1.52-1.51,1.83.2c.27.29.09.41-.29.45a9.23,9.23,0,0,1-1.22,0,3.39,3.39,0,0,0-.52.87l.61-.68a3.18,3.18,0,0,0,1.25-.15,15.38,15.38,0,0,1,1.94-.51,7.48,7.48,0,0,0,1.77-.2c.65-.13,1.32-.29,2-.41a18.59,18.59,0,0,1-2.67.14,13.89,13.89,0,0,1-1.82-.21c-.53-.09-1-.2-1.47-.26a8.86,8.86,0,0,0-1.8,0A8.6,8.6,0,0,0,385.92,644.49Z"/>
<path class="cls-1" d="M393.32,643.59c.17-.11.31-.22.45-.33l-1.93.26Z"/>
<path class="cls-1" d="M379.16,651.36c-2.3,1.27-2.51,4-4.6,5.87.14-.27-.05-.16.23-.68l-1.41,1.89-.24-.06c.54.26-.81,2.3-1.12,3.39,2-1.47.2-1.4,2.06-2.61-.11.56,0,1.1-.17,1.62a6.82,6.82,0,0,0,.78-2.52c.94-1.25.9-.68,1.15-.63.83-1.57.18-2.13,2-4.07,1.48-1,0,1.3,1.67-1.11-1.63.53,2-2.2,2.24-3.45,1.51-1.58,2.85-2.32,2.82-1.74-.6-.41.13-2.29,1-3.71l-1.86,3.24-1.45.43a20.1,20.1,0,0,1-3.28,4.4Z"/>
<path class="cls-1" d="M373.91,660.78c-.12.23-.22.43-.39.72A1.83,1.83,0,0,0,373.91,660.78Z"/>
<path class="cls-1" d="M373.21,662.59c.33-.36.22-.68-.11-.31l-.17.84Z"/>
<path class="cls-1" d="M357.47,643.29c.81.15,1.14.08,1.32-.09s.26-.41.45-.62a4.53,4.53,0,0,0-1.14,0c-.14,0-.13.12-.08.2S358.29,643.19,357.47,643.29Z"/>
<path class="cls-1" d="M352.43,668.15c.38-1.8-.19-3.42-.17-5.19A15.23,15.23,0,0,0,352.43,668.15Z"/>
<path class="cls-1" d="M354.4,681.5c-.19-.44-.29-1-.36-.09l-1-1.72C352.66,682.27,354,681.59,354.4,681.5Z"/>
<path class="cls-1" d="M354.54,696.69l-.39-2.46,0,1.27a8.31,8.31,0,0,1-.95-2C353.39,695.33,353.79,697.06,354.54,696.69Z"/>
<path class="cls-1" d="M353,691.29c0,.27,0,.58.06.9A.68.68,0,0,0,353,691.29Z"/>
<path class="cls-1" d="M353.06,693.17l.11.33c-.05-.44-.1-.89-.13-1.31A1.16,1.16,0,0,0,353.06,693.17Z"/>
<path class="cls-1" d="M354,698.54l.06,2.12,0,1.07v.51l.05,0,0,0s0-.13,0-.19l.1-.81C353.71,700.82,354.71,699.2,354,698.54Z"/>
<path class="cls-1" d="M359.54,700.47l.62-.44c.14-2.72-1.21-6.1-.21-7.73-.38,1.19-.7-2.24-.88,1C359.63,694.59,359.69,698.54,359.54,700.47Z"/>
<path class="cls-1" d="M360.46,690.46c.19.44.31-.21.49-.57.07-1-.22-2.54-.48-1.92C361.29,689.18,360,689.46,360.46,690.46Z"/>
<path class="cls-1" d="M369,681.19c-.72-.86-1.66-1.92-.7-.49,1,1.2,1.45,1.46,1.85,1.59a2.78,2.78,0,0,1,1.49.69,10.27,10.27,0,0,0-2.61-2.91C368.43,679.74,368.37,680.18,369,681.19Z"/>
<path class="cls-1" d="M377.77,699.31c.25-.54-1-2-1.42-2.18A7.83,7.83,0,0,1,377.77,699.31Z"/>
<path class="cls-1" d="M393.66,703.94l1.27,0-.56-.21C393.79,703.53,394.1,703.93,393.66,703.94Z"/>
<path class="cls-1" d="M397.1,703.74c.06,0,.09.08.1.11a3.9,3.9,0,0,1-.49-.14,1.86,1.86,0,0,1-.54.35l1.05-.21Z"/>
<path class="cls-1" d="M377.43,675.28c.76.06-.9-1.37-1.23-1.95C376,673.32,376.39,674.84,377.43,675.28Z"/>
<path class="cls-1" d="M1099.57,551.09h13l25.64,31.54V551.09h10.46v62.55h-10.46V596.48l-5.9-6.61-19.3,23.77h-13.67l26-30.74Z"/>
<path class="cls-1" d="M1150.63,605.63c-.08-.25-.17-.64-.25-.82A1.18,1.18,0,0,0,1150.63,605.63Z"/>
<path class="cls-1" d="M1120.26,606.75l-.19.28.16-.1Z"/>
<path class="cls-1" d="M1120.23,606.93l-.14.65C1120.56,606.82,1120.46,606.8,1120.23,606.93Z"/>
<path class="cls-1" d="M1148.57,599.67a8.7,8.7,0,0,0-.36-1.73Z"/>
<path class="cls-1" d="M1147.29,606.14a.83.83,0,0,0-.15.42A1.77,1.77,0,0,0,1147.29,606.14Z"/>
<path class="cls-1" d="M1144.08,548.37l.25-.11C1144.2,548.29,1144.11,548.32,1144.08,548.37Z"/>
<path class="cls-1" d="M1138.22,548.88c-.65,0-1.21,0-1.75,0l0,.07A8.51,8.51,0,0,0,1138.22,548.88Z"/>
<path class="cls-1" d="M1141.27,549.27l-1.43,0C1140.36,549.32,1140.83,549.3,1141.27,549.27Z"/>
<path class="cls-1" d="M1140.07,580.52l.31.66A1.68,1.68,0,0,0,1140.07,580.52Z"/>
<path class="cls-1" d="M1145.09,548a4,4,0,0,0-.76.27C1144.74,548.17,1145.4,548.14,1145.09,548Z"/>
<path class="cls-1" d="M1150.77,605.77a.62.62,0,0,1-.14-.14C1150.68,605.79,1150.72,605.88,1150.77,605.77Z"/>
<path class="cls-1" d="M1148.63,595.39v.08C1148.64,595.86,1148.65,595.71,1148.63,595.39Z"/>
<path class="cls-1" d="M1097.47,613.77c.51-.66,1-1.33,1.54-2C1097.5,613.4,1097.19,613.88,1097.47,613.77Z"/>
<path class="cls-1" d="M1150.76,563c-.93.66,0-2.37-.93-2.2.2,1.23.35,2.15-.13,2.72-.51-1,0-2.54-.72-3l.29,1.85c-.38,1.18-1-.45-.93.65,1.06,1.54-.41,5.31-.25,7l-.1-.61-.49,2.63s0,0-.06,0a.55.55,0,0,0,.19.12,11.51,11.51,0,0,0-.77,5.22c.6.84.2,6.94.71,8a8.76,8.76,0,0,1,0-2.85l.72.18c0,2.07-.67.13-.24,2.11,1-.35,0-2.86.11-4.31a7.67,7.67,0,0,1,.52,2.16c0-2.91.38-5.69-.6-7.69.21-.83.62-.44.72.18-.57-2.11.56-1.54,0-3.34.9.62.47,4.35,1,6.15-.72,2.68,0,6.2.09,9.18-.67.13-1.24-2-1.62-.8-.45,2.94.36,2.95.74,4.62-.24,2.1-1.12.21-1.15,3.55l-.44-2c-1,1.91.38,1.83.18,3.29.25-.48.49-.48.47-2.15.34-.17.48,1.11.53,1.72l0-.39c.46.7,1,.92.72,3-.55-1.32-.42,1.67-.68,2.2l-.12-.55c.19,1.53.11,3.13.21,4.1l-.13-.08c.22,1.16.92,1.59.76,3.27-.27-.17-1-2.17-.91-.32-.42-.26-.46-2.32-.31-4-.15,1.68-.84,2.53-.88.47-.54.56.23,1.94,0,3,.16-.2.35.15.51.07-.72.06-.06,4,.44,4.09l-.4-2c.58-.15,1,2.37,1.29,1.56-.53.57-.3,2.23-.15,4.07a5.88,5.88,0,0,1-2.84-.17c.28.16.59.31.94.47-.91-.05-1.78-.06-2.46,0s-1.43.08-2.13.15l-2.43.27-3,.29c-.14-1.29-.26-2.79-.31-4.44.24,1.86,1,1.8,1,3.74a8.09,8.09,0,0,1,1,.07c-.45,0-.8,0-1-.08.14-1.59.38-1.77.64-1.85a.86.86,0,0,0,.77-.61,2.67,2.67,0,0,0,0-1.15.72.72,0,0,0-.37-.44c-.32-.13-.72,0-.88-.48l.18,2.22a4.43,4.43,0,0,1-.32-1.18c-.07-.49-.11-.88-.14-1.37,0-.95,0-2,.07-3.08a31.7,31.7,0,0,0-.07-6.68c.3-.32.17.87.28,1.45.6-1.92-.12-1.86-.35-3,0-.5.06-.84.11-1.28a6.59,6.59,0,0,1-.73-1.32c-.11-.36,0-.53.53-.38-1.32-1.74-.18.47-1.12-.24l-.15-.41-1.07-.59-.53-.29a3.57,3.57,0,0,0-.49-.24c-.46-.74-1.09-1.77-1.73-3a2,2,0,0,1-1,.24c-1.56,2-1.42,2.52-1.25,3s.48.8-.43,2.13c-1.43,1.16-.21-.62-.32-.93l-1.74,2.26c0-1.3,1.77-2.83.93-3.29-.76,2.45-1.82,2.67-3.34,5.55l.19-.11c-.39,1.51-2.81,3.77-3.88,5.29.17-.83,1.43-2.46,2.18-3.61-1.57,1.42-4.65,5.71-5.13,7.64-.85.84-2.74,2.63-1.91,1.06-1.39,1.6-1.44,2.13-1.45,2.6s.15.7-1.56,2.6c-.06-.26-.13-.51-.2-.75l-.17.13c-.61-.1-1.15-.16-1.67-.2s-1,0-1.47,0c-1,0-1.93.14-2.88.24a21.53,21.53,0,0,1-6.36,0c-.47.26-1,.52-1.48.78a12.92,12.92,0,0,0-1.66-.49,9.56,9.56,0,0,1,1.28-1l-.38.63,1.47-.15c-.14-.18-.38-.21-.76-.18.16-.27,0-.39.12-.66a3.51,3.51,0,0,1,1.16-1.4,9.25,9.25,0,0,0-1.49,1,16.75,16.75,0,0,1-1.68,1.18l-1,1.21c3.39-.09,6.42-.06,9.64,0l3.49.11,1.71,0,2.44,0c1.7-2,2.43-2.92,3.47-4.25s1.92-2.55,2.81-3.89c-.27.18-.59.4-.57.14.71-.58,1.59-2,1.75-1.52l-.14.26c1.22-1.78,3.19-2.68,4-3.68.12-1,3-3.3,1.66-3.13l1.34-.74c0-.58-.46-.67,0-1.46,1-1.1,1.29-.9.74.15.83-.91,1.68-1.87,2.54-2.86.19-.22.39-.45.6-.67l.5-.61.6.65.88.94c.52.54,1,1.07,1.52,1.61l.7.71.36.34,0,.32,0,.16s0,.09,0,.23a.52.52,0,0,0-.09-.23l-.1-.14a1.44,1.44,0,0,0-.19-.22l-.08,0,0,0a.5.5,0,0,0,0,.21l0,.12a.73.73,0,0,1,0,.21c0,.5.1,1,.14,1.47.07.88,0,1.44-.5.86.43,2.82-.31,7.69.83,7.89a5.6,5.6,0,0,0-.58,2.31c-.08,1.61-.07,3.57,0,5.51l4.43-.14,1.07,0,.65,0,1.26-.06c-.33-.49.47-.55,1.49-.56h2a5.94,5.94,0,0,0,1.61-.16c.66.37-.4.56-1.82.72l-1.07.12a3,3,0,0,0-.39.06l-.29.06c-.36.09-.61.18-.62.31a9.39,9.39,0,0,1,1-.22l.14,0,.22,0,.45,0,.9,0c1.21-.06,2.48-.06,3.81,0,0-1.46.08-2.95.11-4.38,0-.58,0-1.15.06-1.7s0-.82,0-1.2c0-1.53-.21-2.78-.88-3.37.08-.48.15-.49.23-.32a25.2,25.2,0,0,1,.42-2.58c-.34-.46-.49,1.22-.62-.64.08-1.47.61-.63.86-1.24-.44-2.82-.62-7.28-1.39-7.77.21-.83.64-1.71.79-.78-.61-4.48.12-4.3-.27-8.83,0,1.58.82.79.5,3.07,1.09-1.79-.2-6.93.37-10.53l-.69-1.45c-.13-2.2.55-2.33.79-.79.44-3.73,0-5.71,0-8.56.08-.17.22,0,.18.44l0-4.13c-.18-.41-.53-1.89-1-1.59C1150.79,559.94,1151,560.8,1150.76,563Z"/>
<path class="cls-1" d="M1150.39,559.43l-.09-.11v.16S1150.36,559.45,1150.39,559.43Z"/>
<path class="cls-1" d="M1147.34,596.83a3.7,3.7,0,0,0,.29-1A3.19,3.19,0,0,0,1147.34,596.83Z"/>
<path class="cls-1" d="M1137.85,571c1.07-.52-.17-2.5.12-4.3.16,1.71.78,1.28,1.09,1.06-1.38-2.12.27-2.59,0-6.5.45-.08.52,1.8,1,2-.35-2.15-.54-5.44-1.3-5.92,0-.64,0-1.24,0-1.81s0-1.07,0-1.57c0-.82.07-1.56.1-2.24a15.88,15.88,0,0,0,1.71,0c-.94.15-.89.32-.76.54a1.36,1.36,0,0,1,.34.77l.11.21-.07-.16c0-.19.22-.39.61-.59a3.86,3.86,0,0,1,.77-.3l1.38-.32c2-.42,3.61-.87,6.22-1.32.18.72.33,1.35.47,2-.84,1-.93,1-1.7.86a9.23,9.23,0,0,0-.12,1.06,5.1,5.1,0,0,0,0,.79,1.18,1.18,0,0,0,.27.69c.24.29.51.56.38,2.64l.15-1.93c.26,2,1,2.09,1.61,2.7l-.12-4.89c.58.05.5,3.08.65,4,.69,1.45.49-2.63,1-2.1a4,4,0,0,1-.35-1.74l0-.3v-.51l0-1c0-.67,0-1.3-.1-1.83l.31-.59c.06-.84.08-1.6.08-2.28-1.58,0-3,.14-4.35.27l-2,.17a8.64,8.64,0,0,1-1.18.08c-.18-.09-.21-.15-.17-.21-.36.18-.73.37-1.16.54a6,6,0,0,1-.71.22l-.4.08a2.79,2.79,0,0,1-.54.06l1,0-.49.18-.27.08-.4.09-1.62.32c-1,.21-1.71.41-1.83.63q.19.5.39.39a8.38,8.38,0,0,0,1.09.33l-.8,0-.19,4a5,5,0,0,1-.65-.5,3.75,3.75,0,0,1-.33-.35,3.1,3.1,0,0,1-.33-.59,14.39,14.39,0,0,1-.83-4.92l.41,0a4.38,4.38,0,0,1,.29-.34q-.55-.06-1.14-.09a27.67,27.67,0,0,0,.4,6c.29.91.69,1.38,1,.74,2,2.16.07,7.6.89,11.25-.53.25-.75-1.76-1.12-2.65-.06-1.1-.07-1.88.38-2-.3-4.7-1.69,1-1.5-4.31.27-2.59.85,3.17.93-.66l-.74-1.36-.37-.68-.18-.34,0-.09,0-.16-.09-.34c0,.38,0,.75,0,1.12s0,.58,0,.86l.12,1.65c.1,1.07.19,2.08.28,3a111.28,111.28,0,0,1,.44,13,3.55,3.55,0,0,1-.18,1c-.06.15-.11.17-.11.17l0,1-.76-.85-.42-.48-.22-.25-.68-.81-6.5-7.82L1113.6,549l-2.92,0c-4.88.21-6.63.14-8.57,1.61,1,.3,4,.16,3,.67.53-.55,2.38-.84,4.92-.79.27.53-2.33.26-1.67.38l.48,0a2,2,0,0,1-1.49.47,13.38,13.38,0,0,0,2.45.42c.44,0,1,.07,1.37.08s.71,0,1.07,0c.24.27.49.53.75.79s.67.65,1,.93a8.12,8.12,0,0,0,1.81,1.25c1,2.15-1.65-.7-2.72-1.36,4.83,6.59,8.38,10.83,13.55,17.27.81-.49,1,.27,2.21.75l.18.77c-.1-.39,1.13.1.26-1.28a9.2,9.2,0,0,0,3.46,3.62,3,3,0,0,0,1.33.49,3.8,3.8,0,0,1,.81.13c0,.22-.09.42-.14.62.46.51.75.81,1,1.05a1.63,1.63,0,0,0,.66.42l.12.23a.78.78,0,0,1,.36.44,4.6,4.6,0,0,1,.13,1,3.09,3.09,0,0,0-.72-.6c-.18-.06-.3.07,0,1a5.48,5.48,0,0,0,.52.33c0,.71-.12,1.88-1.2,1.08a20.22,20.22,0,0,1,3.35,3.72c0-.9.12-1.77.14-2.93a34.43,34.43,0,0,0-.19-4.27,18.29,18.29,0,0,1,.7,4.36c.18,2,.3,4.27.33,5.18,0-1.07-.06-2.87-.09-4.22s0-2.34.25-2.1c-.22-.48-.45-.93-.68-1.36,0-1.84.12-1.59.34-.92s.51,1.9.73,1.43c0-5.43-.6-5.72-1.19-5.88S1138.05,573.67,1137.85,571Z"/>
<path class="cls-1" d="M1148.72,584.68a10.17,10.17,0,0,0,0-2C1148.68,583.33,1148.68,584,1148.72,584.68Z"/>
<path class="cls-1" d="M1147.44,572.08a.92.92,0,0,1-.25-.23C1147.25,572.07,1147.33,572.16,1147.44,572.08Z"/>
<path class="cls-1" d="M1146.49,570.84c.31-.31.32.49.7,1C1147,571,1147,569,1146.49,570.84Z"/>
<path class="cls-1" d="M1102.17,551.07c-.39-.17-1.59-1.33-1.46-.91l1.72,1.74Z"/>
<path class="cls-1" d="M1104.66,555.32l1.3,2,1.72.65C1106.06,556,1106.28,557.29,1104.66,555.32Z"/>
<path class="cls-1" d="M1108.48,560.84l-.52-.28C1108.35,560.88,1108.47,560.92,1108.48,560.84Z"/>
<path class="cls-1" d="M1108.84,560.67l1.11.3-2.34-2.1.65,1c-.17.16.24.81.22,1l1.11.6A2.86,2.86,0,0,1,1108.84,560.67Z"/>
<path class="cls-1" d="M1110.54,562.71a2.83,2.83,0,0,1,0-.3C1110.49,562.45,1110.49,562.55,1110.54,562.71Z"/>
<path class="cls-1" d="M1113.34,568.15c-.19-.63.88.1,1.21.07-1.3-2-2.15-1.48-3.22-3.3,2.45,2.17-.42-1.15-.79-2.21-.09.87.33,2.07,1.7,4l.49-.06C1113.54,567.69,1112.92,567.33,1113.34,568.15Z"/>
<path class="cls-1" d="M1122.07,577.27l-1.69-1.09c0-.44-1.88-2.81-1.29-3.1a12,12,0,0,0-1.76-1.3,2.7,2.7,0,0,0-1.46-2c2.53,3.81,1.56,2.85,3.89,6-.16,0-.46-.38-.75-.78l1.36,2.22C1121.13,577,1123.26,579.51,1122.07,577.27Z"/>
<path class="cls-1" d="M1124.08,580.5c-1.34-1.58-2.51-2.08-2.18-1l3.13,3.07C1124.23,581.55,1123.2,580.4,1124.08,580.5Z"/>
<path class="cls-1" d="M1125.77,583.21c-.51.35-1.17.72-1.68,1.11a3,3,0,0,0-1.15,1.63C1124.33,584.15,1124.5,585.42,1125.77,583.21Z"/>
<path class="cls-1" d="M1115.48,594.45l2.94-2.83c1.11,0-1.06,1.65-1.58,2.84,2.36-2.52,1.44-1.86,2.73-4.18a18.94,18.94,0,0,0,1.92-3.2C1118.61,591.52,1116.9,590.41,1115.48,594.45Z"/>
<path class="cls-1" d="M1108.58,601.19c-2.32,1.23-2.59,3.93-4.71,5.78.14-.26,0-.16.24-.68l-1.6,2h-.3c.33.07,0,.74-.3,1.41a5.44,5.44,0,0,0-.67,1.71c1.23-1,1.11-1.11,1.09-1.36s0-.5,1-1.2a3.11,3.11,0,0,0,.17,1.17A10.61,10.61,0,0,0,1104,608c1-1.24.91-.67,1.16-.62.86-1.55.22-2.12,2.1-4,1.5-1,0,1.3,1.69-1.07-1.65.5,2-2.16,2.3-3.41,1.55-1.55,2.9-2.26,2.86-1.69-.59-.42.17-2.28,1.09-3.68l-1.92,3.21-1.46.4a20.23,20.23,0,0,1-3.36,4.33Z"/>
<path class="cls-1" d="M1103.51,610.07a4.67,4.67,0,0,1-.18.45A.51.51,0,0,0,1103.51,610.07Z"/>
<path class="cls-1" d="M1103.57,610.93c.21-.2-.12-.24-.37,0a.91.91,0,0,0,.36.2A1.48,1.48,0,0,1,1103.57,610.93Z"/>
<path class="cls-1" d="M1101.69,612.32l-1,.73a.54.54,0,0,0,0,.18l1.36-.39-.78-.06Z"/>
<path class="cls-1" d="M1136,593.3c-.42-.7-.71-.91-1-1s-.44.12-.65.2C1135.83,594.37,1134.74,592.22,1136,593.3Z"/>
<path class="cls-1" d="M1147.54,612.5a3.42,3.42,0,0,0-1.7,0l-.41.07-.65.07a11.2,11.2,0,0,1-1.3.08,10.07,10.07,0,0,0,1.28.13l.68,0,.52,0A5.51,5.51,0,0,0,1147.54,612.5Z"/>
<path class="cls-1" d="M1145.6,600.33c.19.45.29,1.06.36.1l1,1.72C1147.34,599.57,1146.05,600.25,1145.6,600.33Z"/>
<path class="cls-1" d="M1145.46,585.15l.39,2.46,0-1.28a8.58,8.58,0,0,1,.95,2C1146.61,586.51,1146.21,584.78,1145.46,585.15Z"/>
<path class="cls-1" d="M1147,590.55c0-.27,0-.58-.06-.91A.69.69,0,0,0,1147,590.55Z"/>
<path class="cls-1" d="M1146.94,588.67c0-.13-.07-.22-.11-.33.05.44.1.89.13,1.3A1.13,1.13,0,0,0,1146.94,588.67Z"/>
<path class="cls-1" d="M1146,583.3l-.11-4.25-.2,1.62C1146.29,581,1145.29,582.64,1146,583.3Z"/>
<path class="cls-1" d="M1146.52,561l.62-.44a23.16,23.16,0,0,0-.43-4.27,11.42,11.42,0,0,1-.15-1.94,1.3,1.3,0,0,1,.37-.69c-.19.34-.37.15-.52.16s-.27.12-.36.43c.07,0,.13,0,.19.16s.1.51.14.8c.08.59.14,1.27.17,2A31.66,31.66,0,0,1,1146.52,561Z"/>
<path class="cls-1" d="M1147.38,552.37c.08,0,.13-.06.15-.09s.06,0,.09-.09-.11-.2-.19-.31a2.69,2.69,0,0,0-1,.11c-.27.1-.37.23-.25.36.39-.41.58-.28.65-.11S1146.85,552.62,1147.38,552.37Z"/>
<path class="cls-1" d="M1139.6,553.69c0-.45-.08-1.2-.24-.57,0,.82.21,1.09.44,1.29a2.6,2.6,0,0,1,.73,1,6.34,6.34,0,0,0,.08-.72v-.34a.33.33,0,0,0,0-.12,1.55,1.55,0,0,0-.26-.39C1140.09,553.6,1139.77,553.31,1139.6,553.69Z"/>
<path class="cls-1" d="M1135,571.88c.54-.27.46-2.15.28-2.59A8.28,8.28,0,0,1,1135,571.88Z"/>
<path class="cls-1" d="M1136.26,582.73c-.53-.37-1.11-.81-1.76-1.32l2.77,3.26Z"/>
<path class="cls-1" d="M1133.72,579.4l-2.2-2.65.65,1.13C1133.2,579.41,1133,578.53,1133.72,579.4Z"/>
<path class="cls-1" d="M1128.4,573a1,1,0,0,1,.32.58l1.62,1.45Z"/>
<path class="cls-1" d="M1101.85,549.32c.53-.55-1.62-.2-2.28-.32C1099.44,549.13,1100.84,549.83,1101.85,549.32Z"/>
<polygon class="cls-1" points="405.97 1043.85 406.55 1043.51 404.13 1043.77 405.97 1043.85"/>
<polygon class="cls-1" points="395.68 1048.05 395.13 1049 395.79 1048.56 395.68 1048.05"/>
<polygon class="cls-1" points="425.47 1043.97 424.78 1044.14 425.26 1044.39 425.47 1043.97"/>
<polygon class="cls-1" points="385.17 646.94 384.75 647.72 385.32 647.4 385.17 646.94"/>
<polygon class="cls-1" points="371.4 663.96 370.25 664.6 370.08 665.43 371.4 663.96"/>
<polygon class="cls-1" points="381.48 696.84 381.16 696.24 380.03 696.15 381.48 696.84"/>
<polygon class="cls-1" points="391.01 703.8 392.82 703.28 390.13 703.37 391.01 703.8"/>
<polygon class="cls-1" points="1121.36 588.79 1121.4 588.22 1120.34 589.88 1121.36 588.79"/>
<polygon class="cls-1" points="1114.67 596.89 1114.24 597.66 1114.82 597.36 1114.67 596.89"/>
<polygon class="cls-1" points="1139.44 572.29 1139.57 571.63 1138.75 570.84 1139.44 572.29"/>
</svg>