<svg xmlns="http://www.w3.org/2000/svg" viewBox="0 0 1500 1500">
<defs><style>.cls-1{fill:#6b7051;}.cls-2{fill:none;}</style></defs>
<path class="cls-1" d="M833.38,660.09l1.51,2.26C835.14,661.87,834.84,661.16,833.38,660.09Z"/>
<path class="cls-1" d="M955.78,495.09a4.49,4.49,0,0,0-.38.51C955.72,495.31,955.79,495.18,955.78,495.09Z"/>
<path class="cls-1" d="M895.31,742.85l-.11-.07c-.24,0-.48-.08-.7-.08Z"/>
<path class="cls-1" d="M789.23,675.66c27.54,18.13,32.25,27.27,62.68,42.91,13.75,8.74,29.3,16.6,43.29,24.21,8.65.25,18,10.68,27.46,12.23l1.74,3.84c3.27.54,6.79,1.69,8.78,4.4l-.52.49c4.88.81,8.77,4.4,11.2,4.8l-.52.5,4.95,2.61L947,772a67.82,67.82,0,0,1,20.84,11.11l1-2.81c.73.68,1.45,1.3,2.15,1.88L972,783l.51.39.77.51c1.08.68,2.12,1.35,3.19,1.89s2.13,1,3.18,1.49a42.6,42.6,0,0,0,12.24,2.88,84.5,84.5,0,0,0,12,.19c4.2-.19,8.74-.5,14.22-1.2l-.08.76c3.05-1.94,5.76-3.75,8.29-5.5s4.89-3.42,7.19-5a95.2,95.2,0,0,0,12.63-10.57,40.51,40.51,0,0,0,9.31-14.46,33.52,33.52,0,0,0,1.92-9.23,34.5,34.5,0,0,0-.08-5c-.1-.84-.23-1.69-.37-2.54-.09-.42-.17-.84-.25-1.27a6.71,6.71,0,0,0-.31-.9c.22.58.43.77.62.85s.37-.2.55-.45c.36-.5.69-1.26,1-1.16-.69-8.45-1-17.47-6.68-17.7.17-6.14,1.86-5,4.08-5.74-2.5,0-3.46-5.36-3.54-10.16l.93,2.22-.63-13.77-4.75,2.63c1.47-7.28,5.77-1.77,4.74-8.77l-3.9,0c.93-10.08,6.94-15.91,10-25.63,2.31-40.57-7-84.34.51-122l3-1.62c4.3-.66-6.18-10.52-2.19-11.89l-1.89-4.43c.79-1.22,1.65-3.81,2.58-1.61.23-4.06-.47-4.17-1.72-7.11l2.73-4.32a67.05,67.05,0,0,0,.6-11.66l-.09-2-.15-2.19c-.17-1.46-.37-2.91-.63-4.35a52.89,52.89,0,0,0-2.4-8.48,59.06,59.06,0,0,0-8.65-15.37,74.9,74.9,0,0,0-12.85-12.95,39.75,39.75,0,0,0-10.25-7.68,46.85,46.85,0,0,0-14.27-4.77,50.58,50.58,0,0,0-16.65,0,51.78,51.78,0,0,0-16.25,5.67,64,64,0,0,0-5.59,3.47l-4.6,3.1c-3,2.08-6,4.17-8.86,6.21-5.72,4.09-11,8-15.43,11.31-23.88,20.62-63.58,23.18-87.65,45-1.2,0-2.86,2.46-2.6,2.88l-25.59,13.54s-123.45,66.82-13,46l-.18,1.16c14.95-5.72,23.91-10.13,31.17-19.56,4.31,4.2,11.66-5.8,15.81-6l-.08.58c6.29-8.57,19.18-6.46,25.4-14.46-.1.58.5,2.06-1.33,3.18,5.58-3.93,13.07-9.57,15.14-6.88,13.74-8.65,34.26-18.3,40.74-28l-.17,1.16c3.41-6,6.43-4.2,11.32-9,.53.21,1,.18,1.07.38,3.9-6.26,16.18-9.64,20-13.51l1.38,1.78,11-6.69-4.43,1.91c-.76-3.08,1.83-3.42,5.39-4a27.7,27.7,0,0,0,5.73-1.39,5.94,5.94,0,0,0,3.4-2.4,4.27,4.27,0,0,0,1.85-.88,14,14,0,0,0,1.81-1.65,41.63,41.63,0,0,1,4.49-4.3,14,14,0,0,1,6-2.86,6.56,6.56,0,0,1,5.74,1.55c2.35-.46,1.07.22,0,1.09s-1.88,1.94.94,2.11c-1.37,2.84-3,.79-3,3.6,2.34.3,3.53,2.07,4.5,3.8s1.8,3.45,4.15,4.86l-1.92,1.6a5.42,5.42,0,0,1,3.46,3.17,8.92,8.92,0,0,1,.44,4.26c0,.68-.22,1.37-.25,2a9.82,9.82,0,0,0-.17,1.83,3.64,3.64,0,0,0,0,.87,3.15,3.15,0,0,0,.09.42l.12.7a8.31,8.31,0,0,0,1.07,2.66c1.88,10.55-7.5,6.94-2.8,18l-3.44,4.2c-.61,4.68,4.08,3.42,2.36,8.59-2.11-.35-1.79,6.53-3.75,3.46-3.5,11.7,4.33,23.94-1.52,39.33,4.07,3.43,1.49,11.18,4.55,13.74-1.8.38-.54,15.61-4.3,6.8-.31-.76-.23-2.09.47-2l-2.43-1.08c-4.75,8.75,2.29,16.08,1.44,24.81.85-2.58.69-6,2.34-3.7l-.46,8.11-2-1.72-1.39,12.07,2.57-1.62c-1.4,5.89-5.77,7.91-2.25,14.64,2,3,3.52-5.55,4.22.7-1.86,7.89-4.67,19.7-5.59,29.78,2.89-.9,2.74,1.82,3.28,4.62l-2.5.29c3.29,10.77-5.54,3.84-3,14.52l-1.72-1,5.16,2.9c4.78,9.67-5.25,5.09,1.32,15.86-.36-4.22,5.52-1.9,4.35,3.27l-2.38-1.35c.46,2.88,1.45,3.85.92,5.76-1.27-1.73-3.48-1-3.13,3.27l-3-2.88,4.3,8c-1.34,3.06-1.24,7.05-1.23,10.58v1.3c0,.21,0,.42,0,.63a2.34,2.34,0,0,1,0,.33,4.21,4.21,0,0,1-.23,1.07,1.94,1.94,0,0,1-1.67,1.16l-.11.22c-.08.14-.13.35-.26.59a6.76,6.76,0,0,0-.34.83,8.34,8.34,0,0,0-.38,1,4.91,4.91,0,0,0,.23,4.6c-.59-1.17-1.55-1.17-2.52-1.33a3.62,3.62,0,0,1-2.72-1.54,4.26,4.26,0,0,1-.16,4.24,2.37,2.37,0,0,1-3.56.81l.13-.41a10.38,10.38,0,0,0-3.69.36c-1,.3-2.09.75-3.24,1a6.29,6.29,0,0,1-3.57,0c-.3-.13-.59-.25-.88-.4s-.54-.39-.81-.61l-.9-.7-1-.78c-.63-.55-1.25-1.12-1.86-1.74-1,2.79-6.26-2.21-6.65,1.86-13.84-4-18-19.5-28.14-12.29-5.76-2.73-5.08-6.16-7.59-8.35l1.61.26c-10.68-5.3-13.69-7-21.13-11.74-4.36-1.31-7.68,2.89-13.79-2.27,3.27-.5.3-1.82-2.23-3.34,1.79.69,2.68.33.08-2.88a5.61,5.61,0,0,1-2.58.07c.06-.16,0-.35.18-.5-4.62-1.89-4.22-.89-2.4.53-.27.22-.31.67,0,1.54-3-5-12.33-7.17-11-10.59-13.15-6.9-24.16-9.13-35.47-14.26-.23-2.31,3.09-2.25,6.53-1L860,677.33c1.44-2.26,5.11,1.26,7.7,2.19-6.72-9.08-20.66-7.33-29.1-17l-3.26.51-.45-.67c-.54,1-3.67.88-5.41.26-.29-2.89,2.86-4.56-2.4-7.54-3-4.39-12.24-6-18.26-8.15,2.69,2.07,1.09,2.63-.58,2.58-2.63-1.48-2.93-4.38-5.45-4.72l1.37-2.85c-.5,3.16-8.42-1.31-10-.78-.28-2.89,5.06.69,6.61-.44l-15.84-9c-6.77-1.29-.52,3.16-4.59,3.94-.66-.3-1.32-.58-2-.85l-.89-.34-.82-.3a13.15,13.15,0,0,1-1.64-.68,10.49,10.49,0,0,1-1.6-.82,9.64,9.64,0,0,1-4.64-5.76,29.29,29.29,0,0,0-1.2,3,20.32,20.32,0,0,1-4.46-4.86,16.93,16.93,0,0,1-2.29-5.13,14.63,14.63,0,0,1,1-9.8,37.07,37.07,0,0,1-1.45-6.4,38.25,38.25,0,0,1-.29-6.18,42,42,0,0,1,1.85-10.92c2-6.49,4.78-11.16,6.47-14.59.44-.85.82-1.64,1.12-2.37a4.21,4.21,0,0,0,.32-1c.07-.3.12-.59.16-.86a5.46,5.46,0,0,0-.25-2.78c-.6-1.5-2-2.33-3.87-2.71a20.73,20.73,0,0,0-4.23.55,30.23,30.23,0,0,0-4.95,1.76,41,41,0,0,0-10,6.49,48.27,48.27,0,0,0-7,7.59c-.84,1.07-1.4,2-1.83,2.64l-.64,1a54,54,0,0,0-8.42,35.46,55.68,55.68,0,0,0,13.36,30.27,59.24,59.24,0,0,0,12.7,11c1.2.74,2.39,1.52,3.65,2.16l1.88,1,.47.25.41.2.6.25,4.95,2.11C773.54,668,780.92,671.32,789.23,675.66Z"/>
<path class="cls-1" d="M666.28,608.65l-1.55-2.24C664.49,606.89,664.8,607.6,666.28,608.65Z"/>
<path class="cls-1" d="M546.49,775.56a4.6,4.6,0,0,0,.38-.52C546.56,775.33,546.48,775.47,546.49,775.56Z"/>
<path class="cls-1" d="M603.05,526.88l.11.06c.24,0,.48.08.7.07Z"/>
<path class="cls-1" d="M710.17,592.38c-27.82-17.69-32.67-26.76-63.34-41.92-13.89-8.52-29.56-16.13-43.67-23.52-8.66-.11-18.13-10.4-27.65-11.8l-1.8-3.8c-3.27-.5-6.82-1.59-8.85-4.26l.52-.51c-4.9-.73-8.85-4.26-11.28-4.62l.51-.51-5-2.53,1.33-.38a67.58,67.58,0,0,1-21-10.77l-.93,2.81c-.74-.66-1.47-1.27-2.18-1.84l-1.06-.82-.52-.38c-.2-.14-.53-.34-.78-.5a36.61,36.61,0,0,0-3.22-1.84c-1.09-.53-2.14-1-3.2-1.44a42.83,42.83,0,0,0-12.29-2.69,83.4,83.4,0,0,0-12,0c-4.21.26-8.73.64-14.21,1.42l.07-.76c-3,2-5.7,3.85-8.21,5.64s-4.83,3.49-7.1,5.14a94.54,94.54,0,0,0-12.47,10.77,40.57,40.57,0,0,0-9.08,14.61,31,31,0,0,0-1.2,4.48,29.76,29.76,0,0,0-.57,4.77,33.24,33.24,0,0,0,.16,5c.11.84.25,1.68.42,2.53.08.42.17.84.26,1.27s.21.59.32.9c-.22-.58-.43-.77-.62-.84s-.38.2-.55.45c-.35.51-.67,1.27-1,1.18.83,8.44,1.27,17.46,7,17.59-.08,6.15-1.79,5-4,5.81,2.5,0,3.54,5.3,3.69,10.1l-1-2.21.85,13.76,4.71-2.7c-1.35,7.3-5.75,1.85-4.61,8.84l3.91-.09c-.77,10.09-6.69,16-9.57,25.78-1.67,40.6,8.29,84.23,1.42,122l-2.94,1.67c-4.29.73,6.34,10.42,2.38,11.86l2,4.39c-.77,1.24-1.59,3.84-2.55,1.65-.17,4.07.53,4.17,1.83,7.09l-2.67,4.36a67.65,67.65,0,0,0-.41,11.66l.12,2,.19,2.18c.19,1.46.41,2.91.7,4.35a51.74,51.74,0,0,0,2.53,8.43,59.38,59.38,0,0,0,8.89,15.24,75.56,75.56,0,0,0,13.05,12.75,39.93,39.93,0,0,0,10.38,7.51,46.58,46.58,0,0,0,14.34,4.55,50.69,50.69,0,0,0,16.64-.31,51.76,51.76,0,0,0,16.16-5.93,64.43,64.43,0,0,0,5.53-3.55l4.55-3.17c3-2.13,5.94-4.27,8.77-6.36,5.65-4.17,10.86-8.17,15.25-11.55,23.55-21,63.2-24.17,86.93-46.33,1.19,0,2.82-2.51,2.56-2.92l25.37-13.95s122.37-68.75,12.26-46.21l.15-1.16c-14.85,6-23.74,10.51-30.85,20-4.37-4.13-11.57,6-15.71,6.23l.07-.58c-6.16,8.67-19.08,6.76-25.17,14.85.09-.57-.53-2,1.28-3.2-5.52,4-12.92,9.78-15,7.13-13.6,8.87-34,18.84-40.29,28.66l.15-1.16c-3.32,6.09-6.37,4.3-11.18,9.2-.53-.2-1.05-.16-1.08-.36-3.8,6.32-16,9.89-19.77,13.82l-1.41-1.76-10.86,6.87,4.4-2c.81,3.07-1.78,3.45-5.32,4.08a27.92,27.92,0,0,0-5.72,1.48,6,6,0,0,0-3.36,2.45,4.38,4.38,0,0,0-1.83.91,14.26,14.26,0,0,0-1.78,1.68,41.82,41.82,0,0,1-4.43,4.37,14.09,14.09,0,0,1-5.91,2.95,6.51,6.51,0,0,1-5.76-1.46c-2.34.5-1.07-.2,0-1.09s1.85-2-1-2.09c1.32-2.86,2.94-.84,2.91-3.64-2.34-.27-3.55-2-4.55-3.73s-1.85-3.43-4.23-4.8l1.89-1.63a5.37,5.37,0,0,1-3.5-3.12,8.78,8.78,0,0,1-.51-4.25c0-.68.19-1.37.22-2a9.71,9.71,0,0,0,.14-1.83,4.2,4.2,0,0,0-.06-.87c0-.14-.06-.28-.1-.42s-.08-.47-.14-.7a8.43,8.43,0,0,0-1.1-2.65c-2-10.51,7.38-7,2.52-18l3.36-4.26c.55-4.68-4.12-3.35-2.49-8.55,2.12.32,1.69-6.56,3.7-3.52,3.31-11.75-4.71-23.86.9-39.34-4.12-3.37-1.67-11.16-4.77-13.67,1.8-.41.29-15.62,4.19-6.87.32.76.26,2.09-.44,2l2.45,1c4.61-8.83-2.55-16-1.83-24.78-.81,2.59-.6,6-2.28,3.73l.33-8.12,2.06,1.69,1.21-12.09-2.55,1.67c1.31-5.92,5.64-8,2-14.68-2-3-3.43,5.61-4.23-.64,1.74-7.91,4.36-19.76,5.12-29.86-2.87.94-2.77-1.77-3.35-4.57l2.49-.32c-3.46-10.72,5.48-3.93,2.72-14.57l1.74.94-5.2-2.81c-4.94-9.6,5.16-5.18-1.58-15.84.43,4.21-5.48,2-4.4-3.21l2.4,1.32c-.51-2.87-1.51-3.83-1-5.74,1.29,1.71,3.49.9,3.08-3.32l3,2.83-4.42-8c1.29-3.08,1.12-7.06,1.06-10.59,0-.44,0-.88,0-1.3v-.63a2.63,2.63,0,0,1,0-.33,4.22,4.22,0,0,1,.22-1.07,1.94,1.94,0,0,1,1.65-1.19l.11-.22c.07-.14.12-.36.24-.6a6.76,6.76,0,0,0,.34-.83c.15-.29.23-.64.36-1a4.92,4.92,0,0,0-.3-4.59c.6,1.15,1.56,1.14,2.53,1.28a3.63,3.63,0,0,1,2.75,1.5,4.23,4.23,0,0,1,.1-4.24,2.36,2.36,0,0,1,3.54-.87l-.13.41a10.49,10.49,0,0,0,3.69-.41c1.05-.32,2.08-.79,3.22-1.09a6.4,6.4,0,0,1,3.58,0c.29.12.59.24.88.38s.55.39.81.6l.92.68c.32.25.65.51,1,.78q1,.8,1.89,1.71c.92-2.81,6.29,2.11,6.62-2,13.9,3.81,18.26,19.22,28.33,11.85,5.8,2.64,5.17,6.08,7.72,8.22l-1.61-.23c10.76,5.13,13.8,6.76,21.31,11.4,4.38,1.24,7.63-3,13.83,2.05-3.27.55-.28,1.83,2.28,3.31-1.8-.66-2.69-.28,0,2.88a5.61,5.61,0,0,1,2.58-.11c-.06.16,0,.35-.17.5,4.64,1.82,4.23.83,2.39-.57.26-.22.3-.67,0-1.53,3.07,4.91,12.45,7,11.17,10.41,13.26,6.69,24.31,8.75,35.69,13.7.27,2.31-3.05,2.3-6.52,1.13l7.92,3.79c-1.4,2.28-5.12-1.18-7.72-2.07,6.85,9,20.76,7,29.36,16.55l3.25-.57.46.67c.53-1,3.66-.94,5.41-.35.33,2.89-2.8,4.6,2.52,7.51,3,4.34,12.33,5.81,18.38,7.86-2.72-2-1.13-2.61.54-2.6,2.66,1.45,3,4.34,5.52,4.64l-1.32,2.87c.45-3.16,8.44,1.18,10.05.62.33,2.89-5.06-.6-6.6.54l16,8.72c6.8,1.18.48-3.17,4.54-4,.66.29,1.32.55,2,.81l.9.33.82.29a13.79,13.79,0,0,1,1.65.65,11,11,0,0,1,1.61.8,9.67,9.67,0,0,1,4.74,5.68c.44-1,.79-2,1.14-3.06a19.9,19.9,0,0,1,4.54,4.78,17,17,0,0,1,2.37,5.1,14.6,14.6,0,0,1-.8,9.81,36.29,36.29,0,0,1,1.56,6.37,37.42,37.42,0,0,1,.38,6.18A42.06,42.06,0,0,1,739,680.9c-1.91,6.52-4.6,11.23-6.24,14.69-.42.86-.78,1.65-1.08,2.39a3.94,3.94,0,0,0-.3,1c-.07.3-.11.59-.15.87a5.6,5.6,0,0,0,.3,2.77c.62,1.49,2,2.3,3.91,2.64a19.75,19.75,0,0,0,4.22-.61,29.84,29.84,0,0,0,4.93-1.84,41.16,41.16,0,0,0,9.84-6.64,48.37,48.37,0,0,0,6.87-7.71c.82-1.08,1.37-2,1.79-2.66l.62-1a54,54,0,0,0,7.86-35.59,55.65,55.65,0,0,0-13.84-30.06,58.91,58.91,0,0,0-12.87-10.74c-1.21-.72-2.41-1.48-3.68-2.11l-1.89-1-.48-.24-.41-.19-.61-.24-5-2C726,599.82,718.56,596.59,710.17,592.38Z"/>
<path class="cls-1" d="M761.22,425.44l-.93,1.66C760.72,427.08,761.09,426.65,761.22,425.44Z"/>
<path class="cls-1" d="M762.31,847.93c.08.13.12.28.21.4C762.44,848.05,762.38,848,762.31,847.93Z"/>
<path class="cls-1" d="M729.92,490.35v-.09c-.09-.14-.14-.31-.23-.43Z"/>
<path class="cls-1" d="M732.39,405.17c-1.13,22.36-5.46,28.29-3.68,51.45-.34,11.05.68,22.84,1.21,33.64,3.39,5.12.07,14.18,2.92,20.24l-1.91,2.35c1,2.09,1.63,4.55.6,6.65l-.56-.13c1.46,3.12.6,6.64,1.33,8.19l-.57-.13.26,3.79-.8-.65a39.2,39.2,0,0,1,1,16l2.32-.42c-2.58,10.58,2.24,14.44-.82,24l-.56-.13c6.14,12-4.14,19.07,1.7,31.49-.73-1.55-1.2.67-1.76.54.67,5.72,1,11.84,5.59,11.92,0,4.17-1.42,3.4-3.18,3.95,2,0,2.84,3.59,3,6.85l-.77-1.5.69,9.33,3.77-1.84c-1.07,5-4.6,1.27-3.67,6l3.12-.07c-.6,6.84-5.33,10.87-7.62,17.5-1.28,27.55,6.75,57.12,1.31,82.76l-2.35,1.13c-3.43.5,5.09,7.06,1.92,8l1.57,3c-.61.84-1.26,2.61-2,1.13-.12,2.75.44,2.82,1.48,4.8l-2.13,3c-1.63,10.88,2.51,20.12,1.69,31.56-4.32,13.76-.27,39.62,2.08,54.53,5.17,20.94-8.45,45.34-2.56,66.77-.49.7.61,2.51,1,2.49L735.44,933s-.08,5.95.24,13.73c.15,3.89.41,8.25.82,12.53l.33,3.18c.12,1,.25,2.1.39,3a.64.64,0,0,0,0,.22h0l1.64.06,3.5.14,2.88.13,2.45.13,1.84.13c.21,0,.54.08.61.07a.38.38,0,0,0,.33,0c.14,0,.28,0,.6-.07s.53-.06.8-.07l2.22-.16,5.81-.3,3.37-.15h0s0,0,0-.08l-.07-.29-.27-1.39c-.2-1-.39-1.9-.61-2.81-1.69-7.31-4.23-12.42-8.1-11.14-1.93.64-4.19,2.87-6.83,7.22a70.94,70.94,0,0,0-4.23,8.25l-.27.68a3.26,3.26,0,0,0-.14.41,2.93,2.93,0,0,0-.06.33v.47c6.19-.41-13.79,2.28,14.78,2,.84-2.9.36-1.59.53-2.17a3.51,3.51,0,0,1,.11-.56,2.07,2.07,0,0,1,.09-.24l.15-.4c.11-.23.21-.47.31-.71l1.25-2.85c.85-2,1.71-4.06,2.6-6.32l.75.49c1.84-10.78,2.23-17.55-1.54-25,4.61-1.18.47-8.84,2-11.35l.38.23c-3.55-6.55,2.93-13.51-.25-19.82.37.24,1.63.38,1.71,1.83-.59-4.61-1.62-10.9,1.06-11.25-.72-11,.5-26.35-3.8-33.39l.75.48c-2.9-4-.44-5.2-1.92-9.68.35-.25.53-.57.68-.52-2.86-4.37-.47-12.76-1.69-16.3l1.78-.23-.44-8.71-.37,3.26c-4.9-1.12,3.06-6.6-.13-12.91.61-5.91-10.2-12-7.82-18.12-2.29-2.92,3.74,2.58,2-1.8,2.56-.15,1.61,2,3.64.91-1.21-4.29,2.6-7,.86-12.35l2-.22c-3.65-6.91,2.6-13.05-.88-17.65-1.66-7.12,5.9-4.79,2-12.21l2.68-2.89c.43-3.18-3.3-2.27-2-5.8,1.7.21,1.35-4.45,3-2.39,2.64-8-3.8-16.18.67-26.69-3.31-2.28-1.36-7.57-3.84-9.27,1.44-.28.21-10.59,3.35-4.66.25.51.21,1.41-.35,1.35l2,.71c3.68-6-2.05-10.88-1.49-16.81-.65,1.76-.47,4.09-1.82,2.53l.25-5.5,1.65,1.14.95-8.2-2,1.13c1-4,4.51-5.44,1.6-10-1.62-2-2.74,3.81-3.38-.43,1.37-5.36,3.45-13.41,4-20.26-2.3.64-2.22-1.2-2.69-3.1l2-.22c-2.78-7.26,4.38-2.67,2.16-9.88l1.39.63-4.16-1.9c-4-6.5,4.12-3.52-1.28-10.74.34,2.86-4.39,1.36-3.53-2.17l1.92.89c-.41-2-1.21-2.59-.82-3.89,1,1.16,2.8.61,2.47-2.26l2.41,1.92-3.55-5.41c2-4.19-.55-10.81,2.16-12.53,0,0,1.31-9-1.66-11.05,1.84,1.8,2.54-3.16,4.71-1.75-2.09-2.32-3.82-9.2-1.6-12l.26.52c2.25-10.19-3.15-17.41-.41-26.56-2.31.42-1.06-4.41-4-3.21-2.94-9.46,6-17.26-3.16-20.66-.5-4.3,2.13-5.1,2.6-7.32l.48,1a101.46,101.46,0,0,1-.65-16.39c-.89-3-5.13-3.45-4.12-8.81,1.69,1.73,1.38-.46,1.37-2.46.27,1.28.89,1.68,2-1a3.78,3.78,0,0,1-1.11-1.47c.13,0,.23-.13.41-.08-.6-3.34-1.12-2.76-1.35-1.2-.26-.08-.59,0-1.06.53,2.18-3.47-.16-9.67,2.74-10.1-.68-10-3.68-17.24-4.82-25.6,1.49-.94,2.82,1,3.4,3.44l-.55-5.94c2.14.05,1.23,3.41,1.66,5.24,3.47-7.07-3.47-14.57-.3-22.86L760,427.6l.28-.5c-.9,0-2.12-1.83-2.41-3.06,1.87-1.17,4.31.08,4.19-4,1.8-3.24-.9-9.22-1.91-13.46-.32,2.29-1.35,1.55-2,.56-.06-2.05,1.8-3.23,1-4.81l2.52-.2c-2.37.81-2.56-5.36-3.59-6.12,1.87-1.16,1.61,3.18,3,3.7-.23-8.23-.12-4.11-.35-12.34-1.89-4.38-2.38.8-4.59-1.3-.49-3.87-2.24-7.66-.72-12.1l-2.23,1.4c-1.72-7.28-1.45-11.64.84-16.52-1.11-3.38-2.2-6.41-3.17-9.05l-.09-.23,0-.1,0,0c-.12,0-.36,0-.53-.07s-.33,0-.39-.1-.18.09-.28.07-.44.09-.61.11c0,0,0,0,0,0l.06.1.11.22.42.92.81,1.79c.53,1.16,1,2.23,1.54,3.23a39,39,0,0,0,5.39,8.55c3.24,3.58,5.77,3.28,7.72,1.3s3.31-5.68,4.17-8.91c.43-1.61.74-3.11.93-4.22s.28-1.88.28-1.88c.07-.37.13-.76.19-1.22,0-.23.05-.47.06-.86,0-.18,0-.45,0-1l-.07-.72c0-.29-.09-.69-.14-1s0-.09-.15-.79a20.76,20.76,0,0,0-1-3.48c17.26,9.47-23.3-22.56-35.77-5.24a21.21,21.21,0,0,0-3.86,7.71c-.37,1.53-.2.88-.32,1.44l-.14.81L729,347l-.06.46-.12,1.13-.07.5-.12.7c-.06.38-.13.75-.2,1.13-.24,1.38-.44,2.63-.6,3.86a64.47,64.47,0,0,0-.51,7,81.8,81.8,0,0,0,.93,13C729.46,383.33,731.51,392.45,732.39,405.17Z"/>
<path class="cls-1" d="M451.15,1046.38c-.12.25-.27.11-.43-.08s-.32-.37-.46-.39a2,2,0,0,0,0,.46,2.43,2.43,0,0,0,0,.49,3.69,3.69,0,0,0,.23.77,2.68,2.68,0,0,1,.19,1.72c-.53-2.53-.4.92-.78,1.75.62-.49,1.05-1.43,1.24-3.32l-.42-.21C450.71,1046.56,451,1047.09,451.15,1046.38Z"/>
<path class="cls-1" d="M444.44,1044.09l1.5-.62a4.53,4.53,0,0,0,1.41.35c.7.12.95.28.87.6.53-.09.75-.37,1.39-.54.14.17.2.32.37.36a.42.42,0,0,0,.24.49c.06-.37.11-.71.15-.88-.77-.16-1.16-.28-1.58-.38a14.78,14.78,0,0,0-2.32-.25c.07-.14.46-.12.84-.09l-2-.35C445.1,1043.56,442.47,1043.61,444.44,1044.09Z"/>
<path class="cls-1" d="M441.46,1043.62c1.63,0,2.52-.63,1.72-1l-3.46.5C440.73,1043.07,442,1043,441.46,1043.62Z"/>
<path class="cls-1" d="M439.07,1043.61c-.65-.33-1.7-1-2.82-.39C438.11,1043.12,437.24,1044.07,439.07,1043.61Z"/>
<path class="cls-1" d="M519.53,1048.75l-1,2.24c-.49.12-2.88,3-3.26,2.5a17.67,17.67,0,0,0-1.23,2.39,4.09,4.09,0,0,0-2,2.3c3.91-4.12,3-2.71,6.19-6.38,0,.17-.36.63-.77,1.09l2.29-2.27C519.29,1049.9,521.86,1046.66,519.53,1048.75Z"/>
<path class="cls-1" d="M522.52,1045.83a6.4,6.4,0,0,0-1.14,2c-.12.47,0,.71.66.23,1.18-1.72,2.19-3.23,3-4.51-.5.62-1,1.32-1.51,1.79S522.74,1046,522.52,1045.83Z"/>
<path class="cls-1" d="M524,1043.61a1.22,1.22,0,0,0-.88-.56,5.38,5.38,0,0,0-2.66.17c1.48,0,1.64.16,1.74.33S522.33,1043.84,524,1043.61Z"/>
<path class="cls-1" d="M507.35,1045.15l1.85-1.91,2.28.19c.34.3.12.41-.36.46l-.41,0h-1.19a4.83,4.83,0,0,0-.67,1l.76-.86a6,6,0,0,0,.92,0c.19,0,.52-.07.74-.13a24.5,24.5,0,0,1,2.41-.5,28.37,28.37,0,0,0,4.57-.61,20.65,20.65,0,0,1-5.45-.08c-.65-.09-1.22-.19-1.81-.26a11.72,11.72,0,0,0-2.17,0,13.3,13.3,0,0,0-.8,1.27A11,11,0,0,0,507.35,1045.15Z"/>
<path class="cls-1" d="M472,1043.54c2,.3,1.79-.28,2.13-.7C471.05,1042.72,474.05,1043.34,472,1043.54Z"/>
<path class="cls-1" d="M561.71,1046.38c-.12.25-.28.11-.44-.08s-.32-.37-.45-.39a2.07,2.07,0,0,0-.05.46,2.38,2.38,0,0,0,.05.49,3.69,3.69,0,0,0,.23.77,2.75,2.75,0,0,1,.18,1.72c-.53-2.53-.39.92-.78,1.75.63-.49,1.06-1.43,1.24-3.32l-.42-.21C561.27,1046.56,561.52,1047.09,561.71,1046.38Z"/>
<path class="cls-1" d="M555,1044.09l1.51-.62a4.53,4.53,0,0,0,1.41.35c.69.12,1,.28.87.6.53-.09.74-.37,1.39-.54.14.17.2.32.37.36a.41.41,0,0,0,.23.49c.06-.37.11-.71.16-.88-.78-.16-1.16-.28-1.59-.38a14.58,14.58,0,0,0-2.31-.25c.06-.14.45-.12.84-.09l-2-.35C555.65,1043.56,553,1043.61,555,1044.09Z"/>
<path class="cls-1" d="M552,1043.62c1.62,0,2.52-.63,1.71-1l-3.45.5C551.29,1043.07,552.53,1043,552,1043.62Z"/>
<path class="cls-1" d="M549.62,1043.61c-.64-.33-1.69-1-2.81-.39C548.66,1043.12,547.79,1044.07,549.62,1043.61Z"/>
<path class="cls-1" d="M537.9,1043l3.2.42c.59.83-1.53.26-2.51.63,2.71.17,1.85-.1,3.9-.61a11.86,11.86,0,0,0,2.9-.61C541.26,1043.51,541.05,1041.49,537.9,1043Z"/>
<path class="cls-1" d="M530.33,1043.44a3.91,3.91,0,0,0-.33,1.78,8.37,8.37,0,0,0,0,1,6.13,6.13,0,0,0,.14.76,7.44,7.44,0,0,1,.27,3c-.06-.23-.14-.07-.25-.53l.1,1.86-.23.08c.15,0,.27.07.38.25a4.68,4.68,0,0,1,.31.84,5.34,5.34,0,0,0,.58,1.54c.32-1.12.13-1.2,0-1.38s-.35-.4,0-1.24a5.19,5.19,0,0,0,.89.88,4.43,4.43,0,0,0-.23-.53c-.08-.17-.16-.34-.24-.48s-.34-.47-.51-.72c-.06-1.24.28-.87.5-1-.35-1.4-1.21-1.35-1-3.54.25-.77.46-.45.57-.37s.13.09,0-1.12c-.58.49-.38-.65-.29-1.81a3.37,3.37,0,0,0,1.83-.16,6.89,6.89,0,0,1,2.25.49c.45.21.64.44.45.61,0-.73,1.47-1.35,2.77-1.55l-2.9.6-.49-.42a2.93,2.93,0,0,0-.56-.43,16.9,16.9,0,0,1-3.91.3c0,.49,0,1-.06,1.54Z"/>
<path class="cls-1" d="M638.41,1041.49c-.24.14-.64.33-.81.45A1.32,1.32,0,0,0,638.41,1041.49Z"/>
<path class="cls-1" d="M633,1045.47a8.37,8.37,0,0,0-1.48,1.1Z"/>
<path class="cls-1" d="M639.73,1044.61a1.16,1.16,0,0,0,.45.05A1.68,1.68,0,0,0,639.73,1044.61Z"/>
<path class="cls-1" d="M638.54,1041.32a.55.55,0,0,1-.13.17C638.57,1041.4,638.66,1041.33,638.54,1041.32Z"/>
<path class="cls-1" d="M629,1047.46l.08,0C629.43,1047.2,629.3,1047.27,629,1047.46Z"/>
<path class="cls-1" d="M630.92,1047.82a3.9,3.9,0,0,0-1,.27A3.11,3.11,0,0,0,630.92,1047.82Z"/>
<path class="cls-1" d="M647.29,1043.27c1.84.27,3.49-.33,5.31-.14A11.05,11.05,0,0,0,647.29,1043.27Z"/>
<path class="cls-1" d="M634.79,1047.93c.32-.34.86-.62-.06-.38.39-.51.81-1,1.24-1.53-1.28.27-1.66.64-1.64,1S634.67,1047.74,634.79,1047.93Z"/>
<path class="cls-1" d="M693.5,1041.74c.78,0,1.56-.06,2.34-.11C694.05,1041.53,693.5,1041.6,693.5,1041.74Z"/>
<path class="cls-1" d="M741.52,1047c0,2.58.63,4,1,2.73l-.5-5.53C742.07,1045.82,742.14,1047.8,741.52,1047Z"/>
<path class="cls-1" d="M741.53,1043.65l0-.06a3.83,3.83,0,0,0-1.44-.55,6,6,0,0,0-1.23-.08,4.29,4.29,0,0,0-1.29.26c1.48,0,1.83.16,2.11.32s.44.3,1.82.08Z"/>
<path class="cls-1" d="M723.42,1043l5.09.42c.94.83-2.44.26-4,.63,4.32.17,2.94-.1,6.2-.61a29,29,0,0,0,4.62-.61C728.76,1043.51,728.44,1041.49,723.42,1043Z"/>
<path class="cls-1" d="M711.4,1042.1c-3.06-1-5.86.56-9.35.13.37,0,.11-.14.84-.25l-2.95.1-.13-.22c.17.58-2.88.82-4.19,1.27,3,.62,1.53-.73,4.18-.05-.64.26-1.1.67-1.71.88a9.77,9.77,0,0,0,3.06-1c2-.07,1.38.27,1.52.49,2.19-.35,2.22-1.2,5.56-1,2.15.51-1.27.81,2.4.6-1.81-.94,3.7.15,5.12-.45,2.73.19,4.51.76,3.93,1.1-.08-.73,2.33-1.35,4.4-1.55l-4.62.6-1.56-.85a31.76,31.76,0,0,1-6.87.23Z"/>
<path class="cls-1" d="M698.09,1044c-.32.06-.6.11-1,.16A2.58,2.58,0,0,0,698.09,1044Z"/>
<path class="cls-1" d="M695.77,1044.57c.61,0,.83-.26.22-.28l-1,.39Z"/>
<path class="cls-1" d="M693.13,1044a12.38,12.38,0,0,0-1.4-.49,2.52,2.52,0,0,0-.48.39Z"/>
<path class="cls-1" d="M795.56,1045.12l.34.13-.15-.14Z"/>
<path class="cls-1" d="M795.75,1045.11c.24,0,.48,0,.72,0C795.53,1044.8,795.54,1044.91,795.75,1045.11Z"/>
<path class="cls-1" d="M768.7,1043.54c1.67.3,1.51-.28,1.79-.7C767.92,1042.72,770.43,1043.34,768.7,1043.54Z"/>
<path class="cls-1" d="M848.51,1049.58c.17,1.25.67.93,1.13,1C849.07,1048.74,849.16,1050.69,848.51,1049.58Z"/>
<path class="cls-1" d="M969.08,1048.87c.15-.67.39-1.55.54-2.56a9.3,9.3,0,0,0-.07-3.29l-.43.09h.35a7,7,0,0,1-.35,2.8A6.22,6.22,0,0,0,969.08,1048.87Z"/>
<path class="cls-1" d="M953.35,1049.17l3.19-5.86h.21c.48.25.39.37.07.43a6.25,6.25,0,0,1-.3.77l-.5,1.07a19.51,19.51,0,0,0-1.08,2.65l1-2c.24-.51.47-1,.55-1.2a6.79,6.79,0,0,0,.4-1.24c.22-.06.46-.13.85-.21.2,0,.43-.09.73-.13l1.21-.15a55.18,55.18,0,0,0,6.41-.61,42.34,42.34,0,0,1-5.88.07c-.77,0-1.39-.11-2.09-.18l-2.12-.19c-.26.46-.53.94-.79,1.46l-.39.79c-.1.23-.21.47-.31.72A23.37,23.37,0,0,0,953.35,1049.17Z"/>
<path class="cls-1" d="M896.42,1043.44a5.41,5.41,0,0,0,1.85,0c.32.31.54.07.86.14-.18-.37-.32-.68-.41-.87-1.5,0-1.38.14-1.28.29S897.59,1043.34,896.42,1043.44Z"/>
<path class="cls-1" d="M1012.81,1046.38c-.13.25-.28.1-.44-.08s-.32-.37-.46-.4a3,3,0,0,0,0,.47,3.6,3.6,0,0,0,0,.49,5.48,5.48,0,0,0,.23.77,2.67,2.67,0,0,1,.19,1.72c-.53-2.54-.39.92-.78,1.75.63-.49,1.06-1.43,1.24-3.32l-.42-.21C1012.36,1046.56,1012.62,1047.09,1012.81,1046.38Z"/>
<path class="cls-1" d="M1006.09,1044.09l1.5-.62a4.62,4.62,0,0,0,1.41.35c.7.12,1,.28.88.6.52-.09.74-.37,1.39-.54.13.17.19.32.37.36a.41.41,0,0,0,.23.49c.06-.37.11-.71.16-.88-.78-.16-1.17-.28-1.59-.38a14.78,14.78,0,0,0-2.32-.25c.07-.14.46-.12.85-.09l-2-.35C1006.75,1043.56,1004.12,1043.61,1006.09,1044.09Z"/>
<path class="cls-1" d="M1003.12,1043.62c1.62,0,2.51-.63,1.71-1l-3.45.5C1002.39,1043.07,1003.62,1043,1003.12,1043.62Z"/>
<path class="cls-1" d="M1000.72,1043.61c-.64-.33-1.7-1-2.81-.39C999.76,1043.12,998.89,1044.07,1000.72,1043.61Z"/>
<path class="cls-1" d="M989,1043l3.19.42c.6.83-1.53.26-2.51.63,2.72.17,1.85-.1,3.91-.61a11.86,11.86,0,0,0,2.9-.61C992.35,1043.51,992.15,1041.49,989,1043Z"/>
<path class="cls-1" d="M981.43,1043.44a4,4,0,0,0-.33,1.79c0,.33,0,.67,0,1a6.31,6.31,0,0,0,.14.75,7.45,7.45,0,0,1,.27,3c-.06-.23-.14-.07-.25-.53l.1,1.86-.23.08c.15,0,.27.08.38.25a4.68,4.68,0,0,1,.31.84,5.55,5.55,0,0,0,.58,1.55c.32-1.13.13-1.2,0-1.39s-.35-.4,0-1.24a5.19,5.19,0,0,0,.89.88,3.66,3.66,0,0,0-.23-.52,5.36,5.36,0,0,0-.24-.48c-.17-.28-.34-.48-.5-.73-.07-1.24.27-.87.49-1-.35-1.39-1.21-1.34-1-3.54.25-.77.46-.45.57-.36s.13.08,0-1.13c-.58.5-.38-.65-.29-1.81a3.37,3.37,0,0,0,1.83-.16,6.89,6.89,0,0,1,2.25.49c.45.21.63.44.45.61,0-.73,1.47-1.35,2.77-1.55l-2.9.6-.5-.42a2.41,2.41,0,0,0-.56-.43,16.82,16.82,0,0,1-3.9.3c0,.49,0,1-.06,1.55Z"/>
<path class="cls-1" d="M1051.22,1041.5c-.24.13-.64.32-.81.44A1.36,1.36,0,0,0,1051.22,1041.5Z"/>
<path class="cls-1" d="M1045.83,1045.47a9.33,9.33,0,0,0-1.48,1.1Z"/>
<path class="cls-1" d="M1052.54,1044.61a1,1,0,0,0,.45.05A1.73,1.73,0,0,0,1052.54,1044.61Z"/>
<path class="cls-1" d="M1051.34,1041.32a1.13,1.13,0,0,1-.12.18C1051.38,1041.4,1051.46,1041.34,1051.34,1041.32Z"/>
<path class="cls-1" d="M1041.82,1047.46l.09,0C1042.24,1047.2,1042.1,1047.27,1041.82,1047.46Z"/>
<path class="cls-1" d="M1043.72,1047.82a4,4,0,0,0-1,.27A2.87,2.87,0,0,0,1043.72,1047.82Z"/>
<path class="cls-1" d="M1060.1,1043.27c1.84.27,3.49-.33,5.3-.14A11,11,0,0,0,1060.1,1043.27Z"/>
<path class="cls-1" d="M1047.59,1047.93c.32-.34.86-.62,0-.37.39-.52.81-1,1.24-1.54-1.29.27-1.66.64-1.65,1S1047.47,1047.74,1047.59,1047.93Z"/>
<polygon class="cls-1" points="433.74 1043.85 434.11 1043.51 432.57 1043.77 433.74 1043.85"/>
<polygon class="cls-1" points="516.52 1043.85 517.1 1043.51 514.68 1043.77 516.52 1043.85"/>
<polygon class="cls-1" points="506.23 1048.05 505.68 1049 506.35 1048.56 506.23 1048.05"/>
<polygon class="cls-1" points="544.29 1043.85 544.66 1043.51 543.13 1043.77 544.29 1043.85"/>
<polygon class="cls-1" points="536.02 1043.97 535.34 1044.14 535.82 1044.39 536.02 1043.97"/>
<polygon class="cls-1" points="733.59 1043.85 734.18 1043.51 731.74 1043.77 733.59 1043.85"/>
<polygon class="cls-1" points="720.44 1043.97 719.35 1044.14 720.11 1044.39 720.44 1043.97"/>
<polygon class="cls-1" points="963.64 1043.74 964.45 1043.4 961.07 1043.66 963.64 1043.74"/>
<polygon class="cls-1" points="995.39 1043.85 995.76 1043.51 994.23 1043.77 995.39 1043.85"/>
<polygon class="cls-1" points="987.12 1043.97 986.43 1044.14 986.91 1044.39 987.12 1043.97"/>
</svg>