<svg xmlns="http://www.w3.org/2000/svg" viewBox="0 0 1500 1500">
<defs><style>.cls-1{fill:#fff;}.cls-2{fill:none;}.cls-3{fill:#fffdf1;}</style></defs>
<path class="cls-1" d="M766.79,515.14l-.93,1.66C766.29,516.78,766.66,516.35,766.79,515.14Z"/>
<path class="cls-1" d="M767.88,937.63c.08.13.12.28.21.4C768,937.75,768,937.66,767.88,937.63Z"/>
<path class="cls-1" d="M735.49,580.05V580c-.09-.14-.14-.31-.23-.43Z"/>
<path class="cls-1" d="M738,494.87c-1.12,22.36-5.46,28.29-3.67,51.45-.34,11,.68,22.84,1.21,33.64,3.39,5.12.07,14.18,2.92,20.24l-1.91,2.35c1,2.09,1.63,4.55.6,6.65l-.56-.13c1.46,3.12.6,6.64,1.33,8.19l-.57-.13.26,3.79-.8-.65a39,39,0,0,1,1,16l2.33-.42c-2.58,10.58,2.24,14.44-.82,24l-.56-.13c6.14,12-4.14,19.07,1.7,31.49-.73-1.55-1.2.67-1.76.54.67,5.72,1,11.84,5.59,11.92-.05,4.17-1.42,3.4-3.18,4,2,0,2.84,3.59,3,6.85l-.78-1.5.7,9.33,3.77-1.84c-1.07,4.95-4.6,1.27-3.67,6l3.12-.07c-.6,6.84-5.33,10.87-7.62,17.5-1.28,27.55,6.75,57.12,1.3,82.76l-2.34,1.13c-3.43.5,5.09,7.06,1.92,8.05l1.57,3c-.61.84-1.26,2.61-2,1.13-.12,2.75.44,2.82,1.48,4.8l-2.13,3c-1.63,10.88,2.5,20.12,1.69,31.56-4.32,13.76-.27,39.62,2.08,54.53,5.17,20.94-8.45,45.34-2.56,66.78-.49.69.61,2.5,1,2.48l-.47,19.63s-.08,5.95.24,13.73c.15,3.89.41,8.25.82,12.53l.33,3.18c.12,1,.25,2.1.39,3a.64.64,0,0,0,.05.22h0l1.63.06,3.51.14,2.88.13,2.45.13,1.84.13c.21,0,.54.08.6.07a.4.4,0,0,0,.34,0c.14,0,.28,0,.6-.07s.53-.06.8-.07l2.22-.16,5.81-.3,3.37-.15h0a.22.22,0,0,1,0-.08l-.07-.29c-.09-.47-.18-.93-.28-1.39-.19-1-.39-1.9-.6-2.81-1.7-7.31-4.23-12.42-8.1-11.14-1.93.64-4.19,2.87-6.83,7.22a70.94,70.94,0,0,0-4.23,8.25c-.09.22-.18.45-.28.68s-.09.25-.13.41a2.93,2.93,0,0,0-.06.33v.47c6.18-.44-13.77,2.33,14.78,2,.84-2.9.36-1.58.53-2.17a3.51,3.51,0,0,1,.11-.56,2.07,2.07,0,0,1,.09-.24l.15-.4c.11-.23.21-.47.31-.71l1.25-2.85c.85-2,1.71-4.06,2.6-6.32l.75.49c1.83-10.78,2.23-17.55-1.54-25,4.61-1.18.47-8.84,2-11.35l.38.23c-3.55-6.55,2.93-13.51-.25-19.82.37.24,1.63.38,1.71,1.83-.59-4.61-1.62-10.9,1.06-11.25-.72-11,.5-26.35-3.8-33.39l.75.48c-2.9-4-.44-5.2-1.92-9.68.35-.25.53-.57.68-.52-2.86-4.37-.47-12.76-1.69-16.3l1.78-.23-.44-8.71-.37,3.26c-4.9-1.12,3.06-6.6-.13-12.91.61-5.91-10.2-12-7.82-18.11-2.29-2.93,3.74,2.57,2-1.81,2.56-.14,1.61,2,3.64.91-1.22-4.29,2.6-7.05.86-12.35l2-.22c-3.65-6.91,2.6-13-.88-17.65-1.66-7.12,5.89-4.79,2-12.21l2.68-2.89c.43-3.18-3.3-2.27-2-5.8,1.7.21,1.35-4.45,3-2.39,2.64-8-3.8-16.18.66-26.69-3.3-2.28-1.35-7.57-3.83-9.27,1.44-.28.21-10.59,3.35-4.66.25.51.21,1.41-.36,1.35l2,.71c3.68-6-2-10.88-1.5-16.81-.64,1.76-.46,4.09-1.81,2.54l.25-5.51,1.65,1.14,1-8.2-2,1.13c1-4,4.51-5.44,1.6-10-1.62-2-2.74,3.81-3.39-.43,1.38-5.36,3.46-13.41,4.06-20.26-2.3.64-2.22-1.2-2.69-3.09l2-.23c-2.78-7.26,4.38-2.67,2.16-9.88l1.39.63-4.16-1.9c-4-6.5,4.12-3.52-1.28-10.74.34,2.86-4.39,1.36-3.53-2.17l1.92.89c-.41-1.95-1.21-2.59-.82-3.89,1,1.16,2.8.61,2.47-2.26l2.41,1.92-3.55-5.41c2-4.19-.55-10.81,2.16-12.53,0,0,1.31-9-1.66-11,1.84,1.8,2.54-3.16,4.71-1.75-2.09-2.32-3.82-9.2-1.6-12l.25.52c2.26-10.19-3.14-17.41-.4-26.56-2.31.42-1.06-4.41-4-3.21-2.94-9.46,6-17.26-3.16-20.66-.5-4.3,2.13-5.1,2.6-7.32l.48,1a101.46,101.46,0,0,1-.65-16.39c-.89-3-5.13-3.45-4.12-8.81,1.69,1.73,1.38-.46,1.37-2.46.27,1.28.89,1.68,2-1a3.78,3.78,0,0,1-1.11-1.47c.13,0,.23-.13.41-.08-.6-3.34-1.12-2.76-1.35-1.2-.26-.08-.59.05-1.06.53,2.18-3.47-.16-9.67,2.74-10.1-.68-10.05-3.68-17.24-4.82-25.6,1.49-.94,2.82,1,3.4,3.44l-.55-5.94c2.14,0,1.23,3.41,1.66,5.24,3.46-7.07-3.47-14.57-.3-22.86l-1.69-1.71.28-.5c-.9,0-2.12-1.83-2.41-3.06,1.87-1.17,4.31.08,4.19-4,1.8-3.24-.9-9.22-1.91-13.46-.32,2.29-1.35,1.55-2,.56-.06-2.05,1.8-3.23,1-4.81l2.52-.2c-2.37.81-2.56-5.36-3.59-6.12,1.87-1.16,1.61,3.19,3,3.7-.23-8.23-.12-4.11-.35-12.33-1.89-4.39-2.38.79-4.59-1.31-.49-3.87-2.24-7.66-.72-12.1l-2.23,1.4c-1.72-7.28-1.45-11.64.84-16.52-1.11-3.38-2.2-6.41-3.17-9l-.09-.23,0-.1,0,0c-.12,0-.36,0-.53-.07s-.33,0-.39-.1-.18.09-.28.07-.44.09-.61.11c0,0,0,0,0,0l.06.1.11.22.42.92.81,1.79c.53,1.16,1,2.23,1.54,3.23a39,39,0,0,0,5.39,8.55c3.24,3.58,5.77,3.28,7.72,1.3s3.31-5.68,4.17-8.91c.43-1.61.74-3.11.93-4.22s.28-1.87.28-1.87c.07-.38.13-.77.19-1.23,0-.23,0-.47.06-.86,0-.18,0-.45,0-1l-.07-.72c0-.29-.09-.69-.14-1s0-.09-.15-.79a20.37,20.37,0,0,0-1.05-3.47c17.25,9.46-23.29-22.57-35.77-5.25a21.21,21.21,0,0,0-3.86,7.71c-.37,1.53-.2.88-.32,1.44l-.14.81-.11.77-.06.46-.12,1.13-.07.5-.12.7c-.06.38-.13.75-.2,1.13-.24,1.38-.44,2.63-.6,3.86a64.47,64.47,0,0,0-.51,7,81.8,81.8,0,0,0,.93,13C735,473,737.08,482.15,738,494.87Z"/>
</svg>