<?xml version="1.0" encoding="UTF-8" standalone="no"?>
<svg
   viewBox="0 0 1500 1500"
   version="1.1"
   id="svg1"
   sodipodi:docname="logo-white-wing-right-1.svg"
   inkscape:version="1.4.3 (0d15f75, 2025-12-25)"
   xmlns:inkscape="http://www.inkscape.org/namespaces/inkscape"
   xmlns:sodipodi="http://sodipodi.sourceforge.net/DTD/sodipodi-0.dtd"
   xmlns="http://www.w3.org/2000/svg"
   xmlns:svg="http://www.w3.org/2000/svg">
  <sodipodi:namedview
     id="namedview1"
     pagecolor="#000000"
     bordercolor="#000000"
     borderopacity="0.25"
     inkscape:showpageshadow="2"
     inkscape:pageopacity="0.0"
     inkscape:pagecheckerboard="0"
     inkscape:deskcolor="#d1d1d1"
     inkscape:zoom="2"
     inkscape:cx="782.25"
     inkscape:cy="728.25"
     inkscape:window-width="1920"
     inkscape:window-height="996"
     inkscape:window-x="0"
     inkscape:window-y="0"
     inkscape:window-maximized="1"
     inkscape:current-layer="svg1" />
  <defs
     id="defs1">
    <style
       id="style1">.cls-1{fill:#fff;}</style>
    <clipPath
       id="z">
      <polygon
         points="768,727 967,727 1072,577 1500,0 768,0"
         id="polygon1" />
    </clipPath>
  </defs>
  <g
     clip-path="url(#z)"
     id="g1">
    <path
       id="path1"
       class="cls-1"
       d="m 1007.6797,524.36719 a 50.58,50.58 0 0 0 -5.5391,0.61328 51.78,51.78 0 0 0 -16.24998,5.66992 64,64 0 0 0 -5.58984,3.46875 l -4.60156,3.10156 c -3,2.08 -5.99938,4.16899 -8.85938,6.20899 -5.72,4.09 -10.99968,8.00054 -15.42968,11.31054 -23.88,20.62 -63.58039,23.18 -87.65039,45 -1.2,0 -2.85961,2.45891 -2.59961,2.87891 l -25.58985,13.54102 c 0,0 -123.45,66.82 -13,46 l -0.17969,1.16015 c 15,-5.72 23.90993,-10.13054 31.16993,-19.56054 4.31,4.2 11.65859,-5.8 15.80859,-6 l -0.0801,0.58007 c 6.29,-8.57 19.18039,-6.45898 25.40039,-14.45898 -0.0913,0.52962 0.40086,1.80972 -0.90625,2.88086 5.52888,-3.90886 12.69879,-9.20447 14.7168,-6.58203 13.74,-8.65 34.26023,-18.3 40.74023,-28 l -0.16992,1.16015 c 3.41,-6 6.43035,-4.2 11.32031,-9 0.53,0.21 1.05032,0.18086 1.07032,0.38086 3.9,-6.26 16.18,-9.63976 20,-13.50976 l 1.3789,1.77929 11,-6.68945 -4.42968,1.91016 c -0.76,-3.08 1.8289,-3.42 5.3789,-4 a 27.63,27.63 0 0 0 5.74024,-1.39063 5.94,5.94 0 0 0 3.4004,-2.40039 4.27,4.27 0 0 0 1.8496,-0.88086 14.65,14.65 0 0 0 1.8105,-1.64844 41.63,41.63 0 0 1 4.4903,-4.30078 14,14 0 0 1 6,-2.85937 6.56,6.56 0 0 1 5.7402,1.54883 c 2.34,-0.46 1.07,0.21984 0,1.08984 -1.07,0.87 -1.8805,1.94133 0.9395,2.11133 -1.37,2.84 -3,0.78961 -3,3.59961 2.34,0.3 3.53,2.07078 4.5,3.80078 0.97,1.73 1.8004,3.44937 4.1504,4.85937 l -1.92,1.59961 a 5.42,5.42 0 0 1 3.459,3.16993 8.92,8.92 0 0 1 0.4414,4.25976 c 0,0.68 -0.22,1.37 -0.25,2 a 9.82,9.82 0 0 0 -0.1699,1.83008 3.64,3.64 0 0 0 0,0.87109 3.15,3.15 0 0 0 0.09,0.41992 l 0.1192,0.69922 a 8.45,8.45 0 0 0 1.0703,2.66993 c 1.88,10.54 -7.5008,6.93117 -2.8008,17.95117 l -3.4394,4.19922 c -0.61,4.68 4.0693,3.41984 2.3593,8.58984 -2.11,-0.35 -1.79,6.53094 -3.75,3.46094 -3.5,11.7 4.3205,23.93812 -1.5195,39.32812 4.07,3.43 1.4908,11.18024 4.5508,13.74024 -1.8,0.38 -0.5408,15.61078 -4.3008,6.80078 -0.31,-0.76 -0.2293,-2.09 0.4707,-2 l -2.4297,-1.08008 c -4.75,8.75 2.2895,16.08055 1.4395,24.81055 0.85,-2.58 0.6898,-6.00118 2.3398,-3.70117 l -0.459,8.11132 -2,-1.7207 -1.3906,12.07031 2.5703,-1.62109 c -1.4,5.89 -5.77,7.91062 -2.25,14.64062 2,3.05 3.5188,-5.55078 4.2188,0.69922 -1.86,7.89 -4.6699,19.70125 -5.5899,29.78125 2.89,-0.9 2.7413,1.81914 3.2813,4.61914 l -2.5,0.29102 c 3.286,10.75701 -5.5203,3.85573 -2.961,14.48047 l 3.4493,1.93945 c 4.78,9.67 -5.2497,5.08938 1.3203,15.85938 -0.36,-4.22 5.5215,-1.90047 4.3515,3.26953 l -2.3808,-1.34961 c 0.46,2.88 1.4499,3.84976 0.9199,5.75976 -1.27,-1.73 -3.4809,-0.99851 -3.1309,3.27149 l -3,-2.88086 4.3008,8 c -1.34,3.06 -1.2404,7.00008 -1.2304,10.58008 v 1.30078 0.6289 a 2.34,2.34 0 0 1 0,0.33008 4.21,4.21 0 0 1 -0.2286,1.07031 1.94,1.94 0 0 1 -1.6718,1.16016 l -0.1094,0.21875 c -0.08,0.14 -0.1298,0.3618 -0.2598,0.5918 a 6.76,6.76 0 0 0 -0.3398,0.82812 8.34,8.34 0 0 0 -0.3809,1 4.91,4.91 0 0 0 0.1055,4.37891 c -0.5952,-0.94889 -1.4902,-0.95825 -2.3945,-1.10742 a 3.59,3.59 0 0 1 -2.7207,-1.54102 4.24,4.24 0 0 1 -0.17,4.24024 2.36,2.36 0 0 1 -3.5488,0.81054 l 0.1289,-0.41015 a 10.38,10.38 0 0 0 -3.6894,0.35937 c -1.06,0.3 -2.0903,0.75 -3.2403,1 a 6.29,6.29 0 0 1 -3.5703,0 c -0.3,-0.13 -0.5889,-0.25039 -0.8789,-0.40039 -0.29,-0.15 -0.5405,-0.38937 -0.81054,-0.60937 l -0.90039,-0.68946 -1,-0.79101 c -0.63,-0.55 -1.24938,-1.12024 -1.85938,-1.74024 -1,2.79 -6.26039,-2.20867 -6.65039,1.86133 -13.84,-4 -18.00063,-19.50102 -28.14062,-12.29101 -5.76,-2.73001 -5.07985,-6.15961 -7.58985,-8.34961 l 1.61133,0.25976 c -10.68,-5.3 -13.69063,-7.00023 -21.14063,-11.74023 -4.35,-1.31 -7.66929,2.89047 -13.77929,-2.26953 3.27,-0.5 0.29953,-1.82008 -2.23047,-3.33008 1.79,0.68 2.68,0.31937 0.0801,-2.89063 a 5.61,5.61 0 0 1 -2.58008,0.0703 c 0.06,-0.16 -3.1e-4,-0.35001 0.17969,-0.5 -4.62,-1.89 -4.22039,-0.88876 -2.40039,0.53124 -0.27,0.22002 -0.31,0.66907 0,1.53907 -3,-5 -12.33,-7.16985 -11,-10.58985 -13.15,-6.9 -24.17071,-9.12976 -35.47071,-14.25976 -0.23,-2.31 3.09125,-2.25 6.53125,-1 l -8,-3.83008 c 1.44,-2.26 5.10922,1.25945 7.69922,2.18945 -6.72,-9.08 -20.65961,-7.33 -29.09961,-17 l -3.25976,0.52149 -0.44922,-0.68164 c -0.54,1 -3.68016,0.87976 -5.41016,0.25976 -0.29,-2.89 2.85961,-4.55906 -2.40039,-7.53906 -2.95,-4.39 -12.23975,-6.00039 -18.25977,-8.15039 2.69003,2.07 1.08993,2.63008 -0.58007,2.58008 -2.63,-1.48 -2.93118,-4.37875 -5.45117,-4.71875 l 1.02539,-2.13282 c -1.63978,1.6164 -8.22848,-1.97632 -9.6543,-1.49804 -0.28,-2.89 5.05937,0.69055 6.60937,-0.43946 l -2.53125,-1.4375 c -0.54265,0.30117 -1.24814,0.51299 -2.12109,0.58204 -2.73475,0.2163 -5.47901,0.27123 -8.2207,0.33203 -2.85858,0.0577 -5.71711,0.0872 -8.57618,0.10742 -2.34522,0.0152 -4.69182,0.0185 -7.0371,0.0215 -2.31581,0.002 -4.63145,0.002 -6.94727,0.002 -2.38257,0.14019 -4.65552,-0.21832 -6.83984,-1.16016 -0.9342,-0.43044 -1.76552,-1.01275 -2.54688,-1.67383 -2.71595,-2.29789 -1.74441,-4.95653 0.38477,-5.04297 0.1478,-0.006 0.30091,-2.3e-4 0.45898,0.0195 -0.58728,-1.29333 0.20978,-2.78265 2.25,-3.05273 0.36198,-0.87004 1.38619,-1.56043 3.00586,-1.56641 0.0655,-2.4e-4 0.13181,-5e-5 0.19922,0.002 -1.67799,-0.35289 -1.39329,-1.05718 0.33203,-3.56836 a 16.93,16.93 0 0 1 -1.78125,-4.31446 14.63,14.63 0 0 1 0.95117,-9.80078 37.07,37.07 0 0 1 -1.45117,-6.40039 38.25,38.25 0 0 1 -0.28906,-6.17968 42,42 0 0 1 1.84961,-10.91993 c 2,-6.49 4.7807,-11.15984 6.4707,-14.58984 0.44,-0.85 0.81914,-1.63914 1.11914,-2.36914 a 4.21,4.21 0 0 0 0.32031,-1 c 0.07,-0.3 0.12016,-0.59133 0.16016,-0.86133 a 5.46,5.46 0 0 0 -0.25,-2.7793 c -0.6,-1.5 -1.99914,-2.33093 -3.86914,-2.71093 a 20.73,20.73 0 0 0 -4.23047,0.55078 30.23,30.23 0 0 0 -5,1.75976 41,41 0 0 0 -9.95117,6.49024 48.89,48.89 0 0 0 -7,7.58984 c -0.83,1.07 -1.38836,2.00063 -1.81836,2.64063 l -0.64063,1 a 54,54 0 0 0 -8.41992,35.45898 55.68,55.68 0 0 0 13.35938,30.26953 59.24,59.24 0 0 0 12.70117,10.95117 c 1.2,0.74 2.38844,1.52016 3.64844,2.16016 l 1.88086,1 0.4707,0.25 0.4082,0.19922 0.60156,0.25 5,2.11133 c 6.72002,2.96 14.10016,6.28841 22.41016,10.64844 27.54,18.12999 32.24969,27.27015 62.67969,42.91015 13.75,8.74 29.29906,16.60094 43.28906,24.21094 8.65,0.25 18.00094,10.68047 27.46094,12.23047 l 1.74023,3.83984 c 3.27,0.54 6.7893,1.68844 8.7793,4.39844 l -0.51953,0.49023 c 4.88,0.81 8.76922,4.41078 11.19922,4.80078 l -0.51953,0.5 5,2.60938 -1.33008,0.36133 a 67.82,67.82 0 0 1 20.83984,11.10937 l 1,-2.81054 c 0.73,0.68 1.45039,1.30086 2.15039,1.88085 l 1,0.83985 0.50977,0.38867 0.76953,0.51172 c 1.08,0.68 2.11945,1.34867 3.18945,1.88867 1.07,0.54 2.13164,1.05024 3.18164,1.49024 a 42.6,42.6 0 0 0 12.24024,2.88085 84.5,84.5 0 0 0 12.04886,0.18946 c 4.2,-0.19 8.7407,-0.49922 14.2207,-1.19922 l -0.08,0.75976 c 3.05,-1.94 5.7591,-3.75 8.2891,-5.5 2.53,-1.75 4.8914,-3.41998 7.1914,-5 a 95.2,95.2 0 0 0 12.6289,-10.57031 40.51,40.51 0 0 0 9.3105,-14.46093 33.52,33.52 0 0 0 1.9199,-9.22852 34.5,34.5 0 0 0 -0.08,-5 c -0.1,-0.84 -0.2309,-1.69125 -0.3809,-2.53125 l -0.2402,-1.2793 a 6.71,6.71 0 0 0 -0.2325,-0.71289 c 0.1922,0.43558 0.3751,0.59143 0.543,0.66211 0.19,0.08 0.3708,-0.19922 0.5508,-0.44922 0.36,-0.5 0.69,-1.26015 1,-1.16015 -0.69,-8.45 -0.9997,-17.46922 -6.6797,-17.69922 0.17,-6.14 1.8601,-5.00024 4.0801,-5.74024 -2.51,0 -3.461,-5.36015 -3.541,-10.16015 L 1059,793 l -0.6309,-13.76953 -4.7597,2.62891 c 1.48,-7.28 5.78,-1.76954 4.75,-8.76954 h -3.8985 c 0.92,-10.08 6.94,-15.9089 10,-25.6289 2.31,-40.57 -7.0002,-84.34 0.5098,-122 l 3,-1.6211 c 4.3,-0.66 -6.1814,-10.52062 -2.1914,-11.89062 l -1.8887,-4.42969 c 0.79,-1.22 1.6501,-3.80937 2.5801,-1.60937 0.23,-4.06 -0.4707,-4.16938 -1.7207,-7.10938 l 2.7305,-4.32031 a 67.05,67.05 0 0 0 0.5996,-11.66016 l -0.09,-2 -0.1504,-2.18945 c -0.17,-1.46 -0.3689,-2.91156 -0.6289,-4.35156 a 52.89,52.89 0 0 0 -2.4004,-8.47852 59.06,59.06 0 0 0 -8.6503,-15.37109 74.9,74.9 0 0 0 -12.8497,-13 39.92,39.92 0 0 0 -10.25,-7.67969 46.85,46.85 0 0 0 -14.2714,-4.76953 50.58,50.58 0 0 0 -11.1094,-0.61328 z M 809.38477,732.32812 c 0.17731,-0.17478 0.29691,-0.41041 0.3457,-0.71874 z m 209.70503,46.38282 -1.7089,-0.96094 1.7187,1 v -0.002 -0.002 -0.002 -0.002 -0.002 -0.002 -0.002 -0.002 -0.002 l -0,-0.002 c -0,-0.003 -0.01,-0.007 -0.01,-0.01 v -0.002 -0.002 -0.002 -0.002 z M 765.76953,724.09375 c 0.11556,0.0662 0.2335,0.1293 0.35547,0.1875 0.23794,0.11892 0.4795,0.22001 0.72461,0.30469 -0.0151,-0.11 -0.0203,-0.22263 -0.0156,-0.33594 -0.35445,-0.0553 -0.70879,-0.10786 -1.06445,-0.15625 z" />
  </g>
</svg>
