<svg xmlns="http://www.w3.org/2000/svg" viewBox="0 0 1500 1500">
<defs><style>.cls-1{fill:#6b7051;}.cls-2{fill:none;}</style></defs>
<path class="cls-1" d="M833.38,660.09l1.51,2.26C835.14,661.87,834.84,661.16,833.38,660.09Z"/>
<path class="cls-1" d="M955.78,495.09a4.49,4.49,0,0,0-.38.51C955.72,495.31,955.79,495.18,955.78,495.09Z"/>
<path class="cls-1" d="M895.31,742.85l-.11-.07c-.24,0-.48-.08-.7-.08Z"/>
<path class="cls-1" d="M789.23,675.66c27.54,18.13,32.25,27.27,62.68,42.91,13.75,8.74,29.3,16.6,43.29,24.21,8.65.25,18,10.68,27.46,12.23l1.74,3.84c3.27.54,6.79,1.69,8.78,4.4l-.52.49c4.88.81,8.77,4.4,11.2,4.8l-.52.5,4.95,2.61L947,772a67.82,67.82,0,0,1,20.84,11.11l1-2.81c.73.68,1.45,1.3,2.15,1.88L972,783l.51.39.77.51c1.08.68,2.12,1.35,3.19,1.89s2.13,1,3.18,1.49a42.6,42.6,0,0,0,12.24,2.88,84.5,84.5,0,0,0,12,.19c4.2-.19,8.74-.5,14.22-1.2l-.08.76c3.05-1.94,5.76-3.75,8.29-5.5s4.89-3.42,7.19-5a95.2,95.2,0,0,0,12.63-10.57,40.51,40.51,0,0,0,9.31-14.46,33.52,33.52,0,0,0,1.92-9.23,34.5,34.5,0,0,0-.08-5c-.1-.84-.23-1.69-.37-2.54-.09-.42-.17-.84-.25-1.27a6.71,6.71,0,0,0-.31-.9c.22.58.43.77.62.85s.37-.2.55-.45c.36-.5.69-1.26,1-1.16-.69-8.45-1-17.47-6.68-17.7.17-6.14,1.86-5,4.08-5.74-2.5,0-3.46-5.36-3.54-10.16l.93,2.22-.63-13.77-4.75,2.63c1.47-7.28,5.77-1.77,4.74-8.77l-3.9,0c.93-10.08,6.94-15.91,10-25.63,2.31-40.57-7-84.34.51-122l3-1.62c4.3-.66-6.18-10.52-2.19-11.89l-1.89-4.43c.79-1.22,1.65-3.81,2.58-1.61.23-4.06-.47-4.17-1.72-7.11l2.73-4.32a67.05,67.05,0,0,0,.6-11.66l-.09-2-.15-2.19c-.17-1.46-.37-2.91-.63-4.35a52.89,52.89,0,0,0-2.4-8.48,59.06,59.06,0,0,0-8.65-15.37,74.9,74.9,0,0,0-12.85-12.95,39.75,39.75,0,0,0-10.25-7.68,46.85,46.85,0,0,0-14.27-4.77,50.58,50.58,0,0,0-16.65,0,51.78,51.78,0,0,0-16.25,5.67,64,64,0,0,0-5.59,3.47l-4.6,3.1c-3,2.08-6,4.17-8.86,6.21-5.72,4.09-11,8-15.43,11.31-23.88,20.62-63.58,23.18-87.65,45-1.2,0-2.86,2.46-2.6,2.88l-25.59,13.54s-123.45,66.82-13,46l-.18,1.16c14.95-5.72,23.91-10.13,31.17-19.56,4.31,4.2,11.66-5.8,15.81-6l-.08.58c6.29-8.57,19.18-6.46,25.4-14.46-.1.58.5,2.06-1.33,3.18,5.58-3.93,13.07-9.57,15.14-6.88,13.74-8.65,34.26-18.3,40.74-28l-.17,1.16c3.41-6,6.43-4.2,11.32-9,.53.21,1,.18,1.07.38,3.9-6.26,16.18-9.64,20-13.51l1.38,1.78,11-6.69-4.43,1.91c-.76-3.08,1.83-3.42,5.39-4a27.7,27.7,0,0,0,5.73-1.39,5.94,5.94,0,0,0,3.4-2.4,4.27,4.27,0,0,0,1.85-.88,14,14,0,0,0,1.81-1.65,41.63,41.63,0,0,1,4.49-4.3,14,14,0,0,1,6-2.86,6.56,6.56,0,0,1,5.74,1.55c2.35-.46,1.07.22,0,1.09s-1.88,1.94.94,2.11c-1.37,2.84-3,.79-3,3.6,2.34.3,3.53,2.07,4.5,3.8s1.8,3.45,4.15,4.86l-1.92,1.6a5.42,5.42,0,0,1,3.46,3.17,8.92,8.92,0,0,1,.44,4.26c0,.68-.22,1.37-.25,2a9.82,9.82,0,0,0-.17,1.83,3.64,3.64,0,0,0,0,.87,3.15,3.15,0,0,0,.09.42l.12.7a8.31,8.31,0,0,0,1.07,2.66c1.88,10.55-7.5,6.94-2.8,18l-3.44,4.2c-.61,4.68,4.08,3.42,2.36,8.59-2.11-.35-1.79,6.53-3.75,3.46-3.5,11.7,4.33,23.94-1.52,39.33,4.07,3.43,1.49,11.18,4.55,13.74-1.8.38-.54,15.61-4.3,6.8-.31-.76-.23-2.09.47-2l-2.43-1.08c-4.75,8.75,2.29,16.08,1.44,24.81.85-2.58.69-6,2.34-3.7l-.46,8.11-2-1.72-1.39,12.07,2.57-1.62c-1.4,5.89-5.77,7.91-2.25,14.64,2,3,3.52-5.55,4.22.7-1.86,7.89-4.67,19.7-5.59,29.78,2.89-.9,2.74,1.82,3.28,4.62l-2.5.29c3.29,10.77-5.54,3.84-3,14.52l-1.72-1,5.16,2.9c4.78,9.67-5.25,5.09,1.32,15.86-.36-4.22,5.52-1.9,4.35,3.27l-2.38-1.35c.46,2.88,1.45,3.85.92,5.76-1.27-1.73-3.48-1-3.13,3.27l-3-2.88,4.3,8c-1.34,3.06-1.24,7.05-1.23,10.58v1.3c0,.21,0,.42,0,.63a2.34,2.34,0,0,1,0,.33,4.21,4.21,0,0,1-.23,1.07,1.94,1.94,0,0,1-1.67,1.16l-.11.22c-.08.14-.13.35-.26.59a6.76,6.76,0,0,0-.34.83,8.34,8.34,0,0,0-.38,1,4.91,4.91,0,0,0,.23,4.6c-.59-1.17-1.55-1.17-2.52-1.33a3.62,3.62,0,0,1-2.72-1.54,4.26,4.26,0,0,1-.16,4.24,2.37,2.37,0,0,1-3.56.81l.13-.41a10.38,10.38,0,0,0-3.69.36c-1,.3-2.09.75-3.24,1a6.29,6.29,0,0,1-3.57,0c-.3-.13-.59-.25-.88-.4s-.54-.39-.81-.61l-.9-.7-1-.78c-.63-.55-1.25-1.12-1.86-1.74-1,2.79-6.26-2.21-6.65,1.86-13.84-4-18-19.5-28.14-12.29-5.76-2.73-5.08-6.16-7.59-8.35l1.61.26c-10.68-5.3-13.69-7-21.13-11.74-4.36-1.31-7.68,2.89-13.79-2.27,3.27-.5.3-1.82-2.23-3.34,1.79.69,2.68.33.08-2.88a5.61,5.61,0,0,1-2.58.07c.06-.16,0-.35.18-.5-4.62-1.89-4.22-.89-2.4.53-.27.22-.31.67,0,1.54-3-5-12.33-7.17-11-10.59-13.15-6.9-24.16-9.13-35.47-14.26-.23-2.31,3.09-2.25,6.53-1L860,677.33c1.44-2.26,5.11,1.26,7.7,2.19-6.72-9.08-20.66-7.33-29.1-17l-3.26.51-.45-.67c-.54,1-3.67.88-5.41.26-.29-2.89,2.86-4.56-2.4-7.54-3-4.39-12.24-6-18.26-8.15,2.69,2.07,1.09,2.63-.58,2.58-2.63-1.48-2.93-4.38-5.45-4.72l1.37-2.85c-.5,3.16-8.42-1.31-10-.78-.28-2.89,5.06.69,6.61-.44l-15.84-9c-6.77-1.29-.52,3.16-4.59,3.94-.66-.3-1.32-.58-2-.85l-.89-.34-.82-.3a13.15,13.15,0,0,1-1.64-.68,10.49,10.49,0,0,1-1.6-.82,9.64,9.64,0,0,1-4.64-5.76,29.29,29.29,0,0,0-1.2,3,20.32,20.32,0,0,1-4.46-4.86,16.93,16.93,0,0,1-2.29-5.13,14.63,14.63,0,0,1,1-9.8,37.07,37.07,0,0,1-1.45-6.4,38.25,38.25,0,0,1-.29-6.18,42,42,0,0,1,1.85-10.92c2-6.49,4.78-11.16,6.47-14.59.44-.85.82-1.64,1.12-2.37a4.21,4.21,0,0,0,.32-1c.07-.3.12-.59.16-.86a5.46,5.46,0,0,0-.25-2.78c-.6-1.5-2-2.33-3.87-2.71a20.73,20.73,0,0,0-4.23.55,30.23,30.23,0,0,0-4.95,1.76,41,41,0,0,0-10,6.49,48.27,48.27,0,0,0-7,7.59c-.84,1.07-1.4,2-1.83,2.64l-.64,1a54,54,0,0,0-8.42,35.46,55.68,55.68,0,0,0,13.36,30.27,59.24,59.24,0,0,0,12.7,11c1.2.74,2.39,1.52,3.65,2.16l1.88,1,.47.25.41.2.6.25,4.95,2.11C773.54,668,780.92,671.32,789.23,675.66Z"/>
<path class="cls-1" d="M795.56,1045.12l.34.13-.15-.14Z"/>
<path class="cls-1" d="M795.75,1045.11c.24,0,.48,0,.72,0C795.53,1044.8,795.54,1044.91,795.75,1045.11Z"/>
<path class="cls-1" d="M848.51,1049.58c.17,1.25.67.93,1.13,1C849.07,1048.74,849.16,1050.69,848.51,1049.58Z"/>
<path class="cls-1" d="M969.08,1048.87c.15-.67.39-1.55.54-2.56a9.3,9.3,0,0,0-.07-3.29l-.43.09h.35a7,7,0,0,1-.35,2.8A6.22,6.22,0,0,0,969.08,1048.87Z"/>
<path class="cls-1" d="M953.35,1049.17l3.19-5.86h.21c.48.25.39.37.07.43a6.25,6.25,0,0,1-.3.77l-.5,1.07a19.51,19.51,0,0,0-1.08,2.65l1-2c.24-.51.47-1,.55-1.2a6.79,6.79,0,0,0,.4-1.24c.22-.06.46-.13.85-.21.2,0,.43-.09.73-.13l1.21-.15a55.18,55.18,0,0,0,6.41-.61,42.34,42.34,0,0,1-5.88.07c-.77,0-1.39-.11-2.09-.18l-2.12-.19c-.26.46-.53.94-.79,1.46l-.39.79c-.1.23-.21.47-.31.72A23.37,23.37,0,0,0,953.35,1049.17Z"/>
<path class="cls-1" d="M896.42,1043.44a5.41,5.41,0,0,0,1.85,0c.32.31.54.07.86.14-.18-.37-.32-.68-.41-.87-1.5,0-1.38.14-1.28.29S897.59,1043.34,896.42,1043.44Z"/>
<path class="cls-1" d="M1012.81,1046.38c-.13.25-.28.1-.44-.08s-.32-.37-.46-.4a3,3,0,0,0,0,.47,3.6,3.6,0,0,0,0,.49,5.48,5.48,0,0,0,.23.77,2.67,2.67,0,0,1,.19,1.72c-.53-2.54-.39.92-.78,1.75.63-.49,1.06-1.43,1.24-3.32l-.42-.21C1012.36,1046.56,1012.62,1047.09,1012.81,1046.38Z"/>
<path class="cls-1" d="M1006.09,1044.09l1.5-.62a4.62,4.62,0,0,0,1.41.35c.7.12,1,.28.88.6.52-.09.74-.37,1.39-.54.13.17.19.32.37.36a.41.41,0,0,0,.23.49c.06-.37.11-.71.16-.88-.78-.16-1.17-.28-1.59-.38a14.78,14.78,0,0,0-2.32-.25c.07-.14.46-.12.85-.09l-2-.35C1006.75,1043.56,1004.12,1043.61,1006.09,1044.09Z"/>
<path class="cls-1" d="M1003.12,1043.62c1.62,0,2.51-.63,1.71-1l-3.45.5C1002.39,1043.07,1003.62,1043,1003.12,1043.62Z"/>
<path class="cls-1" d="M1000.72,1043.61c-.64-.33-1.7-1-2.81-.39C999.76,1043.12,998.89,1044.07,1000.72,1043.61Z"/>
<path class="cls-1" d="M989,1043l3.19.42c.6.83-1.53.26-2.51.63,2.72.17,1.85-.1,3.91-.61a11.86,11.86,0,0,0,2.9-.61C992.35,1043.51,992.15,1041.49,989,1043Z"/>
<path class="cls-1" d="M981.43,1043.44a4,4,0,0,0-.33,1.79c0,.33,0,.67,0,1a6.31,6.31,0,0,0,.14.75,7.45,7.45,0,0,1,.27,3c-.06-.23-.14-.07-.25-.53l.1,1.86-.23.08c.15,0,.27.08.38.25a4.68,4.68,0,0,1,.31.84,5.55,5.55,0,0,0,.58,1.55c.32-1.13.13-1.2,0-1.39s-.35-.4,0-1.24a5.19,5.19,0,0,0,.89.88,3.66,3.66,0,0,0-.23-.52,5.36,5.36,0,0,0-.24-.48c-.17-.28-.34-.48-.5-.73-.07-1.24.27-.87.49-1-.35-1.39-1.21-1.34-1-3.54.25-.77.46-.45.57-.36s.13.08,0-1.13c-.58.5-.38-.65-.29-1.81a3.37,3.37,0,0,0,1.83-.16,6.89,6.89,0,0,1,2.25.49c.45.21.63.44.45.61,0-.73,1.47-1.35,2.77-1.55l-2.9.6-.5-.42a2.41,2.41,0,0,0-.56-.43,16.82,16.82,0,0,1-3.9.3c0,.49,0,1-.06,1.55Z"/>
<path class="cls-1" d="M1051.22,1041.5c-.24.13-.64.32-.81.44A1.36,1.36,0,0,0,1051.22,1041.5Z"/>
<path class="cls-1" d="M1045.83,1045.47a9.33,9.33,0,0,0-1.48,1.1Z"/>
<path class="cls-1" d="M1052.54,1044.61a1,1,0,0,0,.45.05A1.73,1.73,0,0,0,1052.54,1044.61Z"/>
<path class="cls-1" d="M1051.34,1041.32a1.13,1.13,0,0,1-.12.18C1051.38,1041.4,1051.46,1041.34,1051.34,1041.32Z"/>
<path class="cls-1" d="M1041.82,1047.46l.09,0C1042.24,1047.2,1042.1,1047.27,1041.82,1047.46Z"/>
<path class="cls-1" d="M1043.72,1047.82a4,4,0,0,0-1,.27A2.87,2.87,0,0,0,1043.72,1047.82Z"/>
<path class="cls-1" d="M1060.1,1043.27c1.84.27,3.49-.33,5.3-.14A11,11,0,0,0,1060.1,1043.27Z"/>
<path class="cls-1" d="M1047.59,1047.93c.32-.34.86-.62,0-.37.39-.52.81-1,1.24-1.54-1.29.27-1.66.64-1.65,1S1047.47,1047.74,1047.59,1047.93Z"/>
</svg>