<svg xmlns="http://www.w3.org/2000/svg" viewBox="0 0 1500 1500">
<defs><style>.cls-1{fill:#fff;}</style>
<clipPath id="z"><polygon points="1500,725 535,725 430,575 0,0 1500,0"/></clipPath></defs>
<g clip-path="url(#z)">
<path class="cls-1" d="M671.84,698.35l-1.54-2.24C670.06,696.59,670.37,697.3,671.84,698.35Z"/>
<path class="cls-1" d="M552.06,865.26a4.6,4.6,0,0,0,.38-.52C552.13,865,552.05,865.17,552.06,865.26Z"/>
<path class="cls-1" d="M608.62,616.58l.11.06c.24,0,.48.08.7.07Z"/>
<path class="cls-1" d="M715.74,682.08c-27.82-17.69-32.67-26.76-63.34-41.92-13.89-8.52-29.56-16.13-43.67-23.52-8.66-.11-18.13-10.4-27.65-11.8l-1.8-3.8c-3.27-.5-6.82-1.59-8.85-4.26l.52-.51c-4.9-.73-8.85-4.26-11.28-4.62l.51-.51-5-2.52,1.33-.39a67.58,67.58,0,0,1-21-10.77l-.93,2.81c-.74-.66-1.47-1.27-2.18-1.84l-1.06-.82-.52-.38c-.2-.14-.53-.34-.78-.5a36.61,36.61,0,0,0-3.22-1.84c-1.09-.53-2.14-1-3.2-1.44a42.83,42.83,0,0,0-12.29-2.69,83.4,83.4,0,0,0-12,0c-4.21.26-8.73.64-14.21,1.42l.07-.76c-3,2-5.7,3.85-8.21,5.64s-4.83,3.49-7.1,5.14A94.54,94.54,0,0,0,457.37,593a40.57,40.57,0,0,0-9.08,14.61,31,31,0,0,0-1.2,4.48,29.76,29.76,0,0,0-.57,4.77,33.24,33.24,0,0,0,.16,5c.11.84.25,1.68.42,2.53.08.42.17.84.26,1.27s.21.59.32.9c-.22-.58-.43-.77-.62-.84s-.38.2-.55.45c-.35.51-.67,1.28-1,1.18.83,8.44,1.27,17.46,7,17.59-.08,6.15-1.79,5-4,5.81,2.5,0,3.54,5.3,3.69,10.1l-1-2.21.85,13.76,4.71-2.7c-1.35,7.3-5.75,1.85-4.61,8.84l3.91-.09c-.77,10.09-6.69,16-9.57,25.78-1.67,40.6,8.29,84.23,1.42,122L445,827.84c-4.29.73,6.34,10.42,2.38,11.86l2,4.39c-.77,1.24-1.59,3.84-2.55,1.65-.17,4.07.53,4.17,1.83,7.09l-2.67,4.36a66.74,66.74,0,0,0-.41,11.67l.12,2,.19,2.18c.19,1.46.41,2.91.7,4.35a52.15,52.15,0,0,0,2.53,8.44,59.33,59.33,0,0,0,8.89,15.23A75.56,75.56,0,0,0,471,913.82a39.93,39.93,0,0,0,10.38,7.51,46.58,46.58,0,0,0,14.34,4.55,50.7,50.7,0,0,0,16.64-.31,51.76,51.76,0,0,0,16.16-5.93,64.43,64.43,0,0,0,5.53-3.55l4.55-3.17c3-2.13,5.94-4.27,8.77-6.35,5.65-4.18,10.85-8.18,15.25-11.56,23.55-21,63.2-24.17,86.93-46.33,1.19,0,2.82-2.51,2.55-2.92l25.38-14s122.37-68.75,12.26-46.21l.15-1.16C675,790.39,666.13,795,659,804.49c-4.37-4.13-11.57,6-15.71,6.23l.07-.58c-6.16,8.67-19.08,6.76-25.17,14.85.09-.57-.53-2,1.28-3.19-5.52,4-12.92,9.77-15,7.12-13.6,8.87-34,18.84-40.29,28.66l.15-1.16c-3.32,6.09-6.37,4.3-11.18,9.2-.53-.2-1-.16-1.08-.36-3.8,6.32-16,9.89-19.77,13.82l-1.41-1.76L520,884.19l4.4-2c.81,3.07-1.78,3.45-5.32,4.08a27.92,27.92,0,0,0-5.72,1.48,6,6,0,0,0-3.36,2.45,4.38,4.38,0,0,0-1.83.91,14.26,14.26,0,0,0-1.78,1.68,41.82,41.82,0,0,1-4.43,4.37,14,14,0,0,1-5.91,3,6.51,6.51,0,0,1-5.76-1.46c-2.34.5-1.07-.2,0-1.09s1.85-2-1-2.09c1.33-2.86,2.95-.84,2.92-3.64-2.34-.27-3.55-2-4.55-3.73s-1.85-3.43-4.23-4.8l1.89-1.63a5.37,5.37,0,0,1-3.5-3.12,8.78,8.78,0,0,1-.51-4.25c0-.68.19-1.37.22-2a9.71,9.71,0,0,0,.14-1.83,4.25,4.25,0,0,0-.06-.87c0-.14-.06-.28-.1-.42s-.08-.47-.14-.7a8.43,8.43,0,0,0-1.1-2.65c-2-10.51,7.38-7,2.52-18l3.36-4.26c.55-4.68-4.12-3.35-2.49-8.55,2.12.32,1.69-6.56,3.7-3.52,3.31-11.75-4.71-23.86.9-39.34-4.12-3.37-1.67-11.16-4.77-13.67,1.8-.41.29-15.62,4.19-6.87.32.76.26,2.09-.44,2l2.44,1.05c4.62-8.83-2.54-16-1.82-24.78-.81,2.59-.6,6-2.28,3.73l.33-8.11,2.06,1.68,1.21-12.09-2.55,1.67c1.31-5.92,5.64-8,2-14.68-2-3-3.43,5.61-4.23-.64,1.74-7.91,4.36-19.76,5.12-29.86-2.88.94-2.77-1.77-3.35-4.57l2.49-.32c-3.46-10.72,5.47-3.93,2.72-14.57l1.74.94-5.2-2.81c-4.94-9.6,5.16-5.18-1.58-15.84.43,4.21-5.49,2-4.4-3.21l2.4,1.32c-.51-2.87-1.51-3.83-1-5.74,1.29,1.71,3.49.9,3.08-3.32l3,2.83-4.42-8c1.29-3.08,1.12-7.06,1.06-10.59,0-.44,0-.88,0-1.3v-.63c0-.17,0-.22,0-.33a4.22,4.22,0,0,1,.22-1.07,1.93,1.93,0,0,1,1.65-1.19l.11-.22c.07-.14.12-.36.24-.6a6.76,6.76,0,0,0,.34-.83c.15-.29.23-.64.36-1a4.92,4.92,0,0,0-.3-4.59c.6,1.15,1.56,1.14,2.53,1.28a3.63,3.63,0,0,1,2.75,1.5,4.23,4.23,0,0,1,.1-4.24,2.36,2.36,0,0,1,3.54-.87l-.13.41a10.26,10.26,0,0,0,3.69-.41c1.05-.32,2.08-.79,3.22-1.09a6.4,6.4,0,0,1,3.58,0c.29.12.59.24.88.38s.55.39.81.6l.92.68c.32.25.65.51,1,.78q1,.79,1.89,1.71c.92-2.81,6.29,2.11,6.62-2,13.9,3.81,18.26,19.22,28.33,11.85,5.8,2.64,5.17,6.08,7.72,8.22l-1.61-.23c10.76,5.13,13.8,6.76,21.31,11.4,4.38,1.24,7.63-3,13.83,2.06-3.27.54-.28,1.82,2.28,3.3-1.8-.66-2.69-.28,0,2.88a5.61,5.61,0,0,1,2.58-.11c-.06.16,0,.35-.17.5,4.64,1.82,4.23.83,2.39-.57.26-.22.3-.67,0-1.53,3.07,4.91,12.44,7,11.17,10.41,13.26,6.69,24.31,8.75,35.69,13.7.27,2.31-3,2.3-6.52,1.13l7.92,3.79c-1.4,2.28-5.12-1.18-7.72-2.07,6.85,9,20.76,7,29.36,16.55l3.25-.57.46.67c.53-1,3.66-.94,5.41-.35.33,2.89-2.8,4.61,2.52,7.51,3,4.34,12.33,5.81,18.38,7.86-2.72-2-1.13-2.61.54-2.6,2.66,1.45,3,4.34,5.52,4.64l-1.32,2.88c.45-3.17,8.44,1.17,10,.61.33,2.89-5.07-.6-6.6.54l16,8.72c6.8,1.18.48-3.17,4.54-4,.65.29,1.32.55,2,.81l.9.33.82.29a13.79,13.79,0,0,1,1.65.65,11,11,0,0,1,1.61.8,9.66,9.66,0,0,1,4.74,5.69c.44-1,.79-2,1.14-3.07a19.9,19.9,0,0,1,4.54,4.78,17,17,0,0,1,2.37,5.1,14.6,14.6,0,0,1-.8,9.81,36.29,36.29,0,0,1,1.56,6.37,37.42,37.42,0,0,1,.38,6.18,42.06,42.06,0,0,1-1.68,11c-1.91,6.52-4.6,11.23-6.24,14.69-.42.86-.78,1.65-1.08,2.39a3.94,3.94,0,0,0-.3,1c-.07.3-.11.59-.15.87a5.6,5.6,0,0,0,.3,2.77c.62,1.49,2,2.3,3.91,2.64a19.75,19.75,0,0,0,4.22-.61,29.84,29.84,0,0,0,4.93-1.84,41.16,41.16,0,0,0,9.84-6.64,48.37,48.37,0,0,0,6.87-7.71c.82-1.08,1.37-2,1.79-2.66l.62-1a54,54,0,0,0,7.86-35.59,55.65,55.65,0,0,0-13.84-30.06,58.91,58.91,0,0,0-12.87-10.74c-1.21-.72-2.41-1.48-3.68-2.1l-1.89-1-.48-.24-.41-.19-.61-.24-5-2C731.55,689.52,724.13,686.29,715.74,682.08Z"/>
</g>
</svg>