<svg xmlns="http://www.w3.org/2000/svg" viewBox="0 0 1500 1500">
<defs><style>.cls-1{fill:#6b7051;}.cls-2{fill:none;}</style></defs>
<path class="cls-1" d="M761.22,425.44l-.93,1.66C760.72,427.08,761.09,426.65,761.22,425.44Z"/>
<path class="cls-1" d="M762.31,847.93c.08.13.12.28.21.4C762.44,848.05,762.38,848,762.31,847.93Z"/>
<path class="cls-1" d="M732.39,405.17c-1.13,22.36-5.46,28.29-3.68,51.45-.34,11.05.68,22.84,1.21,33.64,3.39,5.12.07,14.18,2.92,20.24l-1.91,2.35c1,2.09,1.63,4.55.6,6.65l-.56-.13c1.46,3.12.6,6.64,1.33,8.19l-.57-.13.26,3.79-.8-.65a39.2,39.2,0,0,1,1,16l2.32-.42c-2.58,10.58,2.24,14.44-.82,24l-.56-.13c6.14,12-4.14,19.07,1.7,31.49-.73-1.55-1.2.67-1.76.54.67,5.72,1,11.84,5.59,11.92,0,4.17-1.42,3.4-3.18,3.95,2,0,2.84,3.59,3,6.85l-.77-1.5.69,9.33,3.77-1.84c-1.07,5-4.6,1.27-3.67,6l3.12-.07c-.6,6.84-5.33,10.87-7.62,17.5-1.28,27.55,6.75,57.12,1.31,82.76l-2.35,1.13c-3.43.5,5.09,7.06,1.92,8l1.57,3c-.61.84-1.26,2.61-2,1.13-.12,2.75.44,2.82,1.48,4.8l-2.13,3c-1.63,10.88,2.51,20.12,1.69,31.56-4.32,13.76-.27,39.62,2.08,54.53,5.17,20.94-8.45,45.34-2.56,66.77-.49.7.61,2.51,1,2.49L735.44,933s-.08,5.95.24,13.73c.15,3.89.41,8.25.82,12.53l.33,3.18c.12,1,.25,2.1.39,3a.64.64,0,0,0,0,.22h0l1.64.06,3.5.14,2.88.13,2.45.13,1.84.13c.21,0,.54.08.61.07a.38.38,0,0,0,.33,0c.14,0,.28,0,.6-.07s.53-.06.8-.07l2.22-.16,5.81-.3,3.37-.15h0s0,0,0-.08l-.07-.29-.27-1.39c-.2-1-.39-1.9-.61-2.81-1.69-7.31-4.23-12.42-8.1-11.14-1.93.64-4.19,2.87-6.83,7.22a70.94,70.94,0,0,0-4.23,8.25l-.27.68a3.26,3.26,0,0,0-.14.41,2.93,2.93,0,0,0-.06.33v.47c6.19-.41-13.79,2.28,14.78,2,.84-2.9.36-1.59.53-2.17a3.51,3.51,0,0,1,.11-.56,2.07,2.07,0,0,1,.09-.24l.15-.4c.11-.23.21-.47.31-.71l1.25-2.85c.85-2,1.71-4.06,2.6-6.32l.75.49c1.84-10.78,2.23-17.55-1.54-25,4.61-1.18.47-8.84,2-11.35l.38.23c-3.55-6.55,2.93-13.51-.25-19.82.37.24,1.63.38,1.71,1.83-.59-4.61-1.62-10.9,1.06-11.25-.72-11,.5-26.35-3.8-33.39l.75.48c-2.9-4-.44-5.2-1.92-9.68.35-.25.53-.57.68-.52-2.86-4.37-.47-12.76-1.69-16.3l1.78-.23-.44-8.71-.37,3.26c-4.9-1.12,3.06-6.6-.13-12.91.61-5.91-10.2-12-7.82-18.12-2.29-2.92,3.74,2.58,2-1.8,2.56-.15,1.61,2,3.64.91-1.21-4.29,2.6-7,.86-12.35l2-.22c-3.65-6.91,2.6-13.05-.88-17.65-1.66-7.12,5.9-4.79,2-12.21l2.68-2.89c.43-3.18-3.3-2.27-2-5.8,1.7.21,1.35-4.45,3-2.39,2.64-8-3.8-16.18.67-26.69-3.31-2.28-1.36-7.57-3.84-9.27,1.44-.28.21-10.59,3.35-4.66.25.51.21,1.41-.35,1.35l2,.71c3.68-6-2.05-10.88-1.49-16.81-.65,1.76-.47,4.09-1.82,2.53l.25-5.5,1.65,1.14.95-8.2-2,1.13c1-4,4.51-5.44,1.6-10-1.62-2-2.74,3.81-3.38-.43,1.37-5.36,3.45-13.41,4-20.26-2.3.64-2.22-1.2-2.69-3.1l2-.22c-2.78-7.26,4.38-2.67,2.16-9.88l1.39.63-4.16-1.9c-4-6.5,4.12-3.52-1.28-10.74.34,2.86-4.39,1.36-3.53-2.17l1.92.89c-.41-2-1.21-2.59-.82-3.89,1,1.16,2.8.61,2.47-2.26l2.41,1.92-3.55-5.41c2-4.19-.55-10.81,2.16-12.53,0,0,1.31-9-1.66-11.05,1.84,1.8,2.54-3.16,4.71-1.75-2.09-2.32-3.82-9.2-1.6-12l.26.52c2.25-10.19-3.15-17.41-.41-26.56-2.31.42-1.06-4.41-4-3.21-2.94-9.46,6-17.26-3.16-20.66-.5-4.3,2.13-5.1,2.6-7.32l.48,1a101.46,101.46,0,0,1-.65-16.39c-.89-3-5.13-3.45-4.12-8.81,1.69,1.73,1.38-.46,1.37-2.46.27,1.28.89,1.68,2-1a3.78,3.78,0,0,1-1.11-1.47c.13,0,.23-.13.41-.08-.6-3.34-1.12-2.76-1.35-1.2-.26-.08-.59,0-1.06.53,2.18-3.47-.16-9.67,2.74-10.1-.68-10-3.68-17.24-4.82-25.6,1.49-.94,2.82,1,3.4,3.44l-.55-5.94c2.14.05,1.23,3.41,1.66,5.24,3.47-7.07-3.47-14.57-.3-22.86L760,427.6l.28-.5c-.9,0-2.12-1.83-2.41-3.06,1.87-1.17,4.31.08,4.19-4,1.8-3.24-.9-9.22-1.91-13.46-.32,2.29-1.35,1.55-2,.56-.06-2.05,1.8-3.23,1-4.81l2.52-.2c-2.37.81-2.56-5.36-3.59-6.12,1.87-1.16,1.61,3.18,3,3.7-.23-8.23-.12-4.11-.35-12.34-1.89-4.38-2.38.8-4.59-1.3-.49-3.87-2.24-7.66-.72-12.1l-2.23,1.4c-1.72-7.28-1.45-11.64.84-16.52-1.11-3.38-2.2-6.41-3.17-9.05l-.09-.23,0-.1,0,0c-.12,0-.36,0-.53-.07s-.33,0-.39-.1-.18.09-.28.07-.44.09-.61.11c0,0,0,0,0,0l.06.1.11.22.42.92.81,1.79c.53,1.16,1,2.23,1.54,3.23a39,39,0,0,0,5.39,8.55c3.24,3.58,5.77,3.28,7.72,1.3s3.31-5.68,4.17-8.91c.43-1.61.74-3.11.93-4.22s.28-1.88.28-1.88c.07-.37.13-.76.19-1.22,0-.23.05-.47.06-.86,0-.18,0-.45,0-1l-.07-.72c0-.29-.09-.69-.14-1s0-.09-.15-.79a20.76,20.76,0,0,0-1-3.48c17.26,9.47-23.3-22.56-35.77-5.24a21.21,21.21,0,0,0-3.86,7.71c-.37,1.53-.2.88-.32,1.44l-.14.81L729,347l-.06.46-.12,1.13-.07.5-.12.7c-.06.38-.13.75-.2,1.13-.24,1.38-.44,2.63-.6,3.86a64.47,64.47,0,0,0-.51,7,81.8,81.8,0,0,0,.93,13C729.46,383.33,731.51,392.45,732.39,405.17Z"/>
<path class="cls-1" d="M741.52,1047c0,2.58.63,4,1,2.73l-.5-5.53C742.07,1045.82,742.14,1047.8,741.52,1047Z"/>
<path class="cls-1" d="M741.53,1043.65l0-.06a3.83,3.83,0,0,0-1.44-.55,6,6,0,0,0-1.23-.08,4.29,4.29,0,0,0-1.29.26c1.48,0,1.83.16,2.11.32s.44.3,1.82.08Z"/>
<path class="cls-1" d="M768.7,1043.54c1.67.3,1.51-.28,1.79-.7C767.92,1042.72,770.43,1043.34,768.7,1043.54Z"/>
</svg>