<svg xmlns="http://www.w3.org/2000/svg" viewBox="0 0 1500 1500">
<defs><style>.cls-1{fill:#fff;}.cls-2{fill:none;}.cls-3{fill:#fffdf1;}</style></defs>
<path class="cls-1" d="M839,749.79l1.51,2.26C840.71,751.57,840.41,750.86,839,749.79Z"/>
<path class="cls-1" d="M961.35,584.79a4.49,4.49,0,0,0-.38.51C961.29,585,961.36,584.88,961.35,584.79Z"/>
<path class="cls-1" d="M900.88,832.55l-.11-.07c-.24,0-.48-.08-.7-.07Z"/>
<path class="cls-1" d="M794.8,765.36c27.54,18.13,32.25,27.27,62.68,42.91,13.75,8.74,29.3,16.6,43.29,24.21,8.65.25,18,10.68,27.46,12.23l1.74,3.84c3.27.54,6.79,1.69,8.78,4.4l-.52.49c4.88.81,8.77,4.41,11.2,4.8l-.52.5,5,2.61-1.33.36a67.82,67.82,0,0,1,20.84,11.11l1-2.81c.73.68,1.45,1.3,2.15,1.88l1,.84.51.39.77.51c1.08.68,2.12,1.35,3.19,1.89s2.13,1.05,3.18,1.49a42.6,42.6,0,0,0,12.24,2.88,84.5,84.5,0,0,0,12.05.19c4.2-.19,8.74-.5,14.22-1.2l-.08.76c3.05-1.94,5.76-3.75,8.29-5.5s4.89-3.42,7.19-5a95.2,95.2,0,0,0,12.63-10.57,40.51,40.51,0,0,0,9.31-14.46,33.52,33.52,0,0,0,1.92-9.23,34.5,34.5,0,0,0-.08-5c-.1-.84-.23-1.69-.38-2.53l-.24-1.28a6.71,6.71,0,0,0-.31-.9c.22.58.43.77.62.85s.37-.2.55-.45c.36-.5.69-1.26,1-1.16-.69-8.45-1-17.47-6.68-17.7.17-6.14,1.86-5,4.08-5.74-2.51,0-3.46-5.36-3.54-10.16L1059,793l-.63-13.77-4.76,2.63c1.48-7.28,5.78-1.77,4.75-8.77l-3.9,0c.92-10.08,6.94-15.91,10-25.63,2.31-40.57-7-84.34.51-122l3-1.62c4.3-.66-6.18-10.52-2.19-11.89l-1.89-4.43c.79-1.22,1.65-3.81,2.58-1.61.23-4.06-.47-4.17-1.72-7.11l2.73-4.32a67.05,67.05,0,0,0,.6-11.66l-.09-2-.15-2.19c-.17-1.46-.37-2.91-.63-4.35a52.89,52.89,0,0,0-2.4-8.48,59.06,59.06,0,0,0-8.65-15.37,74.9,74.9,0,0,0-12.85-13,39.92,39.92,0,0,0-10.25-7.68,46.85,46.85,0,0,0-14.27-4.77,50.58,50.58,0,0,0-16.65,0,51.78,51.78,0,0,0-16.25,5.67,64,64,0,0,0-5.59,3.47l-4.6,3.1c-3,2.08-6,4.17-8.86,6.21-5.72,4.09-11,8-15.43,11.31-23.88,20.62-63.58,23.18-87.65,45-1.2,0-2.86,2.46-2.6,2.88l-25.59,13.54s-123.45,66.82-13,46l-.18,1.16c15-5.72,23.91-10.13,31.17-19.56,4.31,4.2,11.66-5.8,15.81-6l-.08.58c6.29-8.57,19.18-6.46,25.4-14.46-.1.58.5,2.06-1.33,3.18,5.58-3.93,13.07-9.57,15.14-6.88,13.74-8.65,34.26-18.3,40.74-28l-.17,1.16c3.41-6,6.43-4.2,11.32-9,.53.21,1.05.18,1.07.38,3.9-6.26,16.18-9.64,20-13.51l1.38,1.78,11-6.69-4.43,1.91c-.76-3.08,1.83-3.42,5.38-4a27.63,27.63,0,0,0,5.74-1.39,5.94,5.94,0,0,0,3.4-2.4,4.27,4.27,0,0,0,1.85-.88,14.65,14.65,0,0,0,1.81-1.65,41.63,41.63,0,0,1,4.49-4.3,14,14,0,0,1,6-2.86,6.56,6.56,0,0,1,5.74,1.55c2.34-.46,1.07.22,0,1.09s-1.88,1.94.94,2.11c-1.37,2.84-3,.79-3,3.6,2.34.3,3.53,2.07,4.5,3.8s1.8,3.45,4.15,4.86l-1.92,1.6a5.42,5.42,0,0,1,3.46,3.17,8.92,8.92,0,0,1,.44,4.26c0,.68-.22,1.37-.25,2a9.82,9.82,0,0,0-.17,1.83,3.64,3.64,0,0,0,0,.87,3.15,3.15,0,0,0,.09.42l.12.7a8.45,8.45,0,0,0,1.07,2.67c1.88,10.54-7.5,6.93-2.8,17.95l-3.44,4.2c-.61,4.68,4.07,3.42,2.36,8.59-2.11-.35-1.79,6.53-3.75,3.46-3.5,11.7,4.32,23.94-1.52,39.33,4.07,3.43,1.49,11.18,4.55,13.74-1.8.38-.54,15.61-4.3,6.8-.31-.76-.23-2.09.47-2l-2.43-1.08c-4.75,8.75,2.29,16.08,1.44,24.81.85-2.58.69-6,2.34-3.7l-.46,8.11-2-1.72-1.39,12.07,2.57-1.62c-1.4,5.89-5.77,7.91-2.25,14.64,2,3.05,3.52-5.55,4.22.7-1.86,7.89-4.67,19.7-5.59,29.78,2.89-.9,2.74,1.82,3.28,4.62l-2.5.29c3.29,10.77-5.54,3.84-2.95,14.52l-1.72-1,5.16,2.9c4.78,9.67-5.25,5.09,1.32,15.86-.36-4.22,5.52-1.9,4.35,3.27l-2.38-1.35c.46,2.88,1.45,3.85.92,5.76-1.27-1.73-3.48-1-3.13,3.27l-3-2.88,4.3,8c-1.34,3.06-1.24,7-1.23,10.58v1.3c0,.21,0,.42,0,.63a2.34,2.34,0,0,1,0,.33,4.21,4.21,0,0,1-.23,1.07,1.94,1.94,0,0,1-1.67,1.16l-.11.22c-.08.14-.13.36-.26.59a6.76,6.76,0,0,0-.34.83,8.34,8.34,0,0,0-.38,1,4.91,4.91,0,0,0,.23,4.6c-.59-1.17-1.55-1.17-2.52-1.33a3.59,3.59,0,0,1-2.72-1.54,4.24,4.24,0,0,1-.17,4.24,2.36,2.36,0,0,1-3.55.81l.13-.41a10.38,10.38,0,0,0-3.69.36c-1.06.3-2.09.75-3.24,1a6.29,6.29,0,0,1-3.57,0c-.3-.13-.59-.25-.88-.4s-.54-.39-.81-.61l-.9-.69-1-.79c-.63-.55-1.25-1.12-1.86-1.74-1,2.79-6.26-2.21-6.65,1.86-13.84-4-18-19.5-28.14-12.29-5.76-2.73-5.08-6.16-7.59-8.35l1.61.26c-10.68-5.3-13.69-7-21.14-11.74-4.35-1.31-7.67,2.89-13.78-2.27,3.27-.5.3-1.82-2.23-3.33,1.79.68,2.68.32.08-2.89a5.61,5.61,0,0,1-2.58.07c.06-.16,0-.35.18-.5-4.62-1.89-4.22-.89-2.4.53-.27.22-.31.67,0,1.54-3-5-12.33-7.17-11-10.59-13.15-6.9-24.17-9.13-35.47-14.26-.23-2.31,3.09-2.25,6.53-1L865.57,767c1.44-2.26,5.11,1.26,7.7,2.19-6.72-9.08-20.66-7.33-29.1-17l-3.26.52-.45-.68c-.54,1-3.68.88-5.41.26-.29-2.89,2.86-4.56-2.4-7.54-2.95-4.39-12.24-6-18.26-8.15,2.69,2.07,1.09,2.63-.58,2.58-2.63-1.48-2.93-4.38-5.45-4.72l1.37-2.85c-.5,3.16-8.42-1.31-10-.78-.28-2.89,5.06.69,6.61-.44l-15.84-9c-6.77-1.29-.52,3.16-4.59,3.94-.66-.3-1.32-.58-2-.85l-.89-.34-.83-.3a13.67,13.67,0,0,1-1.63-.68,10.49,10.49,0,0,1-1.6-.82,9.64,9.64,0,0,1-4.64-5.76,29.29,29.29,0,0,0-1.2,3.05,20.32,20.32,0,0,1-4.46-4.86,16.93,16.93,0,0,1-2.29-5.13,14.63,14.63,0,0,1,.95-9.8,37.07,37.07,0,0,1-1.45-6.4,38.25,38.25,0,0,1-.29-6.18,42,42,0,0,1,1.85-10.92c2-6.49,4.78-11.16,6.47-14.59.44-.85.82-1.64,1.12-2.37a4.21,4.21,0,0,0,.32-1c.07-.3.12-.59.16-.86a5.46,5.46,0,0,0-.25-2.78c-.6-1.5-2-2.33-3.87-2.71a20.73,20.73,0,0,0-4.23.55,30.23,30.23,0,0,0-5,1.76,41,41,0,0,0-9.95,6.49,48.89,48.89,0,0,0-7,7.59c-.83,1.07-1.39,2-1.82,2.64l-.64,1a54,54,0,0,0-8.42,35.46,55.68,55.68,0,0,0,13.36,30.27,59.24,59.24,0,0,0,12.7,10.95c1.2.74,2.39,1.52,3.65,2.16l1.88,1,.47.25.41.2.6.25,5,2.11C779.11,757.67,786.49,761,794.8,765.36Z"/>
<path class="cls-1" d="M671.84,698.35l-1.54-2.24C670.06,696.59,670.37,697.3,671.84,698.35Z"/>
<path class="cls-1" d="M552.06,865.26a4.6,4.6,0,0,0,.38-.52C552.13,865,552.05,865.17,552.06,865.26Z"/>
<path class="cls-1" d="M608.62,616.58l.11.06c.24,0,.48.08.7.07Z"/>
<path class="cls-1" d="M715.74,682.08c-27.82-17.69-32.67-26.76-63.34-41.92-13.89-8.52-29.56-16.13-43.67-23.52-8.66-.11-18.13-10.4-27.65-11.8l-1.8-3.8c-3.27-.5-6.82-1.59-8.85-4.26l.52-.51c-4.9-.73-8.85-4.26-11.28-4.62l.51-.51-5-2.52,1.33-.39a67.58,67.58,0,0,1-21-10.77l-.93,2.81c-.74-.66-1.47-1.27-2.18-1.84l-1.06-.82-.52-.38c-.2-.14-.53-.34-.78-.5a36.61,36.61,0,0,0-3.22-1.84c-1.09-.53-2.14-1-3.2-1.44a42.83,42.83,0,0,0-12.29-2.69,83.4,83.4,0,0,0-12,0c-4.21.26-8.73.64-14.21,1.42l.07-.76c-3,2-5.7,3.85-8.21,5.64s-4.83,3.49-7.1,5.14A94.54,94.54,0,0,0,457.37,593a40.57,40.57,0,0,0-9.08,14.61,31,31,0,0,0-1.2,4.48,29.76,29.76,0,0,0-.57,4.77,33.24,33.24,0,0,0,.16,5c.11.84.25,1.68.42,2.53.08.42.17.84.26,1.27s.21.59.32.9c-.22-.58-.43-.77-.62-.84s-.38.2-.55.45c-.35.51-.67,1.28-1,1.18.83,8.44,1.27,17.46,7,17.59-.08,6.15-1.79,5-4,5.81,2.5,0,3.54,5.3,3.69,10.1l-1-2.21.85,13.76,4.71-2.7c-1.35,7.3-5.75,1.85-4.61,8.84l3.91-.09c-.77,10.09-6.69,16-9.57,25.78-1.67,40.6,8.29,84.23,1.42,122L445,827.84c-4.29.73,6.34,10.42,2.38,11.86l2,4.39c-.77,1.24-1.59,3.84-2.55,1.65-.17,4.07.53,4.17,1.83,7.09l-2.67,4.36a66.74,66.74,0,0,0-.41,11.67l.12,2,.19,2.18c.19,1.46.41,2.91.7,4.35a52.15,52.15,0,0,0,2.53,8.44,59.33,59.33,0,0,0,8.89,15.23A75.56,75.56,0,0,0,471,913.82a39.93,39.93,0,0,0,10.38,7.51,46.58,46.58,0,0,0,14.34,4.55,50.7,50.7,0,0,0,16.64-.31,51.76,51.76,0,0,0,16.16-5.93,64.43,64.43,0,0,0,5.53-3.55l4.55-3.17c3-2.13,5.94-4.27,8.77-6.35,5.65-4.18,10.85-8.18,15.25-11.56,23.55-21,63.2-24.17,86.93-46.33,1.19,0,2.82-2.51,2.55-2.92l25.38-14s122.37-68.75,12.26-46.21l.15-1.16C675,790.39,666.13,795,659,804.49c-4.37-4.13-11.57,6-15.71,6.23l.07-.58c-6.16,8.67-19.08,6.76-25.17,14.85.09-.57-.53-2,1.28-3.19-5.52,4-12.92,9.77-15,7.12-13.6,8.87-34,18.84-40.29,28.66l.15-1.16c-3.32,6.09-6.37,4.3-11.18,9.2-.53-.2-1-.16-1.08-.36-3.8,6.32-16,9.89-19.77,13.82l-1.41-1.76L520,884.19l4.4-2c.81,3.07-1.78,3.45-5.32,4.08a27.92,27.92,0,0,0-5.72,1.48,6,6,0,0,0-3.36,2.45,4.38,4.38,0,0,0-1.83.91,14.26,14.26,0,0,0-1.78,1.68,41.82,41.82,0,0,1-4.43,4.37,14,14,0,0,1-5.91,3,6.51,6.51,0,0,1-5.76-1.46c-2.34.5-1.07-.2,0-1.09s1.85-2-1-2.09c1.33-2.86,2.95-.84,2.92-3.64-2.34-.27-3.55-2-4.55-3.73s-1.85-3.43-4.23-4.8l1.89-1.63a5.37,5.37,0,0,1-3.5-3.12,8.78,8.78,0,0,1-.51-4.25c0-.68.19-1.37.22-2a9.71,9.71,0,0,0,.14-1.83,4.25,4.25,0,0,0-.06-.87c0-.14-.06-.28-.1-.42s-.08-.47-.14-.7a8.43,8.43,0,0,0-1.1-2.65c-2-10.51,7.38-7,2.52-18l3.36-4.26c.55-4.68-4.12-3.35-2.49-8.55,2.12.32,1.69-6.56,3.7-3.52,3.31-11.75-4.71-23.86.9-39.34-4.12-3.37-1.67-11.16-4.77-13.67,1.8-.41.29-15.62,4.19-6.87.32.76.26,2.09-.44,2l2.44,1.05c4.62-8.83-2.54-16-1.82-24.78-.81,2.59-.6,6-2.28,3.73l.33-8.11,2.06,1.68,1.21-12.09-2.55,1.67c1.31-5.92,5.64-8,2-14.68-2-3-3.43,5.61-4.23-.64,1.74-7.91,4.36-19.76,5.12-29.86-2.88.94-2.77-1.77-3.35-4.57l2.49-.32c-3.46-10.72,5.47-3.93,2.72-14.57l1.74.94-5.2-2.81c-4.94-9.6,5.16-5.18-1.58-15.84.43,4.21-5.49,2-4.4-3.21l2.4,1.32c-.51-2.87-1.51-3.83-1-5.74,1.29,1.71,3.49.9,3.08-3.32l3,2.83-4.42-8c1.29-3.08,1.12-7.06,1.06-10.59,0-.44,0-.88,0-1.3v-.63c0-.17,0-.22,0-.33a4.22,4.22,0,0,1,.22-1.07,1.93,1.93,0,0,1,1.65-1.19l.11-.22c.07-.14.12-.36.24-.6a6.76,6.76,0,0,0,.34-.83c.15-.29.23-.64.36-1a4.92,4.92,0,0,0-.3-4.59c.6,1.15,1.56,1.14,2.53,1.28a3.63,3.63,0,0,1,2.75,1.5,4.23,4.23,0,0,1,.1-4.24,2.36,2.36,0,0,1,3.54-.87l-.13.41a10.26,10.26,0,0,0,3.69-.41c1.05-.32,2.08-.79,3.22-1.09a6.4,6.4,0,0,1,3.58,0c.29.12.59.24.88.38s.55.39.81.6l.92.68c.32.25.65.51,1,.78q1,.79,1.89,1.71c.92-2.81,6.29,2.11,6.62-2,13.9,3.81,18.26,19.22,28.33,11.85,5.8,2.64,5.17,6.08,7.72,8.22l-1.61-.23c10.76,5.13,13.8,6.76,21.31,11.4,4.38,1.24,7.63-3,13.83,2.06-3.27.54-.28,1.82,2.28,3.3-1.8-.66-2.69-.28,0,2.88a5.61,5.61,0,0,1,2.58-.11c-.06.16,0,.35-.17.5,4.64,1.82,4.23.83,2.39-.57.26-.22.3-.67,0-1.53,3.07,4.91,12.44,7,11.17,10.41,13.26,6.69,24.31,8.75,35.69,13.7.27,2.31-3,2.3-6.52,1.13l7.92,3.79c-1.4,2.28-5.12-1.18-7.72-2.07,6.85,9,20.76,7,29.36,16.55l3.25-.57.46.67c.53-1,3.66-.94,5.41-.35.33,2.89-2.8,4.61,2.52,7.51,3,4.34,12.33,5.81,18.38,7.86-2.72-2-1.13-2.61.54-2.6,2.66,1.45,3,4.34,5.52,4.64l-1.32,2.88c.45-3.17,8.44,1.17,10,.61.33,2.89-5.07-.6-6.6.54l16,8.72c6.8,1.18.48-3.17,4.54-4,.65.29,1.32.55,2,.81l.9.33.82.29a13.79,13.79,0,0,1,1.65.65,11,11,0,0,1,1.61.8,9.66,9.66,0,0,1,4.74,5.69c.44-1,.79-2,1.14-3.07a19.9,19.9,0,0,1,4.54,4.78,17,17,0,0,1,2.37,5.1,14.6,14.6,0,0,1-.8,9.81,36.29,36.29,0,0,1,1.56,6.37,37.42,37.42,0,0,1,.38,6.18,42.06,42.06,0,0,1-1.68,11c-1.91,6.52-4.6,11.23-6.24,14.69-.42.86-.78,1.65-1.08,2.39a3.94,3.94,0,0,0-.3,1c-.07.3-.11.59-.15.87a5.6,5.6,0,0,0,.3,2.77c.62,1.49,2,2.3,3.91,2.64a19.75,19.75,0,0,0,4.22-.61,29.84,29.84,0,0,0,4.93-1.84,41.16,41.16,0,0,0,9.84-6.64,48.37,48.37,0,0,0,6.87-7.71c.82-1.08,1.37-2,1.79-2.66l.62-1a54,54,0,0,0,7.86-35.59,55.65,55.65,0,0,0-13.84-30.06,58.91,58.91,0,0,0-12.87-10.74c-1.21-.72-2.41-1.48-3.68-2.1l-1.89-1-.48-.24-.41-.19-.61-.24-5-2C731.55,689.52,724.13,686.29,715.74,682.08Z"/>
<path class="cls-1" d="M766.79,515.14l-.93,1.66C766.29,516.78,766.66,516.35,766.79,515.14Z"/>
<path class="cls-1" d="M767.88,937.63c.08.13.12.28.21.4C768,937.75,768,937.66,767.88,937.63Z"/>
<path class="cls-1" d="M735.49,580.05V580c-.09-.14-.14-.31-.23-.43Z"/>
<path class="cls-1" d="M738,494.87c-1.12,22.36-5.46,28.29-3.67,51.45-.34,11,.68,22.84,1.21,33.64,3.39,5.12.07,14.18,2.92,20.24l-1.91,2.35c1,2.09,1.63,4.55.6,6.65l-.56-.13c1.46,3.12.6,6.64,1.33,8.19l-.57-.13.26,3.79-.8-.65a39,39,0,0,1,1,16l2.33-.42c-2.58,10.58,2.24,14.44-.82,24l-.56-.13c6.14,12-4.14,19.07,1.7,31.49-.73-1.55-1.2.67-1.76.54.67,5.72,1,11.84,5.59,11.92-.05,4.17-1.42,3.4-3.18,4,2,0,2.84,3.59,3,6.85l-.78-1.5.7,9.33,3.77-1.84c-1.07,4.95-4.6,1.27-3.67,6l3.12-.07c-.6,6.84-5.33,10.87-7.62,17.5-1.28,27.55,6.75,57.12,1.3,82.76l-2.34,1.13c-3.43.5,5.09,7.06,1.92,8.05l1.57,3c-.61.84-1.26,2.61-2,1.13-.12,2.75.44,2.82,1.48,4.8l-2.13,3c-1.63,10.88,2.5,20.12,1.69,31.56-4.32,13.76-.27,39.62,2.08,54.53,5.17,20.94-8.45,45.34-2.56,66.78-.49.69.61,2.5,1,2.48l-.47,19.63s-.08,5.95.24,13.73c.15,3.89.41,8.25.82,12.53l.33,3.18c.12,1,.25,2.1.39,3a.64.64,0,0,0,.05.22h0l1.63.06,3.51.14,2.88.13,2.45.13,1.84.13c.21,0,.54.08.6.07a.4.4,0,0,0,.34,0c.14,0,.28,0,.6-.07s.53-.06.8-.07l2.22-.16,5.81-.3,3.37-.15h0a.22.22,0,0,1,0-.08l-.07-.29c-.09-.47-.18-.93-.28-1.39-.19-1-.39-1.9-.6-2.81-1.7-7.31-4.23-12.42-8.1-11.14-1.93.64-4.19,2.87-6.83,7.22a70.94,70.94,0,0,0-4.23,8.25c-.09.22-.18.45-.28.68s-.09.25-.13.41a2.93,2.93,0,0,0-.06.33v.47c6.18-.44-13.77,2.33,14.78,2,.84-2.9.36-1.58.53-2.17a3.51,3.51,0,0,1,.11-.56,2.07,2.07,0,0,1,.09-.24l.15-.4c.11-.23.21-.47.31-.71l1.25-2.85c.85-2,1.71-4.06,2.6-6.32l.75.49c1.83-10.78,2.23-17.55-1.54-25,4.61-1.18.47-8.84,2-11.35l.38.23c-3.55-6.55,2.93-13.51-.25-19.82.37.24,1.63.38,1.71,1.83-.59-4.61-1.62-10.9,1.06-11.25-.72-11,.5-26.35-3.8-33.39l.75.48c-2.9-4-.44-5.2-1.92-9.68.35-.25.53-.57.68-.52-2.86-4.37-.47-12.76-1.69-16.3l1.78-.23-.44-8.71-.37,3.26c-4.9-1.12,3.06-6.6-.13-12.91.61-5.91-10.2-12-7.82-18.11-2.29-2.93,3.74,2.57,2-1.81,2.56-.14,1.61,2,3.64.91-1.22-4.29,2.6-7.05.86-12.35l2-.22c-3.65-6.91,2.6-13-.88-17.65-1.66-7.12,5.89-4.79,2-12.21l2.68-2.89c.43-3.18-3.3-2.27-2-5.8,1.7.21,1.35-4.45,3-2.39,2.64-8-3.8-16.18.66-26.69-3.3-2.28-1.35-7.57-3.83-9.27,1.44-.28.21-10.59,3.35-4.66.25.51.21,1.41-.36,1.35l2,.71c3.68-6-2-10.88-1.5-16.81-.64,1.76-.46,4.09-1.81,2.54l.25-5.51,1.65,1.14,1-8.2-2,1.13c1-4,4.51-5.44,1.6-10-1.62-2-2.74,3.81-3.39-.43,1.38-5.36,3.46-13.41,4.06-20.26-2.3.64-2.22-1.2-2.69-3.09l2-.23c-2.78-7.26,4.38-2.67,2.16-9.88l1.39.63-4.16-1.9c-4-6.5,4.12-3.52-1.28-10.74.34,2.86-4.39,1.36-3.53-2.17l1.92.89c-.41-1.95-1.21-2.59-.82-3.89,1,1.16,2.8.61,2.47-2.26l2.41,1.92-3.55-5.41c2-4.19-.55-10.81,2.16-12.53,0,0,1.31-9-1.66-11,1.84,1.8,2.54-3.16,4.71-1.75-2.09-2.32-3.82-9.2-1.6-12l.25.52c2.26-10.19-3.14-17.41-.4-26.56-2.31.42-1.06-4.41-4-3.21-2.94-9.46,6-17.26-3.16-20.66-.5-4.3,2.13-5.1,2.6-7.32l.48,1a101.46,101.46,0,0,1-.65-16.39c-.89-3-5.13-3.45-4.12-8.81,1.69,1.73,1.38-.46,1.37-2.46.27,1.28.89,1.68,2-1a3.78,3.78,0,0,1-1.11-1.47c.13,0,.23-.13.41-.08-.6-3.34-1.12-2.76-1.35-1.2-.26-.08-.59.05-1.06.53,2.18-3.47-.16-9.67,2.74-10.1-.68-10.05-3.68-17.24-4.82-25.6,1.49-.94,2.82,1,3.4,3.44l-.55-5.94c2.14,0,1.23,3.41,1.66,5.24,3.46-7.07-3.47-14.57-.3-22.86l-1.69-1.71.28-.5c-.9,0-2.12-1.83-2.41-3.06,1.87-1.17,4.31.08,4.19-4,1.8-3.24-.9-9.22-1.91-13.46-.32,2.29-1.35,1.55-2,.56-.06-2.05,1.8-3.23,1-4.81l2.52-.2c-2.37.81-2.56-5.36-3.59-6.12,1.87-1.16,1.61,3.19,3,3.7-.23-8.23-.12-4.11-.35-12.33-1.89-4.39-2.38.79-4.59-1.31-.49-3.87-2.24-7.66-.72-12.1l-2.23,1.4c-1.72-7.28-1.45-11.64.84-16.52-1.11-3.38-2.2-6.41-3.17-9l-.09-.23,0-.1,0,0c-.12,0-.36,0-.53-.07s-.33,0-.39-.1-.18.09-.28.07-.44.09-.61.11c0,0,0,0,0,0l.06.1.11.22.42.92.81,1.79c.53,1.16,1,2.23,1.54,3.23a39,39,0,0,0,5.39,8.55c3.24,3.58,5.77,3.28,7.72,1.3s3.31-5.68,4.17-8.91c.43-1.61.74-3.11.93-4.22s.28-1.87.28-1.87c.07-.38.13-.77.19-1.23,0-.23,0-.47.06-.86,0-.18,0-.45,0-1l-.07-.72c0-.29-.09-.69-.14-1s0-.09-.15-.79a20.37,20.37,0,0,0-1.05-3.47c17.25,9.46-23.29-22.57-35.77-5.25a21.21,21.21,0,0,0-3.86,7.71c-.37,1.53-.2.88-.32,1.44l-.14.81-.11.77-.06.46-.12,1.13-.07.5-.12.7c-.06.38-.13.75-.2,1.13-.24,1.38-.44,2.63-.6,3.86a64.47,64.47,0,0,0-.51,7,81.8,81.8,0,0,0,.93,13C735,473,737.08,482.15,738,494.87Z"/>
</svg>